%TF.GenerationSoftware,KiCad,Pcbnew,7.0.1*%
%TF.CreationDate,2023-06-28T01:29:01+03:00*%
%TF.ProjectId,board,626f6172-642e-46b6-9963-61645f706362,rev?*%
%TF.SameCoordinates,Original*%
%TF.FileFunction,Soldermask,Top*%
%TF.FilePolarity,Negative*%
%FSLAX46Y46*%
G04 Gerber Fmt 4.6, Leading zero omitted, Abs format (unit mm)*
G04 Created by KiCad (PCBNEW 7.0.1) date 2023-06-28 01:29:01*
%MOMM*%
%LPD*%
G01*
G04 APERTURE LIST*
G04 Aperture macros list*
%AMRoundRect*
0 Rectangle with rounded corners*
0 $1 Rounding radius*
0 $2 $3 $4 $5 $6 $7 $8 $9 X,Y pos of 4 corners*
0 Add a 4 corners polygon primitive as box body*
4,1,4,$2,$3,$4,$5,$6,$7,$8,$9,$2,$3,0*
0 Add four circle primitives for the rounded corners*
1,1,$1+$1,$2,$3*
1,1,$1+$1,$4,$5*
1,1,$1+$1,$6,$7*
1,1,$1+$1,$8,$9*
0 Add four rect primitives between the rounded corners*
20,1,$1+$1,$2,$3,$4,$5,0*
20,1,$1+$1,$4,$5,$6,$7,0*
20,1,$1+$1,$6,$7,$8,$9,0*
20,1,$1+$1,$8,$9,$2,$3,0*%
G04 Aperture macros list end*
%ADD10R,1.200000X0.450000*%
%ADD11RoundRect,0.100000X-0.100000X0.130000X-0.100000X-0.130000X0.100000X-0.130000X0.100000X0.130000X0*%
%ADD12RoundRect,0.147500X0.172500X-0.147500X0.172500X0.147500X-0.172500X0.147500X-0.172500X-0.147500X0*%
%ADD13RoundRect,0.200000X0.275000X-0.200000X0.275000X0.200000X-0.275000X0.200000X-0.275000X-0.200000X0*%
%ADD14RoundRect,0.225000X0.250000X-0.225000X0.250000X0.225000X-0.250000X0.225000X-0.250000X-0.225000X0*%
%ADD15RoundRect,0.075000X-0.125000X-0.075000X0.125000X-0.075000X0.125000X0.075000X-0.125000X0.075000X0*%
%ADD16RoundRect,0.075000X0.125000X0.075000X-0.125000X0.075000X-0.125000X-0.075000X0.125000X-0.075000X0*%
%ADD17R,1.800000X1.230000*%
%ADD18RoundRect,0.250000X0.250000X0.475000X-0.250000X0.475000X-0.250000X-0.475000X0.250000X-0.475000X0*%
%ADD19R,3.150000X1.800000*%
%ADD20R,1.230000X1.800000*%
%ADD21R,1.000000X0.750000*%
%ADD22RoundRect,0.250000X-0.250000X-0.475000X0.250000X-0.475000X0.250000X0.475000X-0.250000X0.475000X0*%
%ADD23RoundRect,0.225000X-0.225000X-0.250000X0.225000X-0.250000X0.225000X0.250000X-0.225000X0.250000X0*%
%ADD24RoundRect,0.147500X0.147500X0.172500X-0.147500X0.172500X-0.147500X-0.172500X0.147500X-0.172500X0*%
%ADD25RoundRect,0.225000X0.225000X0.250000X-0.225000X0.250000X-0.225000X-0.250000X0.225000X-0.250000X0*%
%ADD26R,1.000000X1.000000*%
%ADD27O,1.000000X1.000000*%
%ADD28R,2.200000X1.550000*%
%ADD29RoundRect,0.075000X0.075000X-0.125000X0.075000X0.125000X-0.075000X0.125000X-0.075000X-0.125000X0*%
%ADD30R,0.660400X1.752600*%
%ADD31R,7.899400X4.292600*%
%ADD32RoundRect,0.101600X0.749300X0.248920X-0.749300X0.248920X-0.749300X-0.248920X0.749300X-0.248920X0*%
%ADD33RoundRect,0.101600X0.248920X0.749300X-0.248920X0.749300X-0.248920X-0.749300X0.248920X-0.749300X0*%
%ADD34RoundRect,0.200000X-0.200000X-0.275000X0.200000X-0.275000X0.200000X0.275000X-0.200000X0.275000X0*%
%ADD35RoundRect,0.075000X-0.075000X0.125000X-0.075000X-0.125000X0.075000X-0.125000X0.075000X0.125000X0*%
%ADD36RoundRect,0.250000X0.450000X-0.262500X0.450000X0.262500X-0.450000X0.262500X-0.450000X-0.262500X0*%
%ADD37RoundRect,0.250000X0.325000X0.650000X-0.325000X0.650000X-0.325000X-0.650000X0.325000X-0.650000X0*%
%ADD38RoundRect,0.225000X-0.250000X0.225000X-0.250000X-0.225000X0.250000X-0.225000X0.250000X0.225000X0*%
%ADD39RoundRect,0.250000X-0.450000X0.262500X-0.450000X-0.262500X0.450000X-0.262500X0.450000X0.262500X0*%
%ADD40C,1.308000*%
%ADD41RoundRect,0.250000X0.262500X0.450000X-0.262500X0.450000X-0.262500X-0.450000X0.262500X-0.450000X0*%
%ADD42R,3.600000X1.270000*%
%ADD43R,4.200000X1.350000*%
%ADD44R,2.000000X3.500000*%
%ADD45RoundRect,0.101600X0.949960X0.549910X-0.949960X0.549910X-0.949960X-0.549910X0.949960X-0.549910X0*%
%ADD46R,1.500000X2.000000*%
%ADD47RoundRect,0.062500X0.350000X0.062500X-0.350000X0.062500X-0.350000X-0.062500X0.350000X-0.062500X0*%
%ADD48RoundRect,0.062500X0.062500X0.350000X-0.062500X0.350000X-0.062500X-0.350000X0.062500X-0.350000X0*%
%ADD49R,2.500000X2.500000*%
%ADD50RoundRect,0.200000X-0.275000X0.200000X-0.275000X-0.200000X0.275000X-0.200000X0.275000X0.200000X0*%
%ADD51R,1.700000X1.700000*%
%ADD52O,1.700000X1.700000*%
%ADD53R,0.950000X1.750000*%
%ADD54R,3.200000X1.750000*%
%ADD55R,1.100000X1.500000*%
%ADD56R,1.200000X1.750000*%
%ADD57R,1.600000X1.750000*%
%ADD58RoundRect,0.250000X0.625000X-0.312500X0.625000X0.312500X-0.625000X0.312500X-0.625000X-0.312500X0*%
%ADD59C,1.102360*%
%ADD60RoundRect,0.101600X-0.248920X1.249680X-0.248920X-1.249680X0.248920X-1.249680X0.248920X1.249680X0*%
%ADD61RoundRect,0.101600X-0.999490X1.249680X-0.999490X-1.249680X0.999490X-1.249680X0.999490X1.249680X0*%
%ADD62RoundRect,0.250000X-0.625000X0.312500X-0.625000X-0.312500X0.625000X-0.312500X0.625000X0.312500X0*%
G04 APERTURE END LIST*
D10*
%TO.C,IC1*%
X165065000Y-71510000D03*
X165065000Y-70860000D03*
X165065000Y-70210000D03*
X165065000Y-69560000D03*
X162565000Y-69560000D03*
X162565000Y-70210000D03*
X162565000Y-70860000D03*
X162565000Y-71510000D03*
%TD*%
D11*
%TO.C,D1*%
X163304680Y-62137500D03*
X163304680Y-62777500D03*
%TD*%
D12*
%TO.C,L1*%
X116710000Y-65120000D03*
X116710000Y-64150000D03*
%TD*%
D13*
%TO.C,R5*%
X153340000Y-57590000D03*
X153340000Y-55940000D03*
%TD*%
D14*
%TO.C,C2*%
X150060000Y-57600000D03*
X150060000Y-56050000D03*
%TD*%
D15*
%TO.C,C15*%
X114775000Y-62300000D03*
X115275000Y-62300000D03*
%TD*%
D14*
%TO.C,C6*%
X142200000Y-63350000D03*
X142200000Y-61800000D03*
%TD*%
D13*
%TO.C,R2*%
X161140680Y-62740900D03*
X161140680Y-61090900D03*
%TD*%
D16*
%TO.C,C13*%
X114575000Y-64115000D03*
X114075000Y-64115000D03*
%TD*%
D17*
%TO.C,C24*%
X121470000Y-79280000D03*
X118850000Y-79280000D03*
%TD*%
D18*
%TO.C,C28*%
X180985000Y-78975000D03*
X179085000Y-78975000D03*
%TD*%
D19*
%TO.C,C11*%
X149305000Y-76370000D03*
X144205000Y-76370000D03*
%TD*%
D20*
%TO.C,C25*%
X126270000Y-78300000D03*
X126270000Y-75680000D03*
%TD*%
D21*
%TO.C,S2*%
X119325000Y-53900000D03*
X123825000Y-53900000D03*
X119325000Y-51750000D03*
X123825000Y-51750000D03*
%TD*%
D14*
%TO.C,C1*%
X148575000Y-57590000D03*
X148575000Y-56040000D03*
%TD*%
D22*
%TO.C,C3*%
X155065000Y-60345000D03*
X156965000Y-60345000D03*
%TD*%
D23*
%TO.C,C21*%
X125430000Y-61525000D03*
X126980000Y-61525000D03*
%TD*%
D13*
%TO.C,R11*%
X160135000Y-73090000D03*
X160135000Y-71440000D03*
%TD*%
D24*
%TO.C,L3*%
X115600000Y-65150000D03*
X114630000Y-65150000D03*
%TD*%
D25*
%TO.C,C33*%
X177375000Y-64965000D03*
X175825000Y-64965000D03*
%TD*%
D26*
%TO.C,J6*%
X128405000Y-65955000D03*
D27*
X127135000Y-65955000D03*
%TD*%
D18*
%TO.C,C32*%
X158050000Y-71125000D03*
X156150000Y-71125000D03*
%TD*%
D23*
%TO.C,C23*%
X118650000Y-68800000D03*
X120200000Y-68800000D03*
%TD*%
D26*
%TO.C,J4*%
X141245000Y-67430000D03*
D27*
X141245000Y-68700000D03*
%TD*%
D28*
%TO.C,D3*%
X156690000Y-75340000D03*
X160790000Y-75340000D03*
%TD*%
D29*
%TO.C,C16*%
X113805000Y-65365000D03*
X113805000Y-64865000D03*
%TD*%
D18*
%TO.C,C27*%
X139110000Y-78230000D03*
X137210000Y-78230000D03*
%TD*%
D26*
%TO.C,J16*%
X182705000Y-57055000D03*
D27*
X182705000Y-58325000D03*
X182705000Y-59595000D03*
%TD*%
D12*
%TO.C,L2*%
X115600000Y-64210000D03*
X115600000Y-63240000D03*
%TD*%
D30*
%TO.C,U1*%
X131260800Y-72780600D03*
X132251400Y-72780600D03*
X133242000Y-72780600D03*
X134258000Y-72780600D03*
X135248600Y-72780600D03*
X136239200Y-72780600D03*
X136239200Y-63179400D03*
X135248600Y-63179400D03*
X134258000Y-63179400D03*
X133242000Y-63179400D03*
X132251400Y-63179400D03*
X131260800Y-63179400D03*
D31*
X133750000Y-67980000D03*
%TD*%
D30*
%TO.C,U3*%
X185339200Y-63179400D03*
X184348600Y-63179400D03*
X183358000Y-63179400D03*
X182342000Y-63179400D03*
X181351400Y-63179400D03*
X180360800Y-63179400D03*
X180360800Y-72780600D03*
X181351400Y-72780600D03*
X182342000Y-72780600D03*
X183358000Y-72780600D03*
X184348600Y-72780600D03*
X185339200Y-72780600D03*
D31*
X182850000Y-67980000D03*
%TD*%
D32*
%TO.C,U2*%
X155673820Y-69712960D03*
X155673820Y-68912860D03*
X155673820Y-68112760D03*
X155673820Y-67312660D03*
X155673820Y-66512560D03*
X155673820Y-65715000D03*
X155673820Y-64917440D03*
X155673820Y-64117340D03*
X155673820Y-63317240D03*
X155673820Y-62517140D03*
X155673820Y-61717040D03*
D33*
X153872960Y-59916180D03*
X153072860Y-59916180D03*
X152272760Y-59916180D03*
X151472660Y-59916180D03*
X150672560Y-59916180D03*
X149875000Y-59916180D03*
X149077440Y-59916180D03*
X148277340Y-59916180D03*
X147477240Y-59916180D03*
X146677140Y-59916180D03*
X145877040Y-59916180D03*
D32*
X144076180Y-61717040D03*
X144076180Y-62517140D03*
X144076180Y-63317240D03*
X144076180Y-64117340D03*
X144076180Y-64917440D03*
X144076180Y-65715000D03*
X144076180Y-66512560D03*
X144076180Y-67312660D03*
X144076180Y-68112760D03*
X144076180Y-68912860D03*
X144076180Y-69712960D03*
D33*
X145877040Y-71513820D03*
X146677140Y-71513820D03*
X147477240Y-71513820D03*
X148277340Y-71513820D03*
X149077440Y-71513820D03*
X149875000Y-71513820D03*
X150672560Y-71513820D03*
X151472660Y-71513820D03*
X152272760Y-71513820D03*
X153072860Y-71513820D03*
X153872960Y-71513820D03*
%TD*%
D26*
%TO.C,J13*%
X154900000Y-76900000D03*
%TD*%
D34*
%TO.C,R15*%
X170430000Y-63115000D03*
X172080000Y-63115000D03*
%TD*%
D26*
%TO.C,J12*%
X163350000Y-76900000D03*
%TD*%
D35*
%TO.C,R7*%
X120180000Y-66540000D03*
X120180000Y-67040000D03*
%TD*%
D28*
%TO.C,D2*%
X155155000Y-78925000D03*
X151055000Y-78925000D03*
%TD*%
D36*
%TO.C,R10*%
X188390000Y-73717500D03*
X188390000Y-71892500D03*
%TD*%
D25*
%TO.C,C18*%
X120125000Y-59510000D03*
X118575000Y-59510000D03*
%TD*%
D23*
%TO.C,C17*%
X122200000Y-59510000D03*
X123750000Y-59510000D03*
%TD*%
D37*
%TO.C,C36*%
X172155000Y-65860000D03*
X169205000Y-65860000D03*
%TD*%
D38*
%TO.C,C8*%
X151540000Y-56560000D03*
X151540000Y-58110000D03*
%TD*%
D39*
%TO.C,R9*%
X188345000Y-57177500D03*
X188345000Y-59002500D03*
%TD*%
D22*
%TO.C,C34*%
X175515000Y-66760000D03*
X177415000Y-66760000D03*
%TD*%
D26*
%TO.C,J5*%
X125710000Y-55615000D03*
D27*
X125710000Y-56885000D03*
%TD*%
D26*
%TO.C,J3*%
X140945000Y-54290000D03*
D27*
X140945000Y-55560000D03*
%TD*%
D23*
%TO.C,C31*%
X157800000Y-69270000D03*
X159350000Y-69270000D03*
%TD*%
D15*
%TO.C,C14*%
X114775000Y-61600000D03*
X115275000Y-61600000D03*
%TD*%
D25*
%TO.C,C10*%
X153500000Y-75100000D03*
X151950000Y-75100000D03*
%TD*%
D40*
%TO.C,U5*%
X185400000Y-51910000D03*
X180320000Y-54450000D03*
X182860000Y-51910000D03*
X185400000Y-54450000D03*
X182860000Y-54450000D03*
X180320000Y-51910000D03*
%TD*%
D23*
%TO.C,C22*%
X122750000Y-68800000D03*
X124300000Y-68800000D03*
%TD*%
D41*
%TO.C,R13*%
X170997500Y-67990000D03*
X169172500Y-67990000D03*
%TD*%
D22*
%TO.C,C29*%
X179020000Y-76890000D03*
X180920000Y-76890000D03*
%TD*%
D42*
%TO.C,J11*%
X111285000Y-64460000D03*
D43*
X111485000Y-61635000D03*
X111485000Y-67285000D03*
%TD*%
D44*
%TO.C,L4*%
X177155000Y-74950000D03*
X168155000Y-74950000D03*
%TD*%
D45*
%TO.C,Y2*%
X144270580Y-57820850D03*
X140572340Y-57820850D03*
X140572340Y-60117010D03*
X144270580Y-60117010D03*
%TD*%
D46*
%TO.C,LS1*%
X137890000Y-58795000D03*
X127990000Y-58795000D03*
X127990000Y-52395000D03*
X137890000Y-52395000D03*
%TD*%
D13*
%TO.C,R3*%
X159494680Y-62875000D03*
X159494680Y-61225000D03*
%TD*%
D47*
%TO.C,U4*%
X123862500Y-64525000D03*
X123862500Y-64025000D03*
X123862500Y-63525000D03*
X123862500Y-63025000D03*
X123862500Y-62525000D03*
D48*
X122925000Y-61587500D03*
X122425000Y-61587500D03*
X121925000Y-61587500D03*
X121425000Y-61587500D03*
X120925000Y-61587500D03*
D47*
X119987500Y-62525000D03*
X119987500Y-63025000D03*
X119987500Y-63525000D03*
X119987500Y-64025000D03*
X119987500Y-64525000D03*
D48*
X120925000Y-65462500D03*
X121425000Y-65462500D03*
X121925000Y-65462500D03*
X122425000Y-65462500D03*
X122925000Y-65462500D03*
D49*
X121925000Y-63525000D03*
%TD*%
D26*
%TO.C,J17*%
X185235000Y-57055000D03*
D27*
X185235000Y-58325000D03*
X185235000Y-59595000D03*
%TD*%
D26*
%TO.C,J15*%
X180200000Y-57055000D03*
D27*
X180200000Y-58325000D03*
X180200000Y-59595000D03*
%TD*%
D18*
%TO.C,C26*%
X131945000Y-75895000D03*
X130045000Y-75895000D03*
%TD*%
D50*
%TO.C,R8*%
X125320000Y-52480000D03*
X125320000Y-54130000D03*
%TD*%
D22*
%TO.C,C35*%
X175510000Y-68730000D03*
X177410000Y-68730000D03*
%TD*%
D51*
%TO.C,J2*%
X157850000Y-78150000D03*
D52*
X160390000Y-78150000D03*
%TD*%
D53*
%TO.C,IC2*%
X119535000Y-77210000D03*
X121835000Y-77210000D03*
X124135000Y-77210000D03*
D54*
X121835000Y-70910000D03*
%TD*%
D36*
%TO.C,R12*%
X166920000Y-70850000D03*
X166920000Y-69025000D03*
%TD*%
D18*
%TO.C,C30*%
X158050000Y-73020000D03*
X156150000Y-73020000D03*
%TD*%
D26*
%TO.C,J8*%
X167425000Y-63135000D03*
D27*
X166155000Y-63135000D03*
%TD*%
D51*
%TO.C,J14*%
X188260000Y-61650000D03*
D52*
X188260000Y-64190000D03*
X188260000Y-66730000D03*
X188260000Y-69270000D03*
%TD*%
D26*
%TO.C,J7*%
X128415000Y-63590000D03*
D27*
X127145000Y-63590000D03*
%TD*%
D55*
%TO.C,S3*%
X174995000Y-51545000D03*
X174995000Y-60445000D03*
X172455000Y-51545000D03*
X172455000Y-60445000D03*
X169915000Y-51545000D03*
X169915000Y-60445000D03*
%TD*%
D56*
%TO.C,VR1*%
X146165000Y-51340000D03*
D57*
X145015000Y-55390000D03*
D56*
X143865000Y-51340000D03*
%TD*%
D58*
%TO.C,R4*%
X163390680Y-67315900D03*
X163390680Y-64390900D03*
%TD*%
D34*
%TO.C,R16*%
X173315000Y-63115000D03*
X174965000Y-63115000D03*
%TD*%
D21*
%TO.C,S1*%
X152830000Y-50755000D03*
X148330000Y-50755000D03*
X152830000Y-52905000D03*
X148330000Y-52905000D03*
%TD*%
D25*
%TO.C,C7*%
X144765000Y-71635000D03*
X143215000Y-71635000D03*
%TD*%
D59*
%TO.C,J1*%
X162541980Y-54540640D03*
X158142700Y-54540640D03*
D60*
X160342340Y-57040000D03*
X161139900Y-57040000D03*
X158744680Y-57040000D03*
X159544780Y-57040000D03*
D61*
X164840680Y-51540900D03*
X164840680Y-57040000D03*
X155844000Y-51540900D03*
X155844000Y-57040000D03*
D60*
X161940000Y-57040000D03*
%TD*%
D15*
%TO.C,R6*%
X120960000Y-60555000D03*
X121460000Y-60555000D03*
%TD*%
D16*
%TO.C,C19*%
X123050000Y-67350000D03*
X122550000Y-67350000D03*
%TD*%
D45*
%TO.C,Y1*%
X123103240Y-55793840D03*
X119405000Y-55793840D03*
X119405000Y-58090000D03*
X123103240Y-58090000D03*
%TD*%
D41*
%TO.C,R14*%
X167582500Y-67085000D03*
X165757500Y-67085000D03*
%TD*%
D22*
%TO.C,C4*%
X162684680Y-59430000D03*
X164584680Y-59430000D03*
%TD*%
D37*
%TO.C,C12*%
X165225000Y-73480000D03*
X162275000Y-73480000D03*
%TD*%
D51*
%TO.C,J9*%
X131940000Y-78695000D03*
D52*
X134480000Y-78695000D03*
%TD*%
D62*
%TO.C,R1*%
X141390000Y-70562500D03*
X141390000Y-73487500D03*
%TD*%
D18*
%TO.C,C20*%
X126865000Y-70895000D03*
X124965000Y-70895000D03*
%TD*%
D25*
%TO.C,C9*%
X159495000Y-59085000D03*
X157945000Y-59085000D03*
%TD*%
D51*
%TO.C,J10*%
X185630000Y-78690000D03*
D52*
X183090000Y-78690000D03*
%TD*%
D23*
%TO.C,C5*%
X159620000Y-67005000D03*
X161170000Y-67005000D03*
%TD*%
G36*
X110916125Y-50108504D02*
G01*
X110922224Y-50109740D01*
X111091784Y-50109471D01*
X111154917Y-50126630D01*
X111200531Y-50173530D01*
X111215927Y-50237116D01*
X111196743Y-50889382D01*
X111178989Y-50949763D01*
X111133878Y-50993649D01*
X111073032Y-51009737D01*
X110940830Y-51009988D01*
X110929196Y-51009463D01*
X110916740Y-51008313D01*
X110770001Y-51044999D01*
X110520002Y-51194998D01*
X110419997Y-51295002D01*
X110354998Y-51380001D01*
X110320005Y-51444988D01*
X110270000Y-51544998D01*
X110219999Y-51795000D01*
X110185483Y-60616485D01*
X110168709Y-60678280D01*
X110123344Y-60723468D01*
X110061484Y-60740000D01*
X109500452Y-60740000D01*
X109438419Y-60723368D01*
X109393027Y-60677934D01*
X109376452Y-60615887D01*
X109384985Y-51292703D01*
X109389972Y-51258005D01*
X109451909Y-51046253D01*
X109459595Y-51026453D01*
X109559862Y-50822056D01*
X109570816Y-50803858D01*
X109704501Y-50619563D01*
X109718399Y-50603501D01*
X109881574Y-50444724D01*
X109898008Y-50431270D01*
X110085881Y-50302672D01*
X110104371Y-50292221D01*
X110311430Y-50197573D01*
X110331433Y-50190429D01*
X110551620Y-50132503D01*
X110572548Y-50128879D01*
X110804673Y-50108925D01*
X110815336Y-50108469D01*
X110916125Y-50108504D01*
G37*
G36*
X110916125Y-50108504D02*
G01*
X110922224Y-50109740D01*
X111559064Y-50108728D01*
X111559304Y-50108728D01*
X116901043Y-50110589D01*
X116963025Y-50127216D01*
X117008394Y-50172601D01*
X117025000Y-50234589D01*
X117025000Y-50377428D01*
X117008584Y-50439086D01*
X116963682Y-50484419D01*
X116902183Y-50501422D01*
X110765266Y-50559961D01*
X110759505Y-50559882D01*
X110744942Y-50559344D01*
X110733453Y-50558384D01*
X110721844Y-50556867D01*
X110710500Y-50554844D01*
X110699091Y-50552258D01*
X110687997Y-50549196D01*
X110676894Y-50545569D01*
X110666103Y-50541479D01*
X110655352Y-50536821D01*
X110645011Y-50531758D01*
X110634764Y-50526137D01*
X110624930Y-50520132D01*
X110615243Y-50513580D01*
X110606005Y-50506685D01*
X110596965Y-50499259D01*
X110588413Y-50491541D01*
X110580107Y-50483314D01*
X110572303Y-50474831D01*
X110564789Y-50465859D01*
X110557809Y-50456690D01*
X110551163Y-50447063D01*
X110545065Y-50437287D01*
X110539347Y-50427095D01*
X110534187Y-50416807D01*
X110529433Y-50406116D01*
X110525239Y-50395361D01*
X110521499Y-50384272D01*
X110518331Y-50373210D01*
X110515636Y-50361826D01*
X110513504Y-50350492D01*
X110511880Y-50338919D01*
X110510811Y-50327445D01*
X110510134Y-50312881D01*
X110510000Y-50307123D01*
X110510000Y-50248054D01*
X110524885Y-50189149D01*
X110565965Y-50144385D01*
X110623379Y-50124510D01*
X110804672Y-50108925D01*
X110815336Y-50108469D01*
X110916125Y-50108504D01*
G37*
G36*
X109941445Y-78125114D02*
G01*
X109953346Y-78117258D01*
X109962899Y-78111550D01*
X109972853Y-78106193D01*
X109982879Y-78101364D01*
X109991329Y-78097752D01*
X110051059Y-78088260D01*
X110108174Y-78108150D01*
X110149087Y-78152691D01*
X110164066Y-78211286D01*
X110164773Y-78391735D01*
X110164774Y-78392221D01*
X110164774Y-78392623D01*
X110164767Y-78469572D01*
X110197437Y-78633791D01*
X110261515Y-78788478D01*
X110354537Y-78927690D01*
X110472935Y-79046087D01*
X110612154Y-79139112D01*
X110931052Y-79235853D01*
X110940500Y-79238492D01*
X111275388Y-79241513D01*
X111326343Y-79252972D01*
X111368061Y-79284396D01*
X111393139Y-79330210D01*
X111586302Y-79980700D01*
X111589512Y-80037733D01*
X111566814Y-80090155D01*
X111523025Y-80126838D01*
X111467437Y-80139998D01*
X111443644Y-80139999D01*
X111436358Y-80139785D01*
X111355008Y-80135000D01*
X111129710Y-80125204D01*
X111120324Y-80124438D01*
X111000978Y-80110117D01*
X110998996Y-80109863D01*
X110892725Y-80095371D01*
X110887299Y-80094508D01*
X110781888Y-80075343D01*
X110778087Y-80074590D01*
X110643279Y-80045702D01*
X110636772Y-80044123D01*
X110527745Y-80014523D01*
X110525427Y-80013870D01*
X110297800Y-79947299D01*
X110277999Y-79939612D01*
X110073590Y-79839347D01*
X110055391Y-79828394D01*
X109871099Y-79694719D01*
X109855037Y-79680822D01*
X109696249Y-79517644D01*
X109682795Y-79501208D01*
X109554192Y-79313335D01*
X109543739Y-79294845D01*
X109449083Y-79087774D01*
X109441940Y-79067771D01*
X109384015Y-78847596D01*
X109380389Y-78826656D01*
X109360459Y-78594558D01*
X109360004Y-78583836D01*
X109360349Y-78206826D01*
X109378979Y-78141570D01*
X109429169Y-78095893D01*
X109495887Y-78083477D01*
X109941445Y-78125114D01*
G37*
G36*
X110947859Y-50695132D02*
G01*
X110962314Y-50695799D01*
X110973700Y-50696852D01*
X110985197Y-50698453D01*
X110996447Y-50700553D01*
X111007747Y-50703207D01*
X111018739Y-50706329D01*
X111029747Y-50710012D01*
X111040422Y-50714141D01*
X111051045Y-50718824D01*
X111061286Y-50723915D01*
X111071431Y-50729556D01*
X111081157Y-50735567D01*
X111090737Y-50742117D01*
X111099864Y-50748995D01*
X111108811Y-50756408D01*
X111117278Y-50764109D01*
X111125494Y-50772306D01*
X111133208Y-50780747D01*
X111140634Y-50789666D01*
X111147539Y-50798785D01*
X111154112Y-50808351D01*
X111160150Y-50818070D01*
X111164172Y-50825265D01*
X111179929Y-50887000D01*
X111162949Y-50948411D01*
X111117715Y-50993283D01*
X111056170Y-51009769D01*
X110940830Y-51009988D01*
X110929196Y-51009463D01*
X110916740Y-51008313D01*
X110770001Y-51044999D01*
X110519999Y-51195000D01*
X110439491Y-51275507D01*
X110386544Y-51306861D01*
X110325044Y-51308902D01*
X110270135Y-51281126D01*
X110235340Y-51230374D01*
X110233368Y-51224976D01*
X110229807Y-51213547D01*
X110226756Y-51201779D01*
X110224311Y-51190033D01*
X110222409Y-51178009D01*
X110221111Y-51166101D01*
X110220379Y-51153965D01*
X110220236Y-51141985D01*
X110220679Y-51129825D01*
X110221694Y-51117884D01*
X110223308Y-51105829D01*
X110225472Y-51094032D01*
X110228242Y-51082194D01*
X110231531Y-51070678D01*
X110235435Y-51059148D01*
X110239826Y-51047988D01*
X110244818Y-51036906D01*
X110250254Y-51026244D01*
X110256299Y-51015681D01*
X110262757Y-51005566D01*
X110269791Y-50995642D01*
X110277184Y-50986213D01*
X110285138Y-50977020D01*
X110293404Y-50968350D01*
X110302222Y-50959954D01*
X110311288Y-50952121D01*
X110320855Y-50944631D01*
X110330645Y-50937703D01*
X110343447Y-50929543D01*
X110348576Y-50926446D01*
X110693627Y-50729274D01*
X110698343Y-50726713D01*
X110710418Y-50720490D01*
X110720152Y-50715995D01*
X110730227Y-50711861D01*
X110740316Y-50708222D01*
X110750711Y-50704974D01*
X110761086Y-50702219D01*
X110771710Y-50699885D01*
X110782262Y-50698041D01*
X110793068Y-50696630D01*
X110803769Y-50695702D01*
X110817328Y-50695116D01*
X110822682Y-50695000D01*
X110942143Y-50695000D01*
X110947859Y-50695132D01*
G37*
G36*
X116937939Y-65816627D02*
G01*
X116983330Y-65862049D01*
X116999914Y-65924085D01*
X116990199Y-80015732D01*
X116973559Y-80077694D01*
X116928179Y-80123046D01*
X116866207Y-80139647D01*
X111443648Y-80139999D01*
X111436359Y-80139785D01*
X111355008Y-80135000D01*
X111129710Y-80125204D01*
X111120324Y-80124438D01*
X111000978Y-80110117D01*
X110998996Y-80109863D01*
X110892725Y-80095371D01*
X110887299Y-80094508D01*
X110781888Y-80075343D01*
X110778087Y-80074590D01*
X110643279Y-80045702D01*
X110636772Y-80044123D01*
X110527698Y-80014510D01*
X110525383Y-80013857D01*
X110500068Y-80006454D01*
X110447429Y-79975358D01*
X110416047Y-79922888D01*
X110413551Y-79861801D01*
X110541086Y-79258298D01*
X110572580Y-79198454D01*
X110630791Y-79164034D01*
X110698404Y-79165276D01*
X110931052Y-79235853D01*
X110940500Y-79238492D01*
X116095000Y-79285000D01*
X116199042Y-65923035D01*
X116215974Y-65861443D01*
X116261317Y-65816452D01*
X116323038Y-65800000D01*
X116875914Y-65800000D01*
X116937939Y-65816627D01*
G37*
G36*
X110916125Y-50108504D02*
G01*
X110922224Y-50109740D01*
X111559064Y-50108728D01*
X111559304Y-50108728D01*
X116901043Y-50110589D01*
X116963025Y-50127216D01*
X117008394Y-50172601D01*
X117025000Y-50234589D01*
X117025000Y-63026000D01*
X117008387Y-63088000D01*
X116963000Y-63133387D01*
X116901000Y-63150000D01*
X116348745Y-63150000D01*
X116286819Y-63133430D01*
X116241443Y-63088147D01*
X116224745Y-63026255D01*
X116199999Y-51000000D01*
X110940831Y-51009988D01*
X110929197Y-51009463D01*
X110916741Y-51008313D01*
X110770000Y-51044999D01*
X110573891Y-51162664D01*
X110517450Y-51180117D01*
X110459340Y-51169472D01*
X110412750Y-51133147D01*
X110410251Y-51129980D01*
X110403388Y-51120377D01*
X110396892Y-51110305D01*
X110390960Y-51100065D01*
X110385443Y-51089399D01*
X110380524Y-51078664D01*
X110376056Y-51067545D01*
X110372175Y-51056376D01*
X110368777Y-51044850D01*
X110365978Y-51033361D01*
X110363699Y-51021593D01*
X110362007Y-51009897D01*
X110360857Y-50997949D01*
X110360287Y-50986141D01*
X110360280Y-50974143D01*
X110360837Y-50962332D01*
X110361973Y-50950386D01*
X110363650Y-50938694D01*
X110366476Y-50924008D01*
X110367733Y-50918225D01*
X110537787Y-50216751D01*
X110559850Y-50170570D01*
X110598685Y-50137233D01*
X110647676Y-50122421D01*
X110804673Y-50108925D01*
X110815336Y-50108469D01*
X110916125Y-50108504D01*
G37*
G36*
X110063119Y-68178768D02*
G01*
X110108484Y-68223956D01*
X110125258Y-68285751D01*
X110164773Y-78391736D01*
X110164774Y-78392221D01*
X110164774Y-78392623D01*
X110164767Y-78469572D01*
X110184128Y-78566892D01*
X110181890Y-78624622D01*
X110153738Y-78675073D01*
X110105783Y-78707292D01*
X110048434Y-78714285D01*
X109469981Y-78648191D01*
X109414068Y-78627352D01*
X109374362Y-78582810D01*
X109360058Y-78524879D01*
X109369431Y-68286122D01*
X109386082Y-68224170D01*
X109431464Y-68178830D01*
X109493431Y-68162236D01*
X110001259Y-68162236D01*
X110063119Y-68178768D01*
G37*
M02*
