%TF.GenerationSoftware,KiCad,Pcbnew,7.0.1*%
%TF.CreationDate,2023-06-28T01:29:01+03:00*%
%TF.ProjectId,board,626f6172-642e-46b6-9963-61645f706362,rev?*%
%TF.SameCoordinates,Original*%
%TF.FileFunction,Copper,L2,Inr*%
%TF.FilePolarity,Positive*%
%FSLAX46Y46*%
G04 Gerber Fmt 4.6, Leading zero omitted, Abs format (unit mm)*
G04 Created by KiCad (PCBNEW 7.0.1) date 2023-06-28 01:29:01*
%MOMM*%
%LPD*%
G01*
G04 APERTURE LIST*
%TA.AperFunction,ComponentPad*%
%ADD10R,1.000000X1.000000*%
%TD*%
%TA.AperFunction,ComponentPad*%
%ADD11O,1.000000X1.000000*%
%TD*%
%TA.AperFunction,ComponentPad*%
%ADD12C,1.308000*%
%TD*%
%TA.AperFunction,ComponentPad*%
%ADD13R,1.700000X1.700000*%
%TD*%
%TA.AperFunction,ComponentPad*%
%ADD14O,1.700000X1.700000*%
%TD*%
%TA.AperFunction,ViaPad*%
%ADD15C,0.800000*%
%TD*%
%TA.AperFunction,Conductor*%
%ADD16C,0.250000*%
%TD*%
%TA.AperFunction,Conductor*%
%ADD17C,0.000000*%
%TD*%
%TA.AperFunction,Conductor*%
%ADD18C,0.200000*%
%TD*%
G04 APERTURE END LIST*
D10*
%TO.N,D7*%
%TO.C,J6*%
X128405000Y-65955000D03*
D11*
X127135000Y-65955000D03*
%TD*%
D10*
%TO.N,D13*%
%TO.C,J4*%
X141245000Y-67430000D03*
D11*
X141245000Y-68700000D03*
%TD*%
D10*
%TO.N,D15*%
%TO.C,J16*%
X182705000Y-57055000D03*
D11*
X182705000Y-58325000D03*
X182705000Y-59595000D03*
%TD*%
D10*
%TO.N,GND*%
%TO.C,J13*%
X154900000Y-76900000D03*
%TD*%
%TO.N,VIN*%
%TO.C,J12*%
X163350000Y-76900000D03*
%TD*%
%TO.N,D12*%
%TO.C,J5*%
X125710000Y-55615000D03*
D11*
X125710000Y-56885000D03*
%TD*%
D10*
%TO.N,A3*%
%TO.C,J3*%
X140945000Y-54290000D03*
D11*
X140945000Y-55560000D03*
%TD*%
D12*
%TO.N,GND*%
%TO.C,U5*%
X185400000Y-51910000D03*
%TO.N,D14*%
X180320000Y-54450000D03*
%TO.N,D16*%
X182860000Y-51910000D03*
%TO.N,RESET*%
X185400000Y-54450000D03*
%TO.N,D15*%
X182860000Y-54450000D03*
%TO.N,5V*%
X180320000Y-51910000D03*
%TD*%
D10*
%TO.N,D16*%
%TO.C,J17*%
X185235000Y-57055000D03*
D11*
X185235000Y-58325000D03*
X185235000Y-59595000D03*
%TD*%
D10*
%TO.N,D14*%
%TO.C,J15*%
X180200000Y-57055000D03*
D11*
X180200000Y-58325000D03*
X180200000Y-59595000D03*
%TD*%
D13*
%TO.N,GND*%
%TO.C,J2*%
X157850000Y-78150000D03*
D14*
%TO.N,VIN*%
X160390000Y-78150000D03*
%TD*%
D10*
%TO.N,A0*%
%TO.C,J8*%
X167425000Y-63135000D03*
D11*
X166155000Y-63135000D03*
%TD*%
D13*
%TO.N,Net-(J14-Pin_1)*%
%TO.C,J14*%
X188260000Y-61650000D03*
D14*
%TO.N,D0*%
X188260000Y-64190000D03*
%TO.N,GND*%
X188260000Y-66730000D03*
%TO.N,5V*%
X188260000Y-69270000D03*
%TD*%
D10*
%TO.N,D8*%
%TO.C,J7*%
X128415000Y-63590000D03*
D11*
X127145000Y-63590000D03*
%TD*%
D13*
%TO.N,OUT1_L*%
%TO.C,J9*%
X131940000Y-78695000D03*
D14*
%TO.N,OUT2_L*%
X134480000Y-78695000D03*
%TD*%
D13*
%TO.N,OUT1_R*%
%TO.C,J10*%
X185630000Y-78690000D03*
D14*
%TO.N,OUT2_R*%
X183090000Y-78690000D03*
%TD*%
D15*
%TO.N,GND*%
X139465000Y-74330000D03*
X160715000Y-50690000D03*
X116600000Y-66400000D03*
X111600000Y-50550000D03*
X176435000Y-60405000D03*
X124865000Y-58200000D03*
X167185000Y-78425000D03*
X116550000Y-76950000D03*
X111395000Y-60385000D03*
X116550000Y-69250000D03*
X112600000Y-79650000D03*
X157920000Y-57055000D03*
X118960000Y-70370000D03*
X109770000Y-77245000D03*
X116550000Y-75250000D03*
X114100000Y-79650000D03*
X109820000Y-51995000D03*
X123400000Y-66450000D03*
X116600000Y-52600000D03*
X117875000Y-55795000D03*
X116500000Y-79600000D03*
X176900000Y-78450000D03*
X163845000Y-68720000D03*
X114200000Y-50600000D03*
X150131471Y-66740000D03*
X109770000Y-74745000D03*
X109770000Y-59745000D03*
X135405000Y-70784500D03*
X118575000Y-61135000D03*
X166805000Y-59835000D03*
X114545000Y-66615000D03*
X115300000Y-60650000D03*
X116550000Y-73900000D03*
X117654275Y-67850000D03*
X123685000Y-79615000D03*
X115450000Y-50600000D03*
X109770000Y-73495000D03*
X109820000Y-55145000D03*
X109770000Y-76095000D03*
X112950000Y-50600000D03*
X116550000Y-72350000D03*
X125977500Y-66712500D03*
X109770000Y-58395000D03*
X116600000Y-62100000D03*
X111350000Y-79650000D03*
X109720000Y-69695000D03*
X116600000Y-70850000D03*
X115400000Y-79650000D03*
X116550000Y-57750000D03*
X123960000Y-69830000D03*
X116550000Y-60450000D03*
X110120000Y-79245000D03*
X116600000Y-55750000D03*
X116550000Y-78300000D03*
X139110000Y-57109500D03*
X116600000Y-54800000D03*
X116550000Y-59050000D03*
X116600000Y-50650000D03*
X109820000Y-53495000D03*
X109770000Y-56845000D03*
X109770000Y-78295000D03*
X111595000Y-68700000D03*
X117860000Y-71855000D03*
X110120000Y-50845000D03*
X109720000Y-70895000D03*
X116600000Y-51600000D03*
X121200000Y-66850000D03*
X116600000Y-56700000D03*
X109720000Y-68695000D03*
X148641983Y-62953017D03*
X116600000Y-53700000D03*
X125050500Y-59895000D03*
X180395000Y-64950000D03*
X109770000Y-72295000D03*
X116600000Y-67650000D03*
%TO.N,5V*%
X137770000Y-73990000D03*
X175100000Y-76975000D03*
X130115000Y-78244500D03*
X141795000Y-71985000D03*
X161240000Y-54404792D03*
X178990000Y-63650000D03*
X176595000Y-62900000D03*
X143215000Y-53795000D03*
X157455000Y-50605000D03*
X158432533Y-61565004D03*
X129762548Y-54712452D03*
X176674500Y-57380000D03*
X157095000Y-66360000D03*
X138721955Y-54686052D03*
X161916180Y-64585000D03*
X130574861Y-74139447D03*
X124495000Y-74070000D03*
X150919857Y-54466896D03*
X158168363Y-67933363D03*
X173990000Y-64965000D03*
X177985000Y-53355000D03*
X156778808Y-58889182D03*
X184370000Y-64835000D03*
X154645000Y-70570000D03*
X152521296Y-61423704D03*
%TO.N,D7*%
X142070000Y-76399500D03*
X153869852Y-69680500D03*
%TO.N,D14*%
X157355000Y-61940000D03*
X178135250Y-54704500D03*
X124120000Y-61610000D03*
X154119762Y-73991734D03*
%TO.N,D15*%
X127185000Y-72725000D03*
X130160000Y-62285000D03*
X172455000Y-56800000D03*
X157222701Y-64037701D03*
%TO.N,D16*%
X125690000Y-62660000D03*
X126230000Y-73855000D03*
X157462278Y-62933729D03*
X139645000Y-79610000D03*
%TO.N,D11*%
X177110000Y-70785000D03*
X167690000Y-55095000D03*
X155404944Y-54439556D03*
X155782007Y-58962591D03*
X176565000Y-61665000D03*
%TO.N,D3*%
X142885000Y-54835500D03*
X151293068Y-62245379D03*
X131530000Y-55750000D03*
%TO.N,D2*%
X155050500Y-71483551D03*
X154935000Y-74570000D03*
X150469270Y-62969879D03*
X121945000Y-75570000D03*
%TO.N,D0*%
X147984559Y-58568985D03*
X185905000Y-53190000D03*
X149856655Y-54505500D03*
X170865000Y-53695500D03*
X147067500Y-55097500D03*
%TO.N,D1*%
X184030000Y-50790000D03*
X147422299Y-61457701D03*
X166891366Y-56221244D03*
X175040000Y-53695000D03*
%TO.N,A6*%
X157130000Y-53665000D03*
X145560000Y-63310000D03*
%TO.N,D12*%
X153664738Y-76554738D03*
X139205000Y-64780000D03*
%TO.N,A7*%
X151925000Y-64520000D03*
X145569196Y-64903794D03*
X153706129Y-63573371D03*
X164450000Y-54625000D03*
%TO.N,D8*%
X138482049Y-66177951D03*
X146553502Y-76695000D03*
X146720000Y-74035000D03*
X138480000Y-71380000D03*
X142047701Y-65622299D03*
X146205000Y-65675000D03*
%TO.N,D9*%
X139204500Y-70060000D03*
X131495000Y-71245000D03*
%TO.N,D10*%
X135555000Y-59960000D03*
X147405000Y-65639500D03*
%TO.N,D5*%
X145900000Y-68459500D03*
X164840000Y-65939500D03*
%TO.N,D13*%
X165495000Y-75965000D03*
X172135000Y-76855000D03*
X138565000Y-62240000D03*
X142650000Y-68095000D03*
%TO.N,A0*%
X147477240Y-68930000D03*
X160810000Y-68480000D03*
X122725498Y-53850500D03*
%TO.N,A1*%
X128746127Y-54040500D03*
X148410973Y-67719004D03*
%TO.N,A2*%
X135020000Y-53795000D03*
X146580000Y-63545000D03*
X149406971Y-67802627D03*
%TO.N,A3*%
X150405744Y-67840744D03*
X153020000Y-65375000D03*
X159405000Y-54140000D03*
X153832451Y-62422451D03*
X139720000Y-54740000D03*
%TO.N,A4*%
X149748850Y-61373585D03*
X145174007Y-53591489D03*
X151455607Y-67815480D03*
%TO.N,A5*%
X151918351Y-54422051D03*
X152556620Y-67739066D03*
X152049272Y-65613103D03*
X150748160Y-61393136D03*
%TO.N,VIN*%
X179600000Y-61345000D03*
X170440000Y-64210000D03*
X162425000Y-75250000D03*
X152709220Y-74175000D03*
%TO.N,OUT1_L*%
X135245000Y-74265000D03*
X131930000Y-74630000D03*
%TO.N,OUT2_L*%
X129005000Y-67500000D03*
X135584403Y-76234500D03*
X136215000Y-65010000D03*
X128990000Y-74000000D03*
%TO.N,OUT1_R*%
X179970000Y-77846301D03*
X182280000Y-65234198D03*
%TO.N,+3V3*%
X128449500Y-61078121D03*
X121590000Y-68995000D03*
X127934800Y-69365200D03*
X117835000Y-70150000D03*
%TO.N,RESET*%
X154100000Y-54429500D03*
X153114500Y-58581114D03*
%TO.N,Net-(IC1-EN)*%
X161100500Y-73730000D03*
X163530000Y-73605000D03*
%TD*%
D16*
%TO.N,GND*%
X110120000Y-50845000D02*
X110365000Y-50600000D01*
X116600000Y-50650000D02*
X116600000Y-52600000D01*
D17*
X116600000Y-62100000D02*
X116690000Y-62010000D01*
D18*
X109770000Y-78895000D02*
X110120000Y-79245000D01*
D17*
X109892181Y-52000000D02*
X109892181Y-59700000D01*
D18*
X109720000Y-68695000D02*
X109720000Y-69695000D01*
D17*
X110192181Y-51700000D02*
X109892181Y-52000000D01*
D18*
X109770000Y-77245000D02*
X109770000Y-78295000D01*
X110525000Y-79650000D02*
X111350000Y-79650000D01*
X114100000Y-79650000D02*
X115400000Y-79650000D01*
D16*
X116600000Y-55750000D02*
X116600000Y-60400000D01*
X116600000Y-52600000D02*
X116600000Y-55750000D01*
D18*
X116450000Y-79650000D02*
X116500000Y-79600000D01*
D16*
X109770000Y-59745000D02*
X109770000Y-51195000D01*
D18*
X109770000Y-73495000D02*
X109770000Y-74745000D01*
D16*
X116550000Y-62050000D02*
X116600000Y-62100000D01*
X110365000Y-50600000D02*
X115450000Y-50600000D01*
D18*
X109720000Y-70895000D02*
X109720000Y-69695000D01*
D16*
X116550000Y-60450000D02*
X116550000Y-62050000D01*
X116550000Y-50600000D02*
X116600000Y-50650000D01*
D18*
X109770000Y-76095000D02*
X109770000Y-77245000D01*
D17*
X116600000Y-69200000D02*
X116550000Y-69250000D01*
D18*
X116500000Y-78350000D02*
X116550000Y-78300000D01*
D17*
X116600000Y-72300000D02*
X116600000Y-70850000D01*
D18*
X109770000Y-76095000D02*
X109770000Y-74745000D01*
D17*
X110192181Y-50850000D02*
X110192181Y-51700000D01*
X116600000Y-67650000D02*
X116600000Y-69200000D01*
X116550000Y-73900000D02*
X116550000Y-75250000D01*
D16*
X116600000Y-60400000D02*
X116550000Y-60450000D01*
D18*
X109720000Y-70895000D02*
X109720000Y-72245000D01*
D17*
X116550000Y-66450000D02*
X116600000Y-66400000D01*
X116550000Y-75250000D02*
X116550000Y-76950000D01*
D16*
X109770000Y-51195000D02*
X110120000Y-50845000D01*
D18*
X111350000Y-79650000D02*
X112600000Y-79650000D01*
D17*
X116550000Y-78300000D02*
X116550000Y-66450000D01*
D18*
X115400000Y-79650000D02*
X116450000Y-79650000D01*
D17*
X116600000Y-67650000D02*
X116600000Y-66400000D01*
D18*
X109753048Y-72239666D02*
X109803048Y-72289666D01*
D16*
X115450000Y-50600000D02*
X116550000Y-50600000D01*
D17*
X110392181Y-50650000D02*
X110192181Y-50850000D01*
D18*
X109770000Y-72295000D02*
X109770000Y-73495000D01*
D17*
X116550000Y-76950000D02*
X116550000Y-78300000D01*
D18*
X112600000Y-79650000D02*
X114100000Y-79650000D01*
X109770000Y-78295000D02*
X109770000Y-78895000D01*
X116500000Y-79600000D02*
X116500000Y-78350000D01*
X110120000Y-79245000D02*
X110525000Y-79650000D01*
D17*
X116550000Y-72350000D02*
X116600000Y-72300000D01*
%TD*%
%TA.AperFunction,Conductor*%
%TO.N,GND*%
G36*
X156472501Y-50189597D02*
G01*
X156528780Y-50203126D01*
X156572789Y-50240727D01*
X156594934Y-50294208D01*
X156590390Y-50351914D01*
X156569326Y-50416740D01*
X156549540Y-50604999D01*
X156569326Y-50793257D01*
X156627820Y-50973284D01*
X156722466Y-51137216D01*
X156849129Y-51277889D01*
X157002269Y-51389151D01*
X157175197Y-51466144D01*
X157360352Y-51505500D01*
X157360354Y-51505500D01*
X157549646Y-51505500D01*
X157549648Y-51505500D01*
X157673083Y-51479262D01*
X157734803Y-51466144D01*
X157907730Y-51389151D01*
X157976902Y-51338895D01*
X158060870Y-51277889D01*
X158063561Y-51274901D01*
X158187533Y-51137216D01*
X158282179Y-50973284D01*
X158340674Y-50793256D01*
X158360460Y-50605000D01*
X158340674Y-50416744D01*
X158319813Y-50352542D01*
X158315273Y-50294821D01*
X158337438Y-50241327D01*
X158381477Y-50203730D01*
X158437780Y-50190229D01*
X183117161Y-50198159D01*
X183179143Y-50214786D01*
X183224514Y-50260175D01*
X183241117Y-50322167D01*
X183224505Y-50384157D01*
X183202820Y-50421716D01*
X183144326Y-50601742D01*
X183139103Y-50651437D01*
X183114119Y-50714011D01*
X183060102Y-50754283D01*
X182993000Y-50760363D01*
X182966982Y-50755500D01*
X182966980Y-50755500D01*
X182753020Y-50755500D01*
X182568461Y-50790000D01*
X182542703Y-50794815D01*
X182343189Y-50872107D01*
X182161275Y-50984743D01*
X182003159Y-51128884D01*
X181874216Y-51299632D01*
X181778848Y-51491159D01*
X181720295Y-51696949D01*
X181713471Y-51770603D01*
X181693367Y-51827655D01*
X181648664Y-51868408D01*
X181590000Y-51883162D01*
X181531336Y-51868408D01*
X181486633Y-51827655D01*
X181466529Y-51770603D01*
X181459704Y-51696949D01*
X181401151Y-51491159D01*
X181305783Y-51299632D01*
X181176840Y-51128884D01*
X181018724Y-50984743D01*
X180836810Y-50872107D01*
X180763607Y-50843748D01*
X180637297Y-50794815D01*
X180426980Y-50755500D01*
X180213020Y-50755500D01*
X180028461Y-50790000D01*
X180002703Y-50794815D01*
X179803189Y-50872107D01*
X179621275Y-50984743D01*
X179463159Y-51128884D01*
X179334216Y-51299632D01*
X179238848Y-51491159D01*
X179180295Y-51696949D01*
X179160554Y-51909999D01*
X179180295Y-52123050D01*
X179238848Y-52328840D01*
X179334216Y-52520367D01*
X179463159Y-52691115D01*
X179621275Y-52835256D01*
X179621277Y-52835257D01*
X179621278Y-52835258D01*
X179803190Y-52947893D01*
X180002703Y-53025185D01*
X180178845Y-53058111D01*
X180239597Y-53088363D01*
X180275325Y-53146066D01*
X180275325Y-53213934D01*
X180239597Y-53271637D01*
X180178845Y-53301888D01*
X180035159Y-53328748D01*
X180002703Y-53334815D01*
X179803189Y-53412107D01*
X179621275Y-53524743D01*
X179463159Y-53668884D01*
X179334216Y-53839632D01*
X179238848Y-54031159D01*
X179180295Y-54236949D01*
X179178203Y-54259532D01*
X179157246Y-54317852D01*
X179110685Y-54358747D01*
X179050149Y-54372004D01*
X178990758Y-54354312D01*
X178947345Y-54310089D01*
X178867783Y-54172283D01*
X178736235Y-54026185D01*
X178710454Y-53981531D01*
X178705064Y-53930251D01*
X178720996Y-53881217D01*
X178812179Y-53723284D01*
X178870674Y-53543256D01*
X178890460Y-53355000D01*
X178870674Y-53166744D01*
X178838342Y-53067236D01*
X178812179Y-52986715D01*
X178717533Y-52822783D01*
X178590870Y-52682110D01*
X178437730Y-52570848D01*
X178264802Y-52493855D01*
X178079648Y-52454500D01*
X178079646Y-52454500D01*
X177890354Y-52454500D01*
X177890352Y-52454500D01*
X177705197Y-52493855D01*
X177532269Y-52570848D01*
X177379129Y-52682110D01*
X177252466Y-52822783D01*
X177157820Y-52986715D01*
X177099326Y-53166742D01*
X177079540Y-53355000D01*
X177099326Y-53543257D01*
X177157820Y-53723284D01*
X177252466Y-53887216D01*
X177384014Y-54033314D01*
X177409795Y-54077968D01*
X177415185Y-54129247D01*
X177399251Y-54178286D01*
X177308070Y-54336215D01*
X177249576Y-54516242D01*
X177229790Y-54704500D01*
X177249576Y-54892757D01*
X177308070Y-55072784D01*
X177402716Y-55236716D01*
X177529379Y-55377389D01*
X177682519Y-55488651D01*
X177855447Y-55565644D01*
X178040602Y-55605000D01*
X178040604Y-55605000D01*
X178229896Y-55605000D01*
X178229898Y-55605000D01*
X178377641Y-55573596D01*
X178415053Y-55565644D01*
X178587980Y-55488651D01*
X178735164Y-55381716D01*
X178741120Y-55377389D01*
X178867783Y-55236716D01*
X178881098Y-55213653D01*
X178962429Y-55072784D01*
X179017947Y-54901916D01*
X179048358Y-54852393D01*
X179097995Y-54822164D01*
X179155953Y-54817872D01*
X179209502Y-54840459D01*
X179246877Y-54884965D01*
X179334216Y-55060367D01*
X179463159Y-55231115D01*
X179621275Y-55375256D01*
X179621277Y-55375257D01*
X179621278Y-55375258D01*
X179803190Y-55487893D01*
X180002703Y-55565185D01*
X180213020Y-55604500D01*
X180426978Y-55604500D01*
X180426980Y-55604500D01*
X180637297Y-55565185D01*
X180836810Y-55487893D01*
X181018722Y-55375258D01*
X181154974Y-55251048D01*
X181176840Y-55231115D01*
X181180191Y-55226678D01*
X181305781Y-55060370D01*
X181305781Y-55060368D01*
X181305783Y-55060367D01*
X181401151Y-54868840D01*
X181459704Y-54663050D01*
X181466529Y-54589396D01*
X181486633Y-54532344D01*
X181531336Y-54491592D01*
X181590000Y-54476837D01*
X181648664Y-54491592D01*
X181693367Y-54532344D01*
X181713471Y-54589396D01*
X181720295Y-54663050D01*
X181778848Y-54868840D01*
X181874216Y-55060367D01*
X182003159Y-55231115D01*
X182161275Y-55375256D01*
X182161277Y-55375257D01*
X182161278Y-55375258D01*
X182343190Y-55487893D01*
X182542703Y-55565185D01*
X182753020Y-55604500D01*
X182966978Y-55604500D01*
X182966980Y-55604500D01*
X183177297Y-55565185D01*
X183376810Y-55487893D01*
X183558722Y-55375258D01*
X183694974Y-55251048D01*
X183716840Y-55231115D01*
X183720191Y-55226678D01*
X183845781Y-55060370D01*
X183845781Y-55060368D01*
X183845783Y-55060367D01*
X183941151Y-54868840D01*
X183999704Y-54663050D01*
X184006529Y-54589396D01*
X184026633Y-54532344D01*
X184071336Y-54491592D01*
X184130000Y-54476837D01*
X184188664Y-54491592D01*
X184233367Y-54532344D01*
X184253471Y-54589396D01*
X184260295Y-54663050D01*
X184318848Y-54868840D01*
X184414216Y-55060367D01*
X184543159Y-55231115D01*
X184701275Y-55375256D01*
X184701277Y-55375257D01*
X184701278Y-55375258D01*
X184883190Y-55487893D01*
X185082703Y-55565185D01*
X185293020Y-55604500D01*
X185506978Y-55604500D01*
X185506980Y-55604500D01*
X185717297Y-55565185D01*
X185916810Y-55487893D01*
X186098722Y-55375258D01*
X186234974Y-55251048D01*
X186256840Y-55231115D01*
X186260191Y-55226678D01*
X186385781Y-55060370D01*
X186385781Y-55060368D01*
X186385783Y-55060367D01*
X186481151Y-54868840D01*
X186539704Y-54663050D01*
X186543901Y-54617756D01*
X186559446Y-54450000D01*
X186544333Y-54286915D01*
X186539704Y-54236949D01*
X186481152Y-54031163D01*
X186481150Y-54031159D01*
X186474283Y-54017368D01*
X186461285Y-53961330D01*
X186474975Y-53905455D01*
X186502714Y-53873082D01*
X186502150Y-53872574D01*
X186637533Y-53722216D01*
X186732179Y-53558284D01*
X186735628Y-53547668D01*
X186790674Y-53378256D01*
X186810460Y-53190000D01*
X186790674Y-53001744D01*
X186736579Y-52835258D01*
X186732179Y-52821715D01*
X186637533Y-52657783D01*
X186510871Y-52517112D01*
X186504676Y-52512611D01*
X186467249Y-52468927D01*
X186453562Y-52413055D01*
X186466561Y-52357018D01*
X186480684Y-52328655D01*
X186498795Y-52265000D01*
X187169357Y-52265000D01*
X187189885Y-52486537D01*
X187250769Y-52700526D01*
X187349941Y-52899688D01*
X187484019Y-53077237D01*
X187648437Y-53227124D01*
X187837595Y-53344245D01*
X187837597Y-53344245D01*
X187837599Y-53344247D01*
X188045060Y-53424618D01*
X188263757Y-53465500D01*
X188486241Y-53465500D01*
X188486243Y-53465500D01*
X188704940Y-53424618D01*
X188912401Y-53344247D01*
X189101562Y-53227124D01*
X189171592Y-53163283D01*
X189265980Y-53077237D01*
X189273532Y-53067237D01*
X189400058Y-52899689D01*
X189499229Y-52700528D01*
X189499861Y-52698309D01*
X189536126Y-52570848D01*
X189560115Y-52486536D01*
X189574178Y-52334767D01*
X189595353Y-52276127D01*
X189607846Y-52265257D01*
X189595396Y-52254421D01*
X189574230Y-52195793D01*
X189560115Y-52043464D01*
X189560115Y-52043462D01*
X189499230Y-51829473D01*
X189400058Y-51630311D01*
X189265980Y-51452762D01*
X189101562Y-51302875D01*
X188912404Y-51185754D01*
X188841495Y-51158284D01*
X188704940Y-51105382D01*
X188486243Y-51064500D01*
X188263757Y-51064500D01*
X188098555Y-51095382D01*
X188045060Y-51105382D01*
X187837595Y-51185754D01*
X187648437Y-51302875D01*
X187484019Y-51452762D01*
X187349941Y-51630311D01*
X187250769Y-51829473D01*
X187189885Y-52043462D01*
X187169357Y-52265000D01*
X186498795Y-52265000D01*
X186539210Y-52122957D01*
X186558943Y-51910000D01*
X186539210Y-51697042D01*
X186480684Y-51491343D01*
X186385353Y-51299893D01*
X186376019Y-51287533D01*
X185400000Y-52263553D01*
X184780085Y-52883465D01*
X184883415Y-52947444D01*
X184931050Y-52965898D01*
X184975631Y-52995570D01*
X185003542Y-53041274D01*
X185009578Y-53094485D01*
X184999540Y-53190000D01*
X185007504Y-53265781D01*
X185001469Y-53318991D01*
X184973558Y-53364695D01*
X184928979Y-53394367D01*
X184883190Y-53412106D01*
X184701275Y-53524743D01*
X184543159Y-53668884D01*
X184414216Y-53839632D01*
X184318848Y-54031159D01*
X184260295Y-54236949D01*
X184253471Y-54310603D01*
X184233367Y-54367655D01*
X184188664Y-54408408D01*
X184130000Y-54423162D01*
X184071336Y-54408408D01*
X184026633Y-54367655D01*
X184006529Y-54310603D01*
X183999704Y-54236949D01*
X183941151Y-54031159D01*
X183845783Y-53839632D01*
X183716840Y-53668884D01*
X183558724Y-53524743D01*
X183376810Y-53412107D01*
X183289433Y-53378257D01*
X183177297Y-53334815D01*
X183001153Y-53301888D01*
X182940402Y-53271637D01*
X182904674Y-53213934D01*
X182904674Y-53146066D01*
X182940402Y-53088363D01*
X183001153Y-53058111D01*
X183177297Y-53025185D01*
X183376810Y-52947893D01*
X183558722Y-52835258D01*
X183664134Y-52739161D01*
X183716840Y-52691115D01*
X183716935Y-52690989D01*
X183845781Y-52520370D01*
X183845781Y-52520368D01*
X183845783Y-52520367D01*
X183941151Y-52328840D01*
X183962160Y-52255000D01*
X183999704Y-52123048D01*
X184006780Y-52046686D01*
X184026883Y-51989637D01*
X184071585Y-51948884D01*
X184130249Y-51934129D01*
X184188913Y-51948883D01*
X184233616Y-51989635D01*
X184253721Y-52046687D01*
X184260788Y-52122957D01*
X184319315Y-52328656D01*
X184414646Y-52520105D01*
X184423980Y-52532466D01*
X186019913Y-50936533D01*
X186019912Y-50936532D01*
X185916589Y-50872557D01*
X185717159Y-50795298D01*
X185506932Y-50756000D01*
X185293068Y-50756000D01*
X185071546Y-50797410D01*
X185070999Y-50794484D01*
X185037059Y-50799267D01*
X184983500Y-50781584D01*
X184943314Y-50742007D01*
X184924816Y-50688727D01*
X184915674Y-50601744D01*
X184857179Y-50421716D01*
X184857179Y-50421715D01*
X184835834Y-50384745D01*
X184819221Y-50322735D01*
X184835844Y-50260728D01*
X184881247Y-50215343D01*
X184943257Y-50198745D01*
X188790439Y-50199982D01*
X188820945Y-50203803D01*
X188824541Y-50204717D01*
X188839360Y-50209492D01*
X188882040Y-50226273D01*
X188903226Y-50237053D01*
X189163518Y-50402693D01*
X189184626Y-50419626D01*
X189539303Y-50774303D01*
X189564275Y-50810164D01*
X189775225Y-51268750D01*
X189786362Y-51313349D01*
X189821574Y-51916990D01*
X189821784Y-51924251D01*
X189821700Y-52184390D01*
X189806013Y-52244718D01*
X189786343Y-52265308D01*
X189805994Y-52285899D01*
X189821649Y-52346249D01*
X189819004Y-60581476D01*
X189800249Y-60647006D01*
X189749694Y-60692724D01*
X189682613Y-60704815D01*
X189619277Y-60679627D01*
X189578823Y-60624770D01*
X189553796Y-60557669D01*
X189467546Y-60442454D01*
X189352331Y-60356204D01*
X189217483Y-60305909D01*
X189157873Y-60299500D01*
X189157869Y-60299500D01*
X187362130Y-60299500D01*
X187302515Y-60305909D01*
X187167669Y-60356204D01*
X187052454Y-60442454D01*
X186966204Y-60557668D01*
X186915909Y-60692516D01*
X186914690Y-60703859D01*
X186912928Y-60720248D01*
X186909500Y-60752130D01*
X186909500Y-62547869D01*
X186915909Y-62607484D01*
X186941056Y-62674906D01*
X186966204Y-62742331D01*
X187052454Y-62857546D01*
X187167669Y-62943796D01*
X187279907Y-62985658D01*
X187299082Y-62992810D01*
X187349462Y-63027789D01*
X187376915Y-63082634D01*
X187374726Y-63143926D01*
X187343431Y-63196673D01*
X187221503Y-63318601D01*
X187085965Y-63512170D01*
X186986097Y-63726336D01*
X186924936Y-63954592D01*
X186904340Y-64189999D01*
X186924936Y-64425407D01*
X186967455Y-64584090D01*
X186986097Y-64653663D01*
X187085965Y-64867830D01*
X187221505Y-65061401D01*
X187388599Y-65228495D01*
X187574597Y-65358732D01*
X187613460Y-65403048D01*
X187627471Y-65460305D01*
X187613461Y-65517561D01*
X187574595Y-65561880D01*
X187388919Y-65691892D01*
X187221890Y-65858921D01*
X187086400Y-66052421D01*
X186986569Y-66266507D01*
X186929364Y-66479999D01*
X186929364Y-66480000D01*
X188386000Y-66480000D01*
X188448000Y-66496613D01*
X188493387Y-66542000D01*
X188510000Y-66604000D01*
X188510000Y-66856000D01*
X188493387Y-66918000D01*
X188448000Y-66963387D01*
X188386000Y-66980000D01*
X186929364Y-66980000D01*
X186986569Y-67193492D01*
X187086399Y-67407576D01*
X187221893Y-67601081D01*
X187388918Y-67768106D01*
X187574595Y-67898119D01*
X187613460Y-67942437D01*
X187627471Y-67999694D01*
X187613460Y-68056951D01*
X187574595Y-68101269D01*
X187437556Y-68197225D01*
X187394355Y-68227475D01*
X187388595Y-68231508D01*
X187221505Y-68398598D01*
X187085965Y-68592170D01*
X186986097Y-68806336D01*
X186924936Y-69034592D01*
X186904340Y-69269999D01*
X186924936Y-69505407D01*
X186956283Y-69622394D01*
X186986097Y-69733663D01*
X187085965Y-69947830D01*
X187221505Y-70141401D01*
X187388599Y-70308495D01*
X187582170Y-70444035D01*
X187796337Y-70543903D01*
X188024592Y-70605063D01*
X188260000Y-70625659D01*
X188495408Y-70605063D01*
X188723663Y-70543903D01*
X188937830Y-70444035D01*
X189131401Y-70308495D01*
X189298495Y-70141401D01*
X189434035Y-69947830D01*
X189533903Y-69733663D01*
X189572326Y-69590261D01*
X189600684Y-69538576D01*
X189649704Y-69505828D01*
X189708307Y-69499417D01*
X189763247Y-69520794D01*
X189802107Y-69565127D01*
X189816102Y-69622394D01*
X189813460Y-77849420D01*
X189797773Y-77909748D01*
X189754715Y-77954821D01*
X189720487Y-77965412D01*
X189754686Y-77976010D01*
X189797731Y-78021113D01*
X189813386Y-78081463D01*
X189813169Y-78756418D01*
X189812305Y-78770994D01*
X189806290Y-78821669D01*
X189806162Y-78822709D01*
X189786105Y-78980294D01*
X189782586Y-78997781D01*
X189758937Y-79083041D01*
X189758056Y-79086066D01*
X189722529Y-79202571D01*
X189716990Y-79217309D01*
X189677799Y-79304358D01*
X189675543Y-79309098D01*
X189623991Y-79411759D01*
X189617205Y-79423599D01*
X189563849Y-79505846D01*
X189559669Y-79511889D01*
X189492984Y-79602442D01*
X189485709Y-79611414D01*
X189419818Y-79685349D01*
X189413268Y-79692158D01*
X189332765Y-79769697D01*
X189325714Y-79775988D01*
X189249357Y-79839063D01*
X189240122Y-79845994D01*
X189147138Y-79909236D01*
X189140938Y-79913190D01*
X189056738Y-79963429D01*
X189044654Y-79969764D01*
X188940131Y-80017432D01*
X188935309Y-80019509D01*
X188846869Y-80055401D01*
X188831935Y-80060384D01*
X188725785Y-80088450D01*
X188695812Y-80092557D01*
X188520864Y-80094988D01*
X188519141Y-80095000D01*
X188340000Y-80095000D01*
X186937514Y-80094908D01*
X186872350Y-80076400D01*
X186826636Y-80026408D01*
X186814016Y-79959853D01*
X186838256Y-79896597D01*
X186838384Y-79896426D01*
X186923796Y-79782331D01*
X186974091Y-79647483D01*
X186980500Y-79587873D01*
X186980499Y-78357119D01*
X186994363Y-78300147D01*
X187032855Y-78255913D01*
X187087368Y-78234310D01*
X187145711Y-78240170D01*
X187194839Y-78272181D01*
X187223765Y-78323187D01*
X187245769Y-78400526D01*
X187344941Y-78599688D01*
X187479019Y-78777237D01*
X187643437Y-78927124D01*
X187832595Y-79044245D01*
X187832597Y-79044245D01*
X187832599Y-79044247D01*
X188040060Y-79124618D01*
X188258757Y-79165500D01*
X188481241Y-79165500D01*
X188481243Y-79165500D01*
X188699940Y-79124618D01*
X188907401Y-79044247D01*
X189096562Y-78927124D01*
X189260981Y-78777236D01*
X189395058Y-78599689D01*
X189494229Y-78400528D01*
X189494380Y-78400000D01*
X189530747Y-78272181D01*
X189555115Y-78186536D01*
X189565915Y-78069981D01*
X189587090Y-78011341D01*
X189634126Y-77970417D01*
X189657954Y-77965393D01*
X189634176Y-77960374D01*
X189587156Y-77919451D01*
X189565989Y-77860820D01*
X189564370Y-77843352D01*
X189556123Y-77754340D01*
X189555115Y-77743462D01*
X189494230Y-77529473D01*
X189395058Y-77330311D01*
X189260980Y-77152762D01*
X189096562Y-77002875D01*
X188907404Y-76885754D01*
X188832270Y-76856647D01*
X188699940Y-76805382D01*
X188481243Y-76764500D01*
X188258757Y-76764500D01*
X188093555Y-76795382D01*
X188040060Y-76805382D01*
X187832595Y-76885754D01*
X187643437Y-77002875D01*
X187479019Y-77152762D01*
X187344941Y-77330311D01*
X187245769Y-77529473D01*
X187198837Y-77694425D01*
X187167839Y-77747581D01*
X187115105Y-77779291D01*
X187053620Y-77781745D01*
X186998526Y-77754340D01*
X186963389Y-77703824D01*
X186923796Y-77597669D01*
X186837546Y-77482454D01*
X186722331Y-77396204D01*
X186587483Y-77345909D01*
X186527873Y-77339500D01*
X186527869Y-77339500D01*
X184732130Y-77339500D01*
X184672515Y-77345909D01*
X184537669Y-77396204D01*
X184422454Y-77482454D01*
X184336204Y-77597669D01*
X184287189Y-77729083D01*
X184252209Y-77779462D01*
X184197365Y-77806915D01*
X184136072Y-77804726D01*
X184083326Y-77773430D01*
X183961404Y-77651508D01*
X183961401Y-77651505D01*
X183767830Y-77515965D01*
X183553663Y-77416097D01*
X183492501Y-77399709D01*
X183325407Y-77354936D01*
X183090000Y-77334340D01*
X182854592Y-77354936D01*
X182626336Y-77416097D01*
X182412170Y-77515965D01*
X182218598Y-77651505D01*
X182051505Y-77818598D01*
X181915965Y-78012170D01*
X181816097Y-78226336D01*
X181754936Y-78454592D01*
X181734340Y-78689999D01*
X181754936Y-78925407D01*
X181797174Y-79083041D01*
X181816097Y-79153663D01*
X181915965Y-79367830D01*
X182051505Y-79561401D01*
X182218599Y-79728495D01*
X182412170Y-79864035D01*
X182412172Y-79864036D01*
X182419310Y-79869034D01*
X182459637Y-79916253D01*
X182472016Y-79977102D01*
X182453341Y-80036323D01*
X182408297Y-80079065D01*
X182348178Y-80094609D01*
X140605930Y-80091886D01*
X140549638Y-80078368D01*
X140505617Y-80040768D01*
X140483464Y-79987281D01*
X140488006Y-79929571D01*
X140530674Y-79798256D01*
X140550460Y-79610000D01*
X140530674Y-79421744D01*
X140488934Y-79293283D01*
X140472179Y-79241715D01*
X140377533Y-79077783D01*
X140250870Y-78937110D01*
X140097730Y-78825848D01*
X139924802Y-78748855D01*
X139739648Y-78709500D01*
X139739646Y-78709500D01*
X139550354Y-78709500D01*
X139550352Y-78709500D01*
X139365197Y-78748855D01*
X139192269Y-78825848D01*
X139039129Y-78937110D01*
X138912466Y-79077783D01*
X138817820Y-79241715D01*
X138759326Y-79421742D01*
X138739540Y-79609999D01*
X138759326Y-79798257D01*
X138801951Y-79929442D01*
X138806493Y-79987160D01*
X138784336Y-80040649D01*
X138740309Y-80078248D01*
X138684012Y-80091760D01*
X135233336Y-80091534D01*
X135173222Y-80075984D01*
X135128183Y-80033240D01*
X135109514Y-79974020D01*
X135121894Y-79913174D01*
X135162218Y-79865962D01*
X135351401Y-79733495D01*
X135518495Y-79566401D01*
X135654035Y-79372830D01*
X135753903Y-79158663D01*
X135815063Y-78930408D01*
X135835659Y-78695000D01*
X135835221Y-78689999D01*
X135815063Y-78459592D01*
X135799237Y-78400528D01*
X135799096Y-78400000D01*
X156500000Y-78400000D01*
X156500000Y-79047824D01*
X156506402Y-79107375D01*
X156556647Y-79242089D01*
X156642811Y-79357188D01*
X156757910Y-79443352D01*
X156892624Y-79493597D01*
X156952176Y-79500000D01*
X157600000Y-79500000D01*
X158100000Y-79500000D01*
X158747824Y-79500000D01*
X158807375Y-79493597D01*
X158942089Y-79443352D01*
X159057188Y-79357188D01*
X159143352Y-79242089D01*
X159192422Y-79110528D01*
X159227401Y-79060149D01*
X159282246Y-79032696D01*
X159343539Y-79034885D01*
X159396285Y-79066181D01*
X159518599Y-79188495D01*
X159712170Y-79324035D01*
X159926337Y-79423903D01*
X160154592Y-79485063D01*
X160390000Y-79505659D01*
X160625408Y-79485063D01*
X160853663Y-79423903D01*
X161067830Y-79324035D01*
X161261401Y-79188495D01*
X161428495Y-79021401D01*
X161564035Y-78827830D01*
X161663903Y-78613663D01*
X161725063Y-78385408D01*
X161745659Y-78150000D01*
X161729068Y-77960374D01*
X161725063Y-77914592D01*
X161707600Y-77849420D01*
X161663903Y-77686337D01*
X161564035Y-77472171D01*
X161428495Y-77278599D01*
X161261401Y-77111505D01*
X161067830Y-76975965D01*
X160853663Y-76876097D01*
X160774927Y-76855000D01*
X160625407Y-76814936D01*
X160390000Y-76794340D01*
X160154592Y-76814936D01*
X159926336Y-76876097D01*
X159712170Y-76975965D01*
X159518601Y-77111503D01*
X159396285Y-77233819D01*
X159343539Y-77265114D01*
X159282246Y-77267303D01*
X159227401Y-77239850D01*
X159192422Y-77189471D01*
X159143352Y-77057911D01*
X159057188Y-76942811D01*
X158942089Y-76856647D01*
X158807375Y-76806402D01*
X158747824Y-76800000D01*
X158100000Y-76800000D01*
X158100000Y-79500000D01*
X157600000Y-79500000D01*
X157600000Y-78400000D01*
X156500000Y-78400000D01*
X135799096Y-78400000D01*
X135753903Y-78231337D01*
X135654035Y-78017171D01*
X135518495Y-77823599D01*
X135351401Y-77656505D01*
X135157830Y-77520965D01*
X134943663Y-77421097D01*
X134882501Y-77404709D01*
X134715407Y-77359936D01*
X134480000Y-77339340D01*
X134244592Y-77359936D01*
X134016336Y-77421097D01*
X133802170Y-77520965D01*
X133608601Y-77656503D01*
X133486673Y-77778431D01*
X133433926Y-77809726D01*
X133372634Y-77811915D01*
X133317789Y-77784462D01*
X133282810Y-77734082D01*
X133265002Y-77686337D01*
X133233796Y-77602669D01*
X133147546Y-77487454D01*
X133032331Y-77401204D01*
X132897483Y-77350909D01*
X132837873Y-77344500D01*
X132837869Y-77344500D01*
X131042130Y-77344500D01*
X130982515Y-77350909D01*
X130847669Y-77401204D01*
X130742908Y-77479628D01*
X130695532Y-77501400D01*
X130643394Y-77501773D01*
X130595712Y-77480679D01*
X130567730Y-77460349D01*
X130394802Y-77383355D01*
X130209648Y-77344000D01*
X130209646Y-77344000D01*
X130020354Y-77344000D01*
X130020352Y-77344000D01*
X129835197Y-77383355D01*
X129662269Y-77460348D01*
X129509129Y-77571610D01*
X129382466Y-77712283D01*
X129287820Y-77876215D01*
X129229326Y-78056242D01*
X129209540Y-78244499D01*
X129229326Y-78432757D01*
X129287820Y-78612784D01*
X129382466Y-78776716D01*
X129509129Y-78917389D01*
X129662269Y-79028651D01*
X129835197Y-79105644D01*
X130020352Y-79145000D01*
X130020354Y-79145000D01*
X130209646Y-79145000D01*
X130209648Y-79145000D01*
X130380378Y-79108710D01*
X130394803Y-79105644D01*
X130415062Y-79096623D01*
X130475227Y-79086284D01*
X130533034Y-79105906D01*
X130574473Y-79150733D01*
X130589500Y-79209902D01*
X130589500Y-79592869D01*
X130595909Y-79652484D01*
X130598399Y-79659159D01*
X130646204Y-79787331D01*
X130662565Y-79809186D01*
X130725250Y-79892923D01*
X130749490Y-79956184D01*
X130736865Y-80022742D01*
X130691145Y-80072733D01*
X130625975Y-80091234D01*
X111700504Y-80090000D01*
X111689520Y-80089512D01*
X110730963Y-80004205D01*
X110687386Y-79992040D01*
X109942251Y-79626867D01*
X109910278Y-79604326D01*
X109886918Y-79572945D01*
X109697223Y-79209902D01*
X109412096Y-78664219D01*
X109398001Y-78606079D01*
X109401776Y-77955000D01*
X110349357Y-77955000D01*
X110369885Y-78176537D01*
X110430769Y-78390526D01*
X110529941Y-78589688D01*
X110664019Y-78767237D01*
X110828437Y-78917124D01*
X111017595Y-79034245D01*
X111017597Y-79034245D01*
X111017599Y-79034247D01*
X111225060Y-79114618D01*
X111443757Y-79155500D01*
X111666241Y-79155500D01*
X111666243Y-79155500D01*
X111884940Y-79114618D01*
X112092401Y-79034247D01*
X112281562Y-78917124D01*
X112399215Y-78809869D01*
X112445980Y-78767237D01*
X112448625Y-78763735D01*
X112580058Y-78589689D01*
X112679229Y-78390528D01*
X112679861Y-78388309D01*
X112704945Y-78300147D01*
X112740115Y-78176536D01*
X112760643Y-77955000D01*
X112740115Y-77733464D01*
X112717227Y-77653021D01*
X112679230Y-77519473D01*
X112580058Y-77320311D01*
X112445980Y-77142762D01*
X112281562Y-76992875D01*
X112092404Y-76875754D01*
X112031174Y-76852033D01*
X111884940Y-76795382D01*
X111666243Y-76754500D01*
X111443757Y-76754500D01*
X111271269Y-76786744D01*
X111225060Y-76795382D01*
X111017595Y-76875754D01*
X110828437Y-76992875D01*
X110664019Y-77142762D01*
X110529941Y-77320311D01*
X110430769Y-77519473D01*
X110369885Y-77733462D01*
X110349357Y-77955000D01*
X109401776Y-77955000D01*
X109415606Y-75570000D01*
X121039540Y-75570000D01*
X121059326Y-75758257D01*
X121117820Y-75938284D01*
X121212466Y-76102216D01*
X121339129Y-76242889D01*
X121492269Y-76354151D01*
X121665197Y-76431144D01*
X121850352Y-76470500D01*
X121850354Y-76470500D01*
X122039646Y-76470500D01*
X122039648Y-76470500D01*
X122170045Y-76442783D01*
X122224803Y-76431144D01*
X122397730Y-76354151D01*
X122550871Y-76242888D01*
X122677533Y-76102216D01*
X122772179Y-75938284D01*
X122830674Y-75758256D01*
X122850460Y-75570000D01*
X122830674Y-75381744D01*
X122785557Y-75242888D01*
X122772179Y-75201715D01*
X122677533Y-75037783D01*
X122550870Y-74897110D01*
X122397730Y-74785848D01*
X122224802Y-74708855D01*
X122039648Y-74669500D01*
X122039646Y-74669500D01*
X121850354Y-74669500D01*
X121850352Y-74669500D01*
X121665197Y-74708855D01*
X121492269Y-74785848D01*
X121339129Y-74897110D01*
X121212466Y-75037783D01*
X121117820Y-75201715D01*
X121059326Y-75381742D01*
X121039540Y-75570000D01*
X109415606Y-75570000D01*
X109424304Y-74070000D01*
X123589540Y-74070000D01*
X123609326Y-74258257D01*
X123667820Y-74438284D01*
X123762466Y-74602216D01*
X123889129Y-74742889D01*
X124042269Y-74854151D01*
X124215197Y-74931144D01*
X124400352Y-74970500D01*
X124400354Y-74970500D01*
X124589646Y-74970500D01*
X124589648Y-74970500D01*
X124713083Y-74944262D01*
X124774803Y-74931144D01*
X124947730Y-74854151D01*
X124997134Y-74818257D01*
X125100870Y-74742889D01*
X125131515Y-74708855D01*
X125227533Y-74602216D01*
X125322179Y-74438284D01*
X125322179Y-74438283D01*
X125323292Y-74436356D01*
X125363143Y-74394361D01*
X125417717Y-74375035D01*
X125475116Y-74382592D01*
X125522829Y-74415384D01*
X125624129Y-74527889D01*
X125777269Y-74639151D01*
X125950197Y-74716144D01*
X126135352Y-74755500D01*
X126135354Y-74755500D01*
X126324646Y-74755500D01*
X126324648Y-74755500D01*
X126448084Y-74729262D01*
X126509803Y-74716144D01*
X126682730Y-74639151D01*
X126737066Y-74599674D01*
X126835870Y-74527889D01*
X126835948Y-74527803D01*
X126962533Y-74387216D01*
X127057179Y-74223284D01*
X127115674Y-74043256D01*
X127120220Y-74000000D01*
X128084540Y-74000000D01*
X128104326Y-74188257D01*
X128162820Y-74368284D01*
X128257466Y-74532216D01*
X128384129Y-74672889D01*
X128537269Y-74784151D01*
X128710197Y-74861144D01*
X128895352Y-74900500D01*
X128895354Y-74900500D01*
X129084646Y-74900500D01*
X129084648Y-74900500D01*
X129208083Y-74874262D01*
X129269803Y-74861144D01*
X129442730Y-74784151D01*
X129442730Y-74784150D01*
X129595869Y-74672890D01*
X129596975Y-74671662D01*
X129632269Y-74632463D01*
X129679978Y-74599674D01*
X129737377Y-74592116D01*
X129791951Y-74611441D01*
X129831803Y-74653435D01*
X129842327Y-74671662D01*
X129968990Y-74812336D01*
X130122130Y-74923598D01*
X130295058Y-75000591D01*
X130480213Y-75039947D01*
X130480215Y-75039947D01*
X130669507Y-75039947D01*
X130669509Y-75039947D01*
X130815493Y-75008917D01*
X130854664Y-75000591D01*
X130951136Y-74957638D01*
X131010222Y-74947219D01*
X131067283Y-74965759D01*
X131108960Y-75008917D01*
X131197466Y-75162216D01*
X131324129Y-75302889D01*
X131477269Y-75414151D01*
X131650197Y-75491144D01*
X131835352Y-75530500D01*
X131835354Y-75530500D01*
X132024646Y-75530500D01*
X132024648Y-75530500D01*
X132172843Y-75499000D01*
X132209803Y-75491144D01*
X132382730Y-75414151D01*
X132493049Y-75334000D01*
X132535870Y-75302889D01*
X132545576Y-75292110D01*
X132662533Y-75162216D01*
X132757179Y-74998284D01*
X132815674Y-74818256D01*
X132835460Y-74630000D01*
X132815674Y-74441744D01*
X132758246Y-74265000D01*
X134339540Y-74265000D01*
X134348421Y-74349500D01*
X134359326Y-74453257D01*
X134417820Y-74633284D01*
X134512466Y-74797216D01*
X134639129Y-74937889D01*
X134792269Y-75049151D01*
X134965197Y-75126144D01*
X135150352Y-75165500D01*
X135188078Y-75165500D01*
X135252313Y-75183435D01*
X135297967Y-75232051D01*
X135311833Y-75297286D01*
X135289901Y-75360268D01*
X135238514Y-75402779D01*
X135131672Y-75450348D01*
X134978532Y-75561610D01*
X134851869Y-75702283D01*
X134757223Y-75866215D01*
X134698729Y-76046242D01*
X134678943Y-76234500D01*
X134698729Y-76422757D01*
X134757223Y-76602784D01*
X134851869Y-76766716D01*
X134978532Y-76907389D01*
X135131672Y-77018651D01*
X135304600Y-77095644D01*
X135489755Y-77135000D01*
X135489757Y-77135000D01*
X135679049Y-77135000D01*
X135679051Y-77135000D01*
X135802486Y-77108762D01*
X135864206Y-77095644D01*
X136037133Y-77018651D01*
X136083235Y-76985156D01*
X136190273Y-76907389D01*
X136235962Y-76856647D01*
X136316936Y-76766716D01*
X136411582Y-76602784D01*
X136470077Y-76422756D01*
X136472521Y-76399499D01*
X141164540Y-76399499D01*
X141184326Y-76587757D01*
X141242820Y-76767784D01*
X141337466Y-76931716D01*
X141464129Y-77072389D01*
X141617269Y-77183651D01*
X141790197Y-77260644D01*
X141975352Y-77300000D01*
X141975354Y-77300000D01*
X142164646Y-77300000D01*
X142164648Y-77300000D01*
X142288083Y-77273762D01*
X142349803Y-77260644D01*
X142522730Y-77183651D01*
X142559547Y-77156902D01*
X142675870Y-77072389D01*
X142802533Y-76931716D01*
X142897179Y-76767784D01*
X142920828Y-76694999D01*
X145648042Y-76694999D01*
X145667828Y-76883257D01*
X145726322Y-77063284D01*
X145820968Y-77227216D01*
X145947631Y-77367889D01*
X146100771Y-77479151D01*
X146273699Y-77556144D01*
X146458854Y-77595500D01*
X146458856Y-77595500D01*
X146648148Y-77595500D01*
X146648150Y-77595500D01*
X146771585Y-77569262D01*
X146833305Y-77556144D01*
X147006232Y-77479151D01*
X147039146Y-77455238D01*
X147159372Y-77367889D01*
X147286035Y-77227216D01*
X147380681Y-77063284D01*
X147387188Y-77043257D01*
X147439176Y-76883256D01*
X147458962Y-76695000D01*
X147444220Y-76554737D01*
X152759278Y-76554737D01*
X152779064Y-76742995D01*
X152837558Y-76923022D01*
X152932204Y-77086954D01*
X153058867Y-77227627D01*
X153212007Y-77338889D01*
X153384935Y-77415882D01*
X153570090Y-77455238D01*
X153570092Y-77455238D01*
X153759384Y-77455238D01*
X153772989Y-77452346D01*
X153831244Y-77453963D01*
X153882326Y-77482014D01*
X153914953Y-77530302D01*
X153956647Y-77642088D01*
X154042811Y-77757188D01*
X154157910Y-77843352D01*
X154292624Y-77893597D01*
X154352176Y-77900000D01*
X154650000Y-77900000D01*
X154650000Y-77150000D01*
X155150000Y-77150000D01*
X155150000Y-77900000D01*
X155447824Y-77900000D01*
X156500000Y-77900000D01*
X157600000Y-77900000D01*
X157600000Y-76800000D01*
X156952176Y-76800000D01*
X156892624Y-76806402D01*
X156757910Y-76856647D01*
X156642811Y-76942811D01*
X156556647Y-77057910D01*
X156506402Y-77192624D01*
X156500000Y-77252176D01*
X156500000Y-77900000D01*
X155447824Y-77900000D01*
X155507375Y-77893597D01*
X155642089Y-77843352D01*
X155757188Y-77757188D01*
X155843352Y-77642089D01*
X155893597Y-77507375D01*
X155900000Y-77447824D01*
X155900000Y-77150000D01*
X155150000Y-77150000D01*
X154650000Y-77150000D01*
X154650000Y-75900000D01*
X155150000Y-75900000D01*
X155150000Y-76650000D01*
X155900000Y-76650000D01*
X155900000Y-76352176D01*
X155893597Y-76292624D01*
X155843352Y-76157910D01*
X155757188Y-76042811D01*
X155642089Y-75956647D01*
X155507375Y-75906402D01*
X155447824Y-75900000D01*
X155150000Y-75900000D01*
X154650000Y-75900000D01*
X154352168Y-75900000D01*
X154350372Y-75900193D01*
X154347864Y-75900000D01*
X154345526Y-75900000D01*
X154345526Y-75899820D01*
X154305169Y-75896715D01*
X154264239Y-75877221D01*
X154117468Y-75770587D01*
X154117467Y-75770586D01*
X154117465Y-75770585D01*
X153944540Y-75693593D01*
X153759386Y-75654238D01*
X153759384Y-75654238D01*
X153570092Y-75654238D01*
X153570090Y-75654238D01*
X153384935Y-75693593D01*
X153212007Y-75770586D01*
X153058867Y-75881848D01*
X152932204Y-76022521D01*
X152837558Y-76186453D01*
X152779064Y-76366480D01*
X152759278Y-76554737D01*
X147444220Y-76554737D01*
X147439176Y-76506744D01*
X147380681Y-76326716D01*
X147380681Y-76326715D01*
X147286035Y-76162783D01*
X147159372Y-76022110D01*
X147006232Y-75910848D01*
X146833304Y-75833855D01*
X146648150Y-75794500D01*
X146648148Y-75794500D01*
X146458856Y-75794500D01*
X146458854Y-75794500D01*
X146273699Y-75833855D01*
X146100771Y-75910848D01*
X145947631Y-76022110D01*
X145820968Y-76162783D01*
X145726322Y-76326715D01*
X145667828Y-76506742D01*
X145648042Y-76694999D01*
X142920828Y-76694999D01*
X142930009Y-76666744D01*
X142955674Y-76587756D01*
X142975460Y-76399500D01*
X142955674Y-76211244D01*
X142902062Y-76046244D01*
X142897179Y-76031215D01*
X142802533Y-75867283D01*
X142675870Y-75726610D01*
X142522730Y-75615348D01*
X142349802Y-75538355D01*
X142164648Y-75499000D01*
X142164646Y-75499000D01*
X141975354Y-75499000D01*
X141975352Y-75499000D01*
X141790197Y-75538355D01*
X141617269Y-75615348D01*
X141464129Y-75726610D01*
X141337466Y-75867283D01*
X141242820Y-76031215D01*
X141184326Y-76211242D01*
X141164540Y-76399499D01*
X136472521Y-76399499D01*
X136489863Y-76234500D01*
X136470077Y-76046244D01*
X136439735Y-75952863D01*
X136411582Y-75866215D01*
X136316936Y-75702283D01*
X136190273Y-75561610D01*
X136037133Y-75450348D01*
X135864205Y-75373355D01*
X135679051Y-75334000D01*
X135679049Y-75334000D01*
X135641325Y-75334000D01*
X135577090Y-75316065D01*
X135531436Y-75267449D01*
X135517570Y-75202214D01*
X135539502Y-75139232D01*
X135590889Y-75096721D01*
X135697730Y-75049151D01*
X135850870Y-74937889D01*
X135901450Y-74881715D01*
X135977533Y-74797216D01*
X136072179Y-74633284D01*
X136130674Y-74453256D01*
X136150460Y-74265000D01*
X136130674Y-74076744D01*
X136102489Y-73990000D01*
X136864540Y-73990000D01*
X136869270Y-74035000D01*
X136884326Y-74178257D01*
X136942820Y-74358284D01*
X137037466Y-74522216D01*
X137164129Y-74662889D01*
X137317269Y-74774151D01*
X137490197Y-74851144D01*
X137675352Y-74890500D01*
X137675354Y-74890500D01*
X137864646Y-74890500D01*
X137864648Y-74890500D01*
X138002756Y-74861144D01*
X138049803Y-74851144D01*
X138222730Y-74774151D01*
X138312603Y-74708855D01*
X138375870Y-74662889D01*
X138384383Y-74653435D01*
X138502533Y-74522216D01*
X138597179Y-74358284D01*
X138655674Y-74178256D01*
X138670730Y-74035000D01*
X145814540Y-74035000D01*
X145814833Y-74037784D01*
X145834326Y-74223257D01*
X145892820Y-74403284D01*
X145987466Y-74567216D01*
X146114129Y-74707889D01*
X146267269Y-74819151D01*
X146440197Y-74896144D01*
X146625352Y-74935500D01*
X146625354Y-74935500D01*
X146814646Y-74935500D01*
X146814648Y-74935500D01*
X146979309Y-74900500D01*
X146999803Y-74896144D01*
X147172730Y-74819151D01*
X147202921Y-74797216D01*
X147325870Y-74707889D01*
X147339337Y-74692933D01*
X147452533Y-74567216D01*
X147547179Y-74403284D01*
X147605674Y-74223256D01*
X147610746Y-74175000D01*
X151803760Y-74175000D01*
X151823546Y-74363257D01*
X151882040Y-74543284D01*
X151976686Y-74707216D01*
X152103349Y-74847889D01*
X152256489Y-74959151D01*
X152429417Y-75036144D01*
X152614572Y-75075500D01*
X152614574Y-75075500D01*
X152803866Y-75075500D01*
X152803868Y-75075500D01*
X152927829Y-75049151D01*
X152989023Y-75036144D01*
X153161950Y-74959151D01*
X153315091Y-74847888D01*
X153418760Y-74732751D01*
X153468496Y-74699204D01*
X153528165Y-74692933D01*
X153583791Y-74715407D01*
X153587063Y-74717784D01*
X153667034Y-74775887D01*
X153836064Y-74851144D01*
X153839959Y-74852878D01*
X154016958Y-74890500D01*
X154035081Y-74894352D01*
X154082186Y-74915324D01*
X154116688Y-74953642D01*
X154202466Y-75102216D01*
X154329129Y-75242889D01*
X154482269Y-75354151D01*
X154655197Y-75431144D01*
X154840352Y-75470500D01*
X154840354Y-75470500D01*
X155029646Y-75470500D01*
X155029648Y-75470500D01*
X155153083Y-75444262D01*
X155214803Y-75431144D01*
X155387730Y-75354151D01*
X155440151Y-75316065D01*
X155540870Y-75242889D01*
X155577943Y-75201716D01*
X155667533Y-75102216D01*
X155762179Y-74938284D01*
X155820674Y-74758256D01*
X155840460Y-74570000D01*
X155820674Y-74381744D01*
X155786929Y-74277888D01*
X155762179Y-74201715D01*
X155667533Y-74037783D01*
X155540870Y-73897110D01*
X155387730Y-73785848D01*
X155262294Y-73730000D01*
X160195040Y-73730000D01*
X160195333Y-73732784D01*
X160214826Y-73918257D01*
X160273320Y-74098284D01*
X160367966Y-74262216D01*
X160494629Y-74402889D01*
X160647769Y-74514151D01*
X160820697Y-74591144D01*
X161005852Y-74630500D01*
X161005854Y-74630500D01*
X161195146Y-74630500D01*
X161195148Y-74630500D01*
X161340172Y-74599674D01*
X161380303Y-74591144D01*
X161451022Y-74559657D01*
X161558732Y-74511702D01*
X161624709Y-74501959D01*
X161686190Y-74527803D01*
X161725391Y-74581757D01*
X161730972Y-74648215D01*
X161701319Y-74707952D01*
X161692466Y-74717783D01*
X161597820Y-74881715D01*
X161539326Y-75061742D01*
X161519540Y-75250000D01*
X161539326Y-75438257D01*
X161597820Y-75618284D01*
X161692466Y-75782216D01*
X161819129Y-75922889D01*
X161972269Y-76034151D01*
X162054692Y-76070848D01*
X162145197Y-76111144D01*
X162262461Y-76136069D01*
X162310629Y-76157824D01*
X162345364Y-76197666D01*
X162360350Y-76248354D01*
X162356266Y-76276890D01*
X162357574Y-76277031D01*
X162355909Y-76292516D01*
X162355909Y-76292517D01*
X162354878Y-76302112D01*
X162349500Y-76352130D01*
X162349500Y-77447869D01*
X162355909Y-77507484D01*
X162364420Y-77530302D01*
X162406204Y-77642331D01*
X162492454Y-77757546D01*
X162607669Y-77843796D01*
X162742517Y-77894091D01*
X162802127Y-77900500D01*
X163897872Y-77900499D01*
X163957483Y-77894091D01*
X164092331Y-77843796D01*
X164207546Y-77757546D01*
X164293796Y-77642331D01*
X164344091Y-77507483D01*
X164350500Y-77447873D01*
X164350499Y-76352128D01*
X164344091Y-76292517D01*
X164293796Y-76157669D01*
X164207546Y-76042454D01*
X164104081Y-75965000D01*
X164589540Y-75965000D01*
X164609326Y-76153257D01*
X164667820Y-76333284D01*
X164762466Y-76497216D01*
X164889129Y-76637889D01*
X165042269Y-76749151D01*
X165215197Y-76826144D01*
X165400352Y-76865500D01*
X165400354Y-76865500D01*
X165589646Y-76865500D01*
X165589648Y-76865500D01*
X165639049Y-76854999D01*
X171229540Y-76854999D01*
X171249326Y-77043257D01*
X171307820Y-77223284D01*
X171402466Y-77387216D01*
X171529129Y-77527889D01*
X171682269Y-77639151D01*
X171855197Y-77716144D01*
X172040352Y-77755500D01*
X172040354Y-77755500D01*
X172229646Y-77755500D01*
X172229648Y-77755500D01*
X172353929Y-77729083D01*
X172414803Y-77716144D01*
X172587730Y-77639151D01*
X172701980Y-77556144D01*
X172740870Y-77527889D01*
X172747105Y-77520965D01*
X172867533Y-77387216D01*
X172962179Y-77223284D01*
X173020674Y-77043256D01*
X173027848Y-76975000D01*
X174194540Y-76975000D01*
X174203700Y-77062150D01*
X174214326Y-77163257D01*
X174272820Y-77343284D01*
X174367466Y-77507216D01*
X174494129Y-77647889D01*
X174647269Y-77759151D01*
X174820197Y-77836144D01*
X175005352Y-77875500D01*
X175005354Y-77875500D01*
X175194646Y-77875500D01*
X175194648Y-77875500D01*
X175318084Y-77849262D01*
X175332015Y-77846301D01*
X179064540Y-77846301D01*
X179084326Y-78034558D01*
X179142820Y-78214585D01*
X179237466Y-78378517D01*
X179364129Y-78519190D01*
X179517269Y-78630452D01*
X179690197Y-78707445D01*
X179875352Y-78746801D01*
X179875354Y-78746801D01*
X180064646Y-78746801D01*
X180064648Y-78746801D01*
X180188084Y-78720563D01*
X180249803Y-78707445D01*
X180422730Y-78630452D01*
X180575871Y-78519189D01*
X180702533Y-78378517D01*
X180797179Y-78214585D01*
X180855674Y-78034557D01*
X180875460Y-77846301D01*
X180855674Y-77658045D01*
X180813898Y-77529472D01*
X180797179Y-77478016D01*
X180702533Y-77314084D01*
X180575870Y-77173411D01*
X180422730Y-77062149D01*
X180249802Y-76985156D01*
X180064648Y-76945801D01*
X180064646Y-76945801D01*
X179875354Y-76945801D01*
X179875352Y-76945801D01*
X179690197Y-76985156D01*
X179517269Y-77062149D01*
X179364129Y-77173411D01*
X179237466Y-77314084D01*
X179142820Y-77478016D01*
X179084326Y-77658043D01*
X179064540Y-77846301D01*
X175332015Y-77846301D01*
X175379803Y-77836144D01*
X175552730Y-77759151D01*
X175617239Y-77712283D01*
X175705870Y-77647889D01*
X175710875Y-77642331D01*
X175832533Y-77507216D01*
X175927179Y-77343284D01*
X175985674Y-77163256D01*
X176005460Y-76975000D01*
X175985674Y-76786744D01*
X175937308Y-76637889D01*
X175927179Y-76606715D01*
X175832533Y-76442783D01*
X175705870Y-76302110D01*
X175552730Y-76190848D01*
X175379802Y-76113855D01*
X175194648Y-76074500D01*
X175194646Y-76074500D01*
X175005354Y-76074500D01*
X175005352Y-76074500D01*
X174820197Y-76113855D01*
X174647269Y-76190848D01*
X174494129Y-76302110D01*
X174367466Y-76442783D01*
X174272820Y-76606715D01*
X174214326Y-76786742D01*
X174204971Y-76875753D01*
X174194540Y-76975000D01*
X173027848Y-76975000D01*
X173040460Y-76855000D01*
X173020674Y-76666744D01*
X172984281Y-76554738D01*
X172962179Y-76486715D01*
X172867533Y-76322783D01*
X172740870Y-76182110D01*
X172587730Y-76070848D01*
X172414802Y-75993855D01*
X172229648Y-75954500D01*
X172229646Y-75954500D01*
X172040354Y-75954500D01*
X172040352Y-75954500D01*
X171855197Y-75993855D01*
X171682269Y-76070848D01*
X171529129Y-76182110D01*
X171402466Y-76322783D01*
X171307820Y-76486715D01*
X171249326Y-76666742D01*
X171229540Y-76854999D01*
X165639049Y-76854999D01*
X165713083Y-76839262D01*
X165774803Y-76826144D01*
X165947730Y-76749151D01*
X166061157Y-76666742D01*
X166100870Y-76637889D01*
X166227533Y-76497216D01*
X166322179Y-76333284D01*
X166340457Y-76277031D01*
X166380674Y-76153256D01*
X166400460Y-75965000D01*
X166380674Y-75776744D01*
X166329187Y-75618284D01*
X166322179Y-75596715D01*
X166227533Y-75432783D01*
X166100870Y-75292110D01*
X165947730Y-75180848D01*
X165774802Y-75103855D01*
X165589648Y-75064500D01*
X165589646Y-75064500D01*
X165400354Y-75064500D01*
X165400352Y-75064500D01*
X165215197Y-75103855D01*
X165042269Y-75180848D01*
X164889129Y-75292110D01*
X164762466Y-75432783D01*
X164667820Y-75596715D01*
X164609326Y-75776742D01*
X164589540Y-75965000D01*
X164104081Y-75965000D01*
X164092331Y-75956204D01*
X163957483Y-75905909D01*
X163897873Y-75899500D01*
X163897869Y-75899500D01*
X163304594Y-75899500D01*
X163242594Y-75882887D01*
X163197207Y-75837500D01*
X163180594Y-75775500D01*
X163197207Y-75713500D01*
X163252179Y-75618284D01*
X163259187Y-75596715D01*
X163310674Y-75438256D01*
X163330460Y-75250000D01*
X163310674Y-75061744D01*
X163268239Y-74931144D01*
X163252179Y-74881715D01*
X163157533Y-74717783D01*
X163107695Y-74662433D01*
X163078041Y-74602696D01*
X163083622Y-74536238D01*
X163122823Y-74482283D01*
X163184304Y-74456439D01*
X163237273Y-74464261D01*
X163237449Y-74463435D01*
X163435352Y-74505500D01*
X163435354Y-74505500D01*
X163624646Y-74505500D01*
X163624648Y-74505500D01*
X163753836Y-74478040D01*
X163809803Y-74466144D01*
X163982730Y-74389151D01*
X164037305Y-74349500D01*
X164135870Y-74277889D01*
X164262533Y-74137216D01*
X164357179Y-73973284D01*
X164381929Y-73897112D01*
X164415674Y-73793256D01*
X164435460Y-73605000D01*
X164415674Y-73416744D01*
X164382243Y-73313855D01*
X164357179Y-73236715D01*
X164262533Y-73072783D01*
X164135870Y-72932110D01*
X163982730Y-72820848D01*
X163809802Y-72743855D01*
X163624648Y-72704500D01*
X163624646Y-72704500D01*
X163435354Y-72704500D01*
X163435352Y-72704500D01*
X163250197Y-72743855D01*
X163077269Y-72820848D01*
X162924129Y-72932110D01*
X162797466Y-73072783D01*
X162702820Y-73236715D01*
X162644326Y-73416742D01*
X162624540Y-73604999D01*
X162624540Y-73605000D01*
X162624865Y-73608090D01*
X162644326Y-73793257D01*
X162702820Y-73973284D01*
X162797466Y-74137216D01*
X162847304Y-74192566D01*
X162876957Y-74252302D01*
X162871378Y-74318759D01*
X162832178Y-74372714D01*
X162770699Y-74398560D01*
X162717726Y-74390738D01*
X162717551Y-74391565D01*
X162519648Y-74349500D01*
X162519646Y-74349500D01*
X162330354Y-74349500D01*
X162330352Y-74349500D01*
X162145199Y-74388854D01*
X161966766Y-74468298D01*
X161900788Y-74478040D01*
X161839307Y-74452194D01*
X161800107Y-74398238D01*
X161794528Y-74331778D01*
X161824184Y-74272043D01*
X161833033Y-74262216D01*
X161927679Y-74098284D01*
X161986174Y-73918256D01*
X162005960Y-73730000D01*
X161986174Y-73541744D01*
X161941371Y-73403855D01*
X161927679Y-73361715D01*
X161833033Y-73197783D01*
X161706370Y-73057110D01*
X161553230Y-72945848D01*
X161380302Y-72868855D01*
X161195148Y-72829500D01*
X161195146Y-72829500D01*
X161005854Y-72829500D01*
X161005852Y-72829500D01*
X160820697Y-72868855D01*
X160647769Y-72945848D01*
X160494629Y-73057110D01*
X160367966Y-73197783D01*
X160273320Y-73361715D01*
X160214826Y-73541742D01*
X160195040Y-73729999D01*
X160195040Y-73730000D01*
X155262294Y-73730000D01*
X155214802Y-73708855D01*
X155019679Y-73667381D01*
X154972574Y-73646409D01*
X154938074Y-73608092D01*
X154852295Y-73459518D01*
X154852294Y-73459516D01*
X154725632Y-73318844D01*
X154572492Y-73207582D01*
X154399564Y-73130589D01*
X154214410Y-73091234D01*
X154214408Y-73091234D01*
X154025116Y-73091234D01*
X154025114Y-73091234D01*
X153839959Y-73130589D01*
X153667031Y-73207582D01*
X153513891Y-73318844D01*
X153410224Y-73433979D01*
X153360484Y-73467529D01*
X153300816Y-73473800D01*
X153245188Y-73451325D01*
X153221313Y-73433979D01*
X153161950Y-73390849D01*
X153161949Y-73390848D01*
X153161947Y-73390847D01*
X152989022Y-73313855D01*
X152803868Y-73274500D01*
X152803866Y-73274500D01*
X152614574Y-73274500D01*
X152614572Y-73274500D01*
X152429417Y-73313855D01*
X152256489Y-73390848D01*
X152103349Y-73502110D01*
X151976686Y-73642783D01*
X151882040Y-73806715D01*
X151823546Y-73986742D01*
X151803760Y-74175000D01*
X147610746Y-74175000D01*
X147625460Y-74035000D01*
X147605674Y-73846744D01*
X147547179Y-73666716D01*
X147547179Y-73666715D01*
X147452533Y-73502783D01*
X147325870Y-73362110D01*
X147172730Y-73250848D01*
X146999802Y-73173855D01*
X146814648Y-73134500D01*
X146814646Y-73134500D01*
X146625354Y-73134500D01*
X146625352Y-73134500D01*
X146440197Y-73173855D01*
X146267269Y-73250848D01*
X146114129Y-73362110D01*
X145987466Y-73502783D01*
X145892820Y-73666715D01*
X145834326Y-73846742D01*
X145814540Y-74034999D01*
X145814540Y-74035000D01*
X138670730Y-74035000D01*
X138675460Y-73990000D01*
X138655674Y-73801744D01*
X138611810Y-73666744D01*
X138597179Y-73621715D01*
X138502533Y-73457783D01*
X138375870Y-73317110D01*
X138222730Y-73205848D01*
X138049802Y-73128855D01*
X137864648Y-73089500D01*
X137864646Y-73089500D01*
X137675354Y-73089500D01*
X137675352Y-73089500D01*
X137490197Y-73128855D01*
X137317269Y-73205848D01*
X137164129Y-73317110D01*
X137037466Y-73457783D01*
X136942820Y-73621715D01*
X136884326Y-73801742D01*
X136866297Y-73973284D01*
X136864540Y-73990000D01*
X136102489Y-73990000D01*
X136072179Y-73896716D01*
X136072179Y-73896715D01*
X135977533Y-73732783D01*
X135850870Y-73592110D01*
X135697730Y-73480848D01*
X135524802Y-73403855D01*
X135339648Y-73364500D01*
X135339646Y-73364500D01*
X135150354Y-73364500D01*
X135150352Y-73364500D01*
X134965197Y-73403855D01*
X134792269Y-73480848D01*
X134639129Y-73592110D01*
X134512466Y-73732783D01*
X134417820Y-73896715D01*
X134359326Y-74076742D01*
X134339540Y-74264999D01*
X134339540Y-74265000D01*
X132758246Y-74265000D01*
X132758246Y-74264999D01*
X132757179Y-74261715D01*
X132662533Y-74097783D01*
X132535870Y-73957110D01*
X132382730Y-73845848D01*
X132209802Y-73768855D01*
X132024648Y-73729500D01*
X132024646Y-73729500D01*
X131835354Y-73729500D01*
X131835352Y-73729500D01*
X131650199Y-73768854D01*
X131553723Y-73811809D01*
X131494638Y-73822227D01*
X131437578Y-73803687D01*
X131395901Y-73760529D01*
X131307394Y-73607230D01*
X131180731Y-73466557D01*
X131027591Y-73355295D01*
X130854663Y-73278302D01*
X130669509Y-73238947D01*
X130669507Y-73238947D01*
X130480215Y-73238947D01*
X130480213Y-73238947D01*
X130295058Y-73278302D01*
X130122130Y-73355295D01*
X129968992Y-73466556D01*
X129932591Y-73506983D01*
X129884878Y-73539774D01*
X129827478Y-73547329D01*
X129772905Y-73528003D01*
X129733054Y-73486007D01*
X129722533Y-73467783D01*
X129595870Y-73327110D01*
X129442730Y-73215848D01*
X129269802Y-73138855D01*
X129084648Y-73099500D01*
X129084646Y-73099500D01*
X128895354Y-73099500D01*
X128895352Y-73099500D01*
X128710197Y-73138855D01*
X128537269Y-73215848D01*
X128384129Y-73327110D01*
X128257466Y-73467783D01*
X128162820Y-73631715D01*
X128104326Y-73811742D01*
X128084540Y-74000000D01*
X127120220Y-74000000D01*
X127135460Y-73855000D01*
X127125734Y-73762460D01*
X127137605Y-73695142D01*
X127183345Y-73644342D01*
X127249055Y-73625500D01*
X127279648Y-73625500D01*
X127403084Y-73599262D01*
X127464803Y-73586144D01*
X127637730Y-73509151D01*
X127694667Y-73467784D01*
X127790870Y-73397889D01*
X127791572Y-73397110D01*
X127917533Y-73257216D01*
X128012179Y-73093284D01*
X128070674Y-72913256D01*
X128090460Y-72725000D01*
X128070674Y-72536744D01*
X128012179Y-72356716D01*
X128012179Y-72356715D01*
X127917533Y-72192783D01*
X127790870Y-72052110D01*
X127637730Y-71940848D01*
X127464802Y-71863855D01*
X127279648Y-71824500D01*
X127279646Y-71824500D01*
X127090354Y-71824500D01*
X127090352Y-71824500D01*
X126905197Y-71863855D01*
X126732269Y-71940848D01*
X126579129Y-72052110D01*
X126452466Y-72192783D01*
X126357820Y-72356715D01*
X126299326Y-72536742D01*
X126279540Y-72725000D01*
X126289266Y-72817539D01*
X126277395Y-72884858D01*
X126231655Y-72935658D01*
X126165945Y-72954500D01*
X126135352Y-72954500D01*
X125950197Y-72993855D01*
X125777269Y-73070848D01*
X125624129Y-73182110D01*
X125497466Y-73322784D01*
X125401707Y-73488643D01*
X125361855Y-73530638D01*
X125307281Y-73549964D01*
X125249882Y-73542407D01*
X125202170Y-73509615D01*
X125100870Y-73397110D01*
X124947730Y-73285848D01*
X124774802Y-73208855D01*
X124589648Y-73169500D01*
X124589646Y-73169500D01*
X124400354Y-73169500D01*
X124400352Y-73169500D01*
X124215197Y-73208855D01*
X124042269Y-73285848D01*
X123889129Y-73397110D01*
X123762466Y-73537783D01*
X123667820Y-73701715D01*
X123609326Y-73881742D01*
X123589540Y-74070000D01*
X109424304Y-74070000D01*
X109440685Y-71245000D01*
X130589540Y-71245000D01*
X130609326Y-71433257D01*
X130667820Y-71613284D01*
X130762466Y-71777216D01*
X130889129Y-71917889D01*
X131042269Y-72029151D01*
X131215197Y-72106144D01*
X131400352Y-72145500D01*
X131400354Y-72145500D01*
X131589646Y-72145500D01*
X131589648Y-72145500D01*
X131713083Y-72119262D01*
X131774803Y-72106144D01*
X131947730Y-72029151D01*
X132100871Y-71917888D01*
X132227533Y-71777216D01*
X132322179Y-71613284D01*
X132380674Y-71433256D01*
X132386271Y-71380000D01*
X137574540Y-71380000D01*
X137594326Y-71568257D01*
X137652820Y-71748284D01*
X137747466Y-71912216D01*
X137874129Y-72052889D01*
X138027269Y-72164151D01*
X138200197Y-72241144D01*
X138385352Y-72280500D01*
X138385354Y-72280500D01*
X138574646Y-72280500D01*
X138574648Y-72280500D01*
X138698083Y-72254262D01*
X138759803Y-72241144D01*
X138932730Y-72164151D01*
X139085871Y-72052888D01*
X139146999Y-71984999D01*
X140889540Y-71984999D01*
X140909326Y-72173257D01*
X140967820Y-72353284D01*
X141062466Y-72517216D01*
X141189129Y-72657889D01*
X141342269Y-72769151D01*
X141515197Y-72846144D01*
X141700352Y-72885500D01*
X141700354Y-72885500D01*
X141889646Y-72885500D01*
X141889648Y-72885500D01*
X142013083Y-72859262D01*
X142074803Y-72846144D01*
X142247730Y-72769151D01*
X142400871Y-72657888D01*
X142527533Y-72517216D01*
X142622179Y-72353284D01*
X142680674Y-72173256D01*
X142700460Y-71985000D01*
X142680674Y-71796744D01*
X142622179Y-71616716D01*
X142622179Y-71616715D01*
X142527533Y-71452783D01*
X142400870Y-71312110D01*
X142247730Y-71200848D01*
X142074802Y-71123855D01*
X141889648Y-71084500D01*
X141889646Y-71084500D01*
X141700354Y-71084500D01*
X141700352Y-71084500D01*
X141515197Y-71123855D01*
X141342269Y-71200848D01*
X141189129Y-71312110D01*
X141062466Y-71452783D01*
X140967820Y-71616715D01*
X140909326Y-71796742D01*
X140889540Y-71984999D01*
X139146999Y-71984999D01*
X139212533Y-71912216D01*
X139307179Y-71748284D01*
X139365674Y-71568256D01*
X139385460Y-71380000D01*
X139365674Y-71191744D01*
X139333649Y-71093184D01*
X139331264Y-71024871D01*
X139365444Y-70965670D01*
X139425798Y-70933579D01*
X139484303Y-70921144D01*
X139657230Y-70844151D01*
X139686496Y-70822888D01*
X139810370Y-70732889D01*
X139820085Y-70722100D01*
X139937033Y-70592216D01*
X140031679Y-70428284D01*
X140090174Y-70248256D01*
X140109960Y-70060000D01*
X140090174Y-69871744D01*
X140059832Y-69778363D01*
X140031679Y-69691715D01*
X139937033Y-69527783D01*
X139810370Y-69387110D01*
X139657230Y-69275848D01*
X139484302Y-69198855D01*
X139299148Y-69159500D01*
X139299146Y-69159500D01*
X139109854Y-69159500D01*
X139109852Y-69159500D01*
X138924697Y-69198855D01*
X138751769Y-69275848D01*
X138598629Y-69387110D01*
X138471966Y-69527783D01*
X138377320Y-69691715D01*
X138318826Y-69871742D01*
X138299040Y-70059999D01*
X138318826Y-70248257D01*
X138350849Y-70346812D01*
X138353235Y-70415128D01*
X138319056Y-70474328D01*
X138258700Y-70506420D01*
X138200196Y-70518855D01*
X138027269Y-70595848D01*
X137874129Y-70707110D01*
X137747466Y-70847783D01*
X137652820Y-71011715D01*
X137594326Y-71191742D01*
X137574540Y-71380000D01*
X132386271Y-71380000D01*
X132400460Y-71245000D01*
X132380674Y-71056744D01*
X132322179Y-70876716D01*
X132322179Y-70876715D01*
X132227533Y-70712783D01*
X132100870Y-70572110D01*
X131947730Y-70460848D01*
X131774802Y-70383855D01*
X131589648Y-70344500D01*
X131589646Y-70344500D01*
X131400354Y-70344500D01*
X131400352Y-70344500D01*
X131215197Y-70383855D01*
X131042269Y-70460848D01*
X130889129Y-70572110D01*
X130762466Y-70712783D01*
X130667820Y-70876715D01*
X130609326Y-71056742D01*
X130589540Y-71245000D01*
X109440685Y-71245000D01*
X109447035Y-70149999D01*
X116929540Y-70149999D01*
X116949326Y-70338257D01*
X117007820Y-70518284D01*
X117102466Y-70682216D01*
X117229129Y-70822889D01*
X117382269Y-70934151D01*
X117555197Y-71011144D01*
X117740352Y-71050500D01*
X117740354Y-71050500D01*
X117929646Y-71050500D01*
X117929648Y-71050500D01*
X118053083Y-71024262D01*
X118114803Y-71011144D01*
X118287730Y-70934151D01*
X118366784Y-70876715D01*
X118440870Y-70822889D01*
X118474987Y-70784999D01*
X118567533Y-70682216D01*
X118662179Y-70518284D01*
X118720674Y-70338256D01*
X118740460Y-70150000D01*
X118720674Y-69961744D01*
X118678030Y-69830500D01*
X118662179Y-69781715D01*
X118567533Y-69617783D01*
X118440870Y-69477110D01*
X118287730Y-69365848D01*
X118114802Y-69288855D01*
X117929648Y-69249500D01*
X117929646Y-69249500D01*
X117740354Y-69249500D01*
X117740352Y-69249500D01*
X117555197Y-69288855D01*
X117382269Y-69365848D01*
X117229129Y-69477110D01*
X117102466Y-69617783D01*
X117007820Y-69781715D01*
X116949326Y-69961742D01*
X116929540Y-70149999D01*
X109447035Y-70149999D01*
X109453732Y-68995000D01*
X120684540Y-68995000D01*
X120687176Y-69020078D01*
X120704326Y-69183257D01*
X120762820Y-69363284D01*
X120857466Y-69527216D01*
X120984129Y-69667889D01*
X121137269Y-69779151D01*
X121310197Y-69856144D01*
X121495352Y-69895500D01*
X121495354Y-69895500D01*
X121684646Y-69895500D01*
X121684648Y-69895500D01*
X121810468Y-69868756D01*
X121869803Y-69856144D01*
X122042730Y-69779151D01*
X122105339Y-69733663D01*
X122195870Y-69667889D01*
X122254397Y-69602889D01*
X122322533Y-69527216D01*
X122416073Y-69365200D01*
X127029340Y-69365200D01*
X127049126Y-69553457D01*
X127107620Y-69733484D01*
X127202266Y-69897416D01*
X127328929Y-70038089D01*
X127482069Y-70149351D01*
X127654997Y-70226344D01*
X127840152Y-70265700D01*
X127840154Y-70265700D01*
X128029446Y-70265700D01*
X128029448Y-70265700D01*
X128152883Y-70239462D01*
X128214603Y-70226344D01*
X128387530Y-70149351D01*
X128540671Y-70038088D01*
X128667333Y-69897416D01*
X128761979Y-69733484D01*
X128820474Y-69553456D01*
X128840260Y-69365200D01*
X128820474Y-69176944D01*
X128769505Y-69020078D01*
X128761979Y-68996915D01*
X128667333Y-68832983D01*
X128547593Y-68699999D01*
X140239659Y-68699999D01*
X140258976Y-68896133D01*
X140316185Y-69084726D01*
X140365476Y-69176942D01*
X140409090Y-69258538D01*
X140534117Y-69410883D01*
X140686462Y-69535910D01*
X140860273Y-69628814D01*
X141048868Y-69686024D01*
X141245000Y-69705341D01*
X141441132Y-69686024D01*
X141629727Y-69628814D01*
X141803538Y-69535910D01*
X141955883Y-69410883D01*
X142080910Y-69258538D01*
X142173814Y-69084727D01*
X142190771Y-69028826D01*
X142228487Y-68970886D01*
X142291369Y-68942146D01*
X142359865Y-68951544D01*
X142370199Y-68956145D01*
X142555352Y-68995500D01*
X142555354Y-68995500D01*
X142744646Y-68995500D01*
X142744648Y-68995500D01*
X142868084Y-68969262D01*
X142929803Y-68956144D01*
X143102730Y-68879151D01*
X143185031Y-68819356D01*
X143255870Y-68767889D01*
X143382533Y-68627216D01*
X143477179Y-68463284D01*
X143477342Y-68462783D01*
X143478409Y-68459500D01*
X144994540Y-68459500D01*
X145001237Y-68523217D01*
X145014326Y-68647757D01*
X145072820Y-68827784D01*
X145167466Y-68991716D01*
X145294129Y-69132389D01*
X145447269Y-69243651D01*
X145620197Y-69320644D01*
X145805352Y-69360000D01*
X145805354Y-69360000D01*
X145994646Y-69360000D01*
X145994648Y-69360000D01*
X146118084Y-69333762D01*
X146179803Y-69320644D01*
X146352730Y-69243651D01*
X146440840Y-69179635D01*
X146494324Y-69157481D01*
X146552040Y-69162023D01*
X146601403Y-69192272D01*
X146631654Y-69241635D01*
X146650061Y-69298285D01*
X146744706Y-69462216D01*
X146871369Y-69602889D01*
X147024509Y-69714151D01*
X147197437Y-69791144D01*
X147382592Y-69830500D01*
X147382594Y-69830500D01*
X147571886Y-69830500D01*
X147571888Y-69830500D01*
X147695324Y-69804262D01*
X147757043Y-69791144D01*
X147929970Y-69714151D01*
X147976287Y-69680500D01*
X152964392Y-69680500D01*
X152964973Y-69686024D01*
X152984178Y-69868757D01*
X153042672Y-70048784D01*
X153137318Y-70212716D01*
X153263981Y-70353389D01*
X153417121Y-70464651D01*
X153533020Y-70516252D01*
X153590049Y-70541644D01*
X153651786Y-70554766D01*
X153698887Y-70575737D01*
X153733390Y-70614055D01*
X153749324Y-70663094D01*
X153759326Y-70758257D01*
X153817820Y-70938284D01*
X153912466Y-71102216D01*
X154039126Y-71242886D01*
X154042036Y-71245000D01*
X154103107Y-71289370D01*
X154143500Y-71339251D01*
X154153542Y-71402648D01*
X154145040Y-71483549D01*
X154164826Y-71671808D01*
X154223320Y-71851835D01*
X154317966Y-72015767D01*
X154444629Y-72156440D01*
X154597769Y-72267702D01*
X154770697Y-72344695D01*
X154955852Y-72384051D01*
X154955854Y-72384051D01*
X155145146Y-72384051D01*
X155145148Y-72384051D01*
X155273753Y-72356715D01*
X155330303Y-72344695D01*
X155503230Y-72267702D01*
X155633223Y-72173257D01*
X155656370Y-72156440D01*
X155666221Y-72145500D01*
X155783033Y-72015767D01*
X155877679Y-71851835D01*
X155936174Y-71671807D01*
X155955960Y-71483551D01*
X155936174Y-71295295D01*
X155880470Y-71123856D01*
X155877679Y-71115266D01*
X155783033Y-70951334D01*
X155656370Y-70810661D01*
X155621049Y-70784999D01*
X176204540Y-70784999D01*
X176224326Y-70973257D01*
X176282820Y-71153284D01*
X176377466Y-71317216D01*
X176504129Y-71457889D01*
X176657269Y-71569151D01*
X176830197Y-71646144D01*
X177015352Y-71685500D01*
X177015354Y-71685500D01*
X177204646Y-71685500D01*
X177204648Y-71685500D01*
X177328083Y-71659262D01*
X177389803Y-71646144D01*
X177562730Y-71569151D01*
X177715871Y-71457888D01*
X177842533Y-71317216D01*
X177937179Y-71153284D01*
X177995674Y-70973256D01*
X178015460Y-70785000D01*
X177995674Y-70596744D01*
X177951519Y-70460849D01*
X177937179Y-70416715D01*
X177842533Y-70252783D01*
X177715870Y-70112110D01*
X177562730Y-70000848D01*
X177389802Y-69923855D01*
X177204648Y-69884500D01*
X177204646Y-69884500D01*
X177015354Y-69884500D01*
X177015352Y-69884500D01*
X176830197Y-69923855D01*
X176657269Y-70000848D01*
X176504129Y-70112110D01*
X176377466Y-70252783D01*
X176282820Y-70416715D01*
X176224326Y-70596742D01*
X176204540Y-70784999D01*
X155621049Y-70784999D01*
X155592393Y-70764180D01*
X155551999Y-70714298D01*
X155541957Y-70650901D01*
X155544610Y-70625659D01*
X155550460Y-70570000D01*
X155530674Y-70381744D01*
X155472179Y-70201716D01*
X155472179Y-70201715D01*
X155377533Y-70037783D01*
X155250870Y-69897110D01*
X155097732Y-69785849D01*
X154924801Y-69708855D01*
X154863066Y-69695733D01*
X154815962Y-69674761D01*
X154781461Y-69636443D01*
X154765527Y-69587404D01*
X154759261Y-69527783D01*
X154755526Y-69492244D01*
X154712557Y-69360000D01*
X154697031Y-69312215D01*
X154602385Y-69148283D01*
X154475722Y-69007610D01*
X154322582Y-68896348D01*
X154149654Y-68819355D01*
X153964500Y-68780000D01*
X153964498Y-68780000D01*
X153775206Y-68780000D01*
X153775204Y-68780000D01*
X153590049Y-68819355D01*
X153417121Y-68896348D01*
X153263981Y-69007610D01*
X153137318Y-69148283D01*
X153042672Y-69312215D01*
X152984178Y-69492242D01*
X152965717Y-69667889D01*
X152964392Y-69680500D01*
X147976287Y-69680500D01*
X147976288Y-69680499D01*
X148083110Y-69602889D01*
X148209773Y-69462216D01*
X148304419Y-69298284D01*
X148313609Y-69269999D01*
X148362914Y-69118256D01*
X148382700Y-68930000D01*
X148364461Y-68756464D01*
X148376332Y-68689146D01*
X148422072Y-68638346D01*
X148487782Y-68619504D01*
X148505621Y-68619504D01*
X148690774Y-68580149D01*
X148709215Y-68571938D01*
X148783072Y-68539053D01*
X148846468Y-68529012D01*
X148906392Y-68552013D01*
X148954241Y-68586778D01*
X148954242Y-68586778D01*
X148954243Y-68586779D01*
X149127168Y-68663771D01*
X149312323Y-68703127D01*
X149312325Y-68703127D01*
X149501617Y-68703127D01*
X149501619Y-68703127D01*
X149626305Y-68676624D01*
X149686774Y-68663771D01*
X149819628Y-68604619D01*
X149883025Y-68594578D01*
X149942945Y-68617579D01*
X149953014Y-68624895D01*
X150069198Y-68676624D01*
X150125941Y-68701888D01*
X150311096Y-68741244D01*
X150311098Y-68741244D01*
X150500390Y-68741244D01*
X150500392Y-68741244D01*
X150623828Y-68715006D01*
X150685547Y-68701888D01*
X150858474Y-68624895D01*
X150876985Y-68611445D01*
X150936905Y-68588443D01*
X151000304Y-68598485D01*
X151002875Y-68599629D01*
X151002877Y-68599631D01*
X151146936Y-68663771D01*
X151175804Y-68676624D01*
X151360959Y-68715980D01*
X151360961Y-68715980D01*
X151550253Y-68715980D01*
X151550255Y-68715980D01*
X151676498Y-68689146D01*
X151735410Y-68676624D01*
X151908337Y-68599631D01*
X151989936Y-68540345D01*
X152049856Y-68517344D01*
X152113253Y-68527385D01*
X152272943Y-68598485D01*
X152276817Y-68600210D01*
X152461972Y-68639566D01*
X152461974Y-68639566D01*
X152651266Y-68639566D01*
X152651268Y-68639566D01*
X152815675Y-68604620D01*
X152836423Y-68600210D01*
X153009350Y-68523217D01*
X153035982Y-68503868D01*
X153162490Y-68411955D01*
X153289153Y-68271282D01*
X153383799Y-68107350D01*
X153389042Y-68091215D01*
X153442294Y-67927322D01*
X153462080Y-67739066D01*
X153442294Y-67550810D01*
X153383799Y-67370782D01*
X153383799Y-67370781D01*
X153289153Y-67206849D01*
X153162490Y-67066176D01*
X153009350Y-66954914D01*
X152836422Y-66877921D01*
X152651268Y-66838566D01*
X152651266Y-66838566D01*
X152461974Y-66838566D01*
X152461972Y-66838566D01*
X152276817Y-66877921D01*
X152103890Y-66954914D01*
X152022291Y-67014198D01*
X151962367Y-67037200D01*
X151898971Y-67027158D01*
X151735409Y-66954335D01*
X151550255Y-66914980D01*
X151550253Y-66914980D01*
X151360961Y-66914980D01*
X151360959Y-66914980D01*
X151175804Y-66954335D01*
X151002878Y-67031327D01*
X150984363Y-67044779D01*
X150924440Y-67067779D01*
X150861045Y-67057737D01*
X150685546Y-66979599D01*
X150500392Y-66940244D01*
X150500390Y-66940244D01*
X150311098Y-66940244D01*
X150311096Y-66940244D01*
X150125943Y-66979598D01*
X149993087Y-67038750D01*
X149929691Y-67048791D01*
X149869768Y-67025789D01*
X149859701Y-67018475D01*
X149686773Y-66941482D01*
X149501619Y-66902127D01*
X149501617Y-66902127D01*
X149312325Y-66902127D01*
X149312323Y-66902127D01*
X149127170Y-66941481D01*
X149034869Y-66982577D01*
X148971473Y-66992618D01*
X148911549Y-66969615D01*
X148863703Y-66934853D01*
X148690775Y-66857859D01*
X148505621Y-66818504D01*
X148505619Y-66818504D01*
X148316327Y-66818504D01*
X148316325Y-66818504D01*
X148131170Y-66857859D01*
X147958242Y-66934852D01*
X147805102Y-67046114D01*
X147678439Y-67186787D01*
X147583793Y-67350719D01*
X147525299Y-67530746D01*
X147521932Y-67562783D01*
X147505513Y-67719004D01*
X147512618Y-67786610D01*
X147523752Y-67892539D01*
X147511881Y-67959858D01*
X147466141Y-68010658D01*
X147400431Y-68029500D01*
X147382592Y-68029500D01*
X147197437Y-68068855D01*
X147024512Y-68145846D01*
X146936401Y-68209863D01*
X146882913Y-68232017D01*
X146825198Y-68227475D01*
X146775835Y-68197225D01*
X146745585Y-68147862D01*
X146727179Y-68091215D01*
X146632533Y-67927283D01*
X146505870Y-67786610D01*
X146352730Y-67675348D01*
X146179802Y-67598355D01*
X145994648Y-67559000D01*
X145994646Y-67559000D01*
X145805354Y-67559000D01*
X145805352Y-67559000D01*
X145620197Y-67598355D01*
X145447269Y-67675348D01*
X145294129Y-67786610D01*
X145167466Y-67927283D01*
X145072820Y-68091215D01*
X145014326Y-68271242D01*
X145010927Y-68303587D01*
X144994540Y-68459500D01*
X143478409Y-68459500D01*
X143535674Y-68283256D01*
X143555460Y-68095000D01*
X143535674Y-67906744D01*
X143496640Y-67786610D01*
X143477179Y-67726715D01*
X143382533Y-67562783D01*
X143255870Y-67422110D01*
X143102730Y-67310848D01*
X142929802Y-67233855D01*
X142744648Y-67194500D01*
X142744646Y-67194500D01*
X142555354Y-67194500D01*
X142555352Y-67194500D01*
X142395280Y-67228524D01*
X142340552Y-67227808D01*
X142291463Y-67203600D01*
X142257578Y-67160617D01*
X142245499Y-67107234D01*
X142245499Y-66882130D01*
X142245047Y-66877921D01*
X142239091Y-66822517D01*
X142188796Y-66687669D01*
X142188795Y-66687667D01*
X142182565Y-66670964D01*
X142183289Y-66670693D01*
X142168686Y-66635379D01*
X142175367Y-66574267D01*
X142210578Y-66523874D01*
X142265662Y-66496587D01*
X142327504Y-66483443D01*
X142327505Y-66483442D01*
X142327507Y-66483442D01*
X142500431Y-66406450D01*
X142653571Y-66295188D01*
X142780234Y-66154515D01*
X142874880Y-65990583D01*
X142891478Y-65939500D01*
X142933375Y-65810555D01*
X142953161Y-65622299D01*
X142933375Y-65434043D01*
X142900636Y-65333284D01*
X142874880Y-65254014D01*
X142780234Y-65090082D01*
X142653571Y-64949409D01*
X142500431Y-64838147D01*
X142327503Y-64761154D01*
X142142349Y-64721799D01*
X142142347Y-64721799D01*
X141953055Y-64721799D01*
X141953053Y-64721799D01*
X141767898Y-64761154D01*
X141594970Y-64838147D01*
X141441830Y-64949409D01*
X141315167Y-65090082D01*
X141220521Y-65254014D01*
X141162027Y-65434041D01*
X141142572Y-65619151D01*
X141142241Y-65622299D01*
X141149398Y-65690399D01*
X141162027Y-65810556D01*
X141220521Y-65990583D01*
X141315167Y-66154515D01*
X141376407Y-66222528D01*
X141403689Y-66272154D01*
X141406061Y-66328735D01*
X141383027Y-66380470D01*
X141339392Y-66416568D01*
X141284257Y-66429500D01*
X140697130Y-66429500D01*
X140637515Y-66435909D01*
X140502669Y-66486204D01*
X140387454Y-66572454D01*
X140301204Y-66687668D01*
X140250909Y-66822515D01*
X140250909Y-66822517D01*
X140244953Y-66877921D01*
X140244500Y-66882130D01*
X140244500Y-67977869D01*
X140250909Y-68037484D01*
X140301204Y-68172332D01*
X140307232Y-68180384D01*
X140331607Y-68245292D01*
X140319360Y-68303474D01*
X140319731Y-68303587D01*
X140318442Y-68307834D01*
X140317326Y-68313139D01*
X140316186Y-68315270D01*
X140258976Y-68503866D01*
X140239659Y-68699999D01*
X128547593Y-68699999D01*
X128540670Y-68692310D01*
X128387530Y-68581048D01*
X128214602Y-68504055D01*
X128029448Y-68464700D01*
X128029446Y-68464700D01*
X127840154Y-68464700D01*
X127840152Y-68464700D01*
X127654997Y-68504055D01*
X127482069Y-68581048D01*
X127328929Y-68692310D01*
X127202266Y-68832983D01*
X127107620Y-68996915D01*
X127049126Y-69176942D01*
X127029340Y-69365200D01*
X122416073Y-69365200D01*
X122417179Y-69363284D01*
X122475674Y-69183256D01*
X122495460Y-68995000D01*
X122475674Y-68806744D01*
X122424016Y-68647757D01*
X122417179Y-68626715D01*
X122322533Y-68462783D01*
X122195870Y-68322110D01*
X122042730Y-68210848D01*
X121869802Y-68133855D01*
X121684648Y-68094500D01*
X121684646Y-68094500D01*
X121495354Y-68094500D01*
X121495352Y-68094500D01*
X121310197Y-68133855D01*
X121137269Y-68210848D01*
X120984129Y-68322110D01*
X120857466Y-68462783D01*
X120762820Y-68626715D01*
X120704326Y-68806742D01*
X120689107Y-68951544D01*
X120684540Y-68995000D01*
X109453732Y-68995000D01*
X109471360Y-65955000D01*
X126129659Y-65955000D01*
X126148976Y-66151133D01*
X126206185Y-66339726D01*
X126281163Y-66479999D01*
X126299090Y-66513538D01*
X126424117Y-66665883D01*
X126576462Y-66790910D01*
X126750273Y-66883814D01*
X126938868Y-66941024D01*
X127135000Y-66960341D01*
X127331132Y-66941024D01*
X127519727Y-66883814D01*
X127521853Y-66882677D01*
X127527140Y-66881564D01*
X127531414Y-66880268D01*
X127531527Y-66880640D01*
X127589704Y-66868392D01*
X127654617Y-66892768D01*
X127662669Y-66898796D01*
X127797517Y-66949091D01*
X127857127Y-66955500D01*
X128064785Y-66955499D01*
X128126780Y-66972109D01*
X128172167Y-67017490D01*
X128188785Y-67079483D01*
X128178415Y-67118205D01*
X128181848Y-67119321D01*
X128119326Y-67311742D01*
X128099540Y-67500000D01*
X128119326Y-67688257D01*
X128177820Y-67868284D01*
X128272466Y-68032216D01*
X128399129Y-68172889D01*
X128552269Y-68284151D01*
X128725197Y-68361144D01*
X128910352Y-68400500D01*
X128910354Y-68400500D01*
X129099646Y-68400500D01*
X129099648Y-68400500D01*
X129223083Y-68374262D01*
X129284803Y-68361144D01*
X129457730Y-68284151D01*
X129558622Y-68210849D01*
X129610870Y-68172889D01*
X129611373Y-68172331D01*
X129737533Y-68032216D01*
X129832179Y-67868284D01*
X129890674Y-67688256D01*
X129910460Y-67500000D01*
X129890674Y-67311744D01*
X129837864Y-67149211D01*
X129832179Y-67131715D01*
X129737533Y-66967783D01*
X129610870Y-66827111D01*
X129447187Y-66708189D01*
X129448652Y-66706172D01*
X129416505Y-66680685D01*
X129392617Y-66623780D01*
X129397469Y-66577973D01*
X129397426Y-66577969D01*
X129399091Y-66562483D01*
X129405500Y-66502873D01*
X129405500Y-66177950D01*
X137576589Y-66177950D01*
X137596375Y-66366208D01*
X137654869Y-66546235D01*
X137749515Y-66710167D01*
X137876178Y-66850840D01*
X138029318Y-66962102D01*
X138202246Y-67039095D01*
X138387401Y-67078451D01*
X138387403Y-67078451D01*
X138576695Y-67078451D01*
X138576697Y-67078451D01*
X138700133Y-67052213D01*
X138761852Y-67039095D01*
X138934779Y-66962102D01*
X138963160Y-66941482D01*
X139087919Y-66850840D01*
X139097680Y-66840000D01*
X139214582Y-66710167D01*
X139309228Y-66546235D01*
X139367723Y-66366207D01*
X139387509Y-66177951D01*
X139367723Y-65989695D01*
X139311908Y-65817915D01*
X139309522Y-65749598D01*
X139343702Y-65690399D01*
X139404059Y-65658307D01*
X139463204Y-65645735D01*
X139484803Y-65641144D01*
X139657730Y-65564151D01*
X139721856Y-65517561D01*
X139810870Y-65452889D01*
X139937533Y-65312216D01*
X140032179Y-65148284D01*
X140050450Y-65092051D01*
X140090674Y-64968256D01*
X140110460Y-64780000D01*
X140090674Y-64591744D01*
X140054521Y-64480478D01*
X140032179Y-64411715D01*
X139937533Y-64247783D01*
X139810870Y-64107110D01*
X139657730Y-63995848D01*
X139484802Y-63918855D01*
X139299648Y-63879500D01*
X139299646Y-63879500D01*
X139110354Y-63879500D01*
X139110352Y-63879500D01*
X138925197Y-63918855D01*
X138752269Y-63995848D01*
X138599129Y-64107110D01*
X138472466Y-64247783D01*
X138377820Y-64411715D01*
X138319326Y-64591742D01*
X138299540Y-64780000D01*
X138319326Y-64968257D01*
X138375140Y-65140035D01*
X138377526Y-65208351D01*
X138343347Y-65267551D01*
X138282991Y-65299643D01*
X138202245Y-65316806D01*
X138029318Y-65393799D01*
X137876178Y-65505061D01*
X137749515Y-65645734D01*
X137654869Y-65809666D01*
X137596375Y-65989693D01*
X137576589Y-66177950D01*
X129405500Y-66177950D01*
X129405499Y-65407128D01*
X129399091Y-65347517D01*
X129348796Y-65212669D01*
X129262546Y-65097454D01*
X129147331Y-65011204D01*
X129144103Y-65010000D01*
X135309540Y-65010000D01*
X135311575Y-65029358D01*
X135329326Y-65198257D01*
X135387820Y-65378284D01*
X135482466Y-65542216D01*
X135609129Y-65682889D01*
X135762269Y-65794151D01*
X135935197Y-65871144D01*
X136120352Y-65910500D01*
X136120354Y-65910500D01*
X136309646Y-65910500D01*
X136309648Y-65910500D01*
X136433084Y-65884262D01*
X136494803Y-65871144D01*
X136667730Y-65794151D01*
X136705907Y-65766414D01*
X136820870Y-65682889D01*
X136947533Y-65542216D01*
X137042179Y-65378284D01*
X137043246Y-65375000D01*
X137100674Y-65198256D01*
X137120460Y-65010000D01*
X137100674Y-64821744D01*
X137061761Y-64701982D01*
X137042179Y-64641715D01*
X136947533Y-64477783D01*
X136820870Y-64337110D01*
X136667730Y-64225848D01*
X136494802Y-64148855D01*
X136309648Y-64109500D01*
X136309646Y-64109500D01*
X136120354Y-64109500D01*
X136120352Y-64109500D01*
X135935197Y-64148855D01*
X135762269Y-64225848D01*
X135609129Y-64337110D01*
X135482466Y-64477783D01*
X135387820Y-64641715D01*
X135329326Y-64821742D01*
X135314100Y-64966610D01*
X135309540Y-65010000D01*
X129144103Y-65010000D01*
X129012483Y-64960909D01*
X128952873Y-64954500D01*
X128952869Y-64954500D01*
X127857130Y-64954500D01*
X127797515Y-64960909D01*
X127662667Y-65011204D01*
X127654613Y-65017234D01*
X127589702Y-65041608D01*
X127531527Y-65029358D01*
X127531414Y-65029732D01*
X127527137Y-65028434D01*
X127521853Y-65027322D01*
X127519731Y-65026188D01*
X127519730Y-65026187D01*
X127519727Y-65026186D01*
X127331132Y-64968976D01*
X127331129Y-64968975D01*
X127135000Y-64949659D01*
X126938866Y-64968976D01*
X126750273Y-65026185D01*
X126576463Y-65119089D01*
X126424117Y-65244117D01*
X126299089Y-65396463D01*
X126206185Y-65570273D01*
X126148976Y-65758866D01*
X126129659Y-65955000D01*
X109471360Y-65955000D01*
X109496555Y-61610000D01*
X123214540Y-61610000D01*
X123220321Y-61665000D01*
X123234326Y-61798257D01*
X123292820Y-61978284D01*
X123387466Y-62142216D01*
X123514129Y-62282889D01*
X123667269Y-62394151D01*
X123840197Y-62471144D01*
X124025352Y-62510500D01*
X124025354Y-62510500D01*
X124214646Y-62510500D01*
X124214648Y-62510500D01*
X124347482Y-62482265D01*
X124399803Y-62471144D01*
X124572730Y-62394151D01*
X124606985Y-62369262D01*
X124659189Y-62347318D01*
X124715708Y-62350873D01*
X124764753Y-62379188D01*
X124796093Y-62426357D01*
X124803191Y-62482542D01*
X124784540Y-62659999D01*
X124804326Y-62848257D01*
X124862820Y-63028284D01*
X124957466Y-63192216D01*
X125084129Y-63332889D01*
X125237269Y-63444151D01*
X125410197Y-63521144D01*
X125595352Y-63560500D01*
X125595354Y-63560500D01*
X125784646Y-63560500D01*
X125784648Y-63560500D01*
X125982551Y-63518435D01*
X125982665Y-63518972D01*
X126026154Y-63510946D01*
X126081815Y-63527580D01*
X126123792Y-63567740D01*
X126142871Y-63622612D01*
X126158976Y-63786133D01*
X126216185Y-63974726D01*
X126288224Y-64109500D01*
X126309090Y-64148538D01*
X126434117Y-64300883D01*
X126586462Y-64425910D01*
X126760273Y-64518814D01*
X126948868Y-64576024D01*
X127145000Y-64595341D01*
X127341132Y-64576024D01*
X127529727Y-64518814D01*
X127531853Y-64517677D01*
X127537140Y-64516564D01*
X127541414Y-64515268D01*
X127541527Y-64515640D01*
X127599704Y-64503392D01*
X127664617Y-64527768D01*
X127672669Y-64533796D01*
X127807517Y-64584091D01*
X127867127Y-64590500D01*
X128962872Y-64590499D01*
X129022483Y-64584091D01*
X129157331Y-64533796D01*
X129272546Y-64447546D01*
X129358796Y-64332331D01*
X129409091Y-64197483D01*
X129415500Y-64137873D01*
X129415499Y-63310000D01*
X144654540Y-63310000D01*
X144674326Y-63498257D01*
X144732820Y-63678284D01*
X144827466Y-63842216D01*
X144946780Y-63974726D01*
X144954129Y-63982888D01*
X144978757Y-64000781D01*
X144991333Y-64009918D01*
X145028933Y-64053941D01*
X145042449Y-64110236D01*
X145028934Y-64166531D01*
X144991335Y-64210554D01*
X144963326Y-64230903D01*
X144836662Y-64371577D01*
X144742016Y-64535509D01*
X144683522Y-64715536D01*
X144663736Y-64903794D01*
X144683522Y-65092051D01*
X144742016Y-65272078D01*
X144836662Y-65436010D01*
X144963325Y-65576683D01*
X145116463Y-65687944D01*
X145189011Y-65720244D01*
X145244552Y-65744973D01*
X145294434Y-65785367D01*
X145317437Y-65845289D01*
X145319325Y-65863253D01*
X145377820Y-66043284D01*
X145472466Y-66207216D01*
X145599129Y-66347889D01*
X145752269Y-66459151D01*
X145925197Y-66536144D01*
X146110352Y-66575500D01*
X146110354Y-66575500D01*
X146299646Y-66575500D01*
X146299648Y-66575500D01*
X146457252Y-66542000D01*
X146484803Y-66536144D01*
X146657730Y-66459151D01*
X146756546Y-66387356D01*
X146803648Y-66366385D01*
X146855211Y-66366385D01*
X146902314Y-66387356D01*
X146925653Y-66404312D01*
X146952272Y-66423653D01*
X147125197Y-66500644D01*
X147310352Y-66540000D01*
X147310354Y-66540000D01*
X147499646Y-66540000D01*
X147499648Y-66540000D01*
X147624150Y-66513536D01*
X147684803Y-66500644D01*
X147857730Y-66423651D01*
X147907685Y-66387357D01*
X148010870Y-66312389D01*
X148052183Y-66266507D01*
X148137533Y-66171716D01*
X148232179Y-66007784D01*
X148290674Y-65827756D01*
X148310460Y-65639500D01*
X148290674Y-65451244D01*
X148232179Y-65271216D01*
X148232179Y-65271215D01*
X148137533Y-65107283D01*
X148010870Y-64966610D01*
X147857730Y-64855348D01*
X147684802Y-64778355D01*
X147499648Y-64739000D01*
X147499646Y-64739000D01*
X147310354Y-64739000D01*
X147310352Y-64739000D01*
X147125197Y-64778355D01*
X146952269Y-64855348D01*
X146853452Y-64927142D01*
X146806348Y-64948113D01*
X146754786Y-64948113D01*
X146707683Y-64927141D01*
X146657730Y-64890848D01*
X146529643Y-64833819D01*
X146479760Y-64793424D01*
X146456758Y-64733500D01*
X146454870Y-64715536D01*
X146419870Y-64607818D01*
X146415328Y-64550102D01*
X146437483Y-64496615D01*
X146481506Y-64459015D01*
X146537801Y-64445500D01*
X146674648Y-64445500D01*
X146809002Y-64416942D01*
X146859803Y-64406144D01*
X147032730Y-64329151D01*
X147083713Y-64292110D01*
X147185870Y-64217889D01*
X147192475Y-64210554D01*
X147312533Y-64077216D01*
X147407179Y-63913284D01*
X147465674Y-63733256D01*
X147485460Y-63545000D01*
X147465674Y-63356744D01*
X147421418Y-63220539D01*
X147407179Y-63176715D01*
X147312533Y-63012783D01*
X147185870Y-62872110D01*
X147032730Y-62760848D01*
X146859802Y-62683855D01*
X146674648Y-62644500D01*
X146674646Y-62644500D01*
X146485354Y-62644500D01*
X146436482Y-62654888D01*
X146292802Y-62685427D01*
X146228704Y-62682067D01*
X146174873Y-62647109D01*
X146165870Y-62637111D01*
X146012730Y-62525848D01*
X145839802Y-62448855D01*
X145654648Y-62409500D01*
X145654646Y-62409500D01*
X145465354Y-62409500D01*
X145465352Y-62409500D01*
X145280197Y-62448855D01*
X145107269Y-62525848D01*
X144954129Y-62637110D01*
X144827466Y-62777783D01*
X144732820Y-62941715D01*
X144674326Y-63121742D01*
X144654540Y-63310000D01*
X129415499Y-63310000D01*
X129415499Y-63100530D01*
X129433772Y-63035741D01*
X129483204Y-62990046D01*
X129549228Y-62976913D01*
X129612384Y-63000212D01*
X129707270Y-63069151D01*
X129707271Y-63069151D01*
X129707272Y-63069152D01*
X129880197Y-63146144D01*
X130065352Y-63185500D01*
X130065354Y-63185500D01*
X130254646Y-63185500D01*
X130254648Y-63185500D01*
X130383389Y-63158135D01*
X130439803Y-63146144D01*
X130612730Y-63069151D01*
X130669660Y-63027789D01*
X130765870Y-62957889D01*
X130778560Y-62943796D01*
X130892533Y-62817216D01*
X130987179Y-62653284D01*
X131045674Y-62473256D01*
X131065460Y-62285000D01*
X131060730Y-62240000D01*
X137659540Y-62240000D01*
X137664270Y-62285000D01*
X137679326Y-62428257D01*
X137737820Y-62608284D01*
X137832466Y-62772216D01*
X137959129Y-62912889D01*
X138112269Y-63024151D01*
X138285197Y-63101144D01*
X138470352Y-63140500D01*
X138470354Y-63140500D01*
X138659646Y-63140500D01*
X138659648Y-63140500D01*
X138783083Y-63114262D01*
X138844803Y-63101144D01*
X139017730Y-63024151D01*
X139131194Y-62941715D01*
X139170870Y-62912889D01*
X139297533Y-62772216D01*
X139392179Y-62608284D01*
X139413060Y-62544018D01*
X139450674Y-62428256D01*
X139470460Y-62240000D01*
X139450674Y-62051744D01*
X139407583Y-61919125D01*
X139392179Y-61871715D01*
X139297533Y-61707783D01*
X139170870Y-61567110D01*
X139020280Y-61457701D01*
X146516839Y-61457701D01*
X146536625Y-61645958D01*
X146595119Y-61825985D01*
X146689765Y-61989917D01*
X146816428Y-62130590D01*
X146969568Y-62241852D01*
X147142496Y-62318845D01*
X147327651Y-62358201D01*
X147327653Y-62358201D01*
X147516945Y-62358201D01*
X147516947Y-62358201D01*
X147640382Y-62331963D01*
X147702102Y-62318845D01*
X147875029Y-62241852D01*
X147880478Y-62237893D01*
X148028169Y-62130590D01*
X148030697Y-62127783D01*
X148154832Y-61989917D01*
X148249478Y-61825985D01*
X148307973Y-61645957D01*
X148327759Y-61457701D01*
X148318918Y-61373585D01*
X148843390Y-61373585D01*
X148852036Y-61455848D01*
X148863176Y-61561842D01*
X148921670Y-61741869D01*
X149016316Y-61905801D01*
X149142979Y-62046474D01*
X149296119Y-62157736D01*
X149469047Y-62234729D01*
X149644892Y-62272106D01*
X149697146Y-62297030D01*
X149732390Y-62342960D01*
X149742941Y-62399885D01*
X149726498Y-62455396D01*
X149642090Y-62601594D01*
X149583596Y-62781621D01*
X149563810Y-62969879D01*
X149583596Y-63158136D01*
X149642090Y-63338163D01*
X149736736Y-63502095D01*
X149863399Y-63642768D01*
X150016539Y-63754030D01*
X150189467Y-63831023D01*
X150374622Y-63870379D01*
X150374624Y-63870379D01*
X150563916Y-63870379D01*
X150563918Y-63870379D01*
X150689173Y-63843755D01*
X150749073Y-63831023D01*
X150922000Y-63754030D01*
X150947024Y-63735849D01*
X151075140Y-63642768D01*
X151138061Y-63572888D01*
X151201803Y-63502095D01*
X151296449Y-63338163D01*
X151334668Y-63220537D01*
X151369626Y-63166707D01*
X151426813Y-63137568D01*
X151572871Y-63106523D01*
X151745798Y-63029530D01*
X151810506Y-62982517D01*
X151898938Y-62918268D01*
X151946137Y-62865849D01*
X152025601Y-62777595D01*
X152120247Y-62613663D01*
X152124168Y-62601595D01*
X152178742Y-62433636D01*
X152181014Y-62412016D01*
X152206621Y-62348634D01*
X152261924Y-62308453D01*
X152330115Y-62303685D01*
X152351752Y-62308284D01*
X152426649Y-62324204D01*
X152426650Y-62324204D01*
X152615942Y-62324204D01*
X152615944Y-62324204D01*
X152777719Y-62289818D01*
X152835593Y-62291333D01*
X152886472Y-62318957D01*
X152919263Y-62366669D01*
X152924911Y-62409565D01*
X152925629Y-62409490D01*
X152926991Y-62422450D01*
X152926991Y-62422451D01*
X152928167Y-62433636D01*
X152946777Y-62610708D01*
X153005271Y-62790735D01*
X153035943Y-62843860D01*
X153051877Y-62892898D01*
X153046487Y-62944177D01*
X153020707Y-62988831D01*
X152973595Y-63041154D01*
X152878949Y-63205086D01*
X152820455Y-63385113D01*
X152800669Y-63573371D01*
X152820455Y-63761628D01*
X152847140Y-63843755D01*
X152849933Y-63910389D01*
X152817803Y-63968831D01*
X152760046Y-64002177D01*
X152693369Y-64000781D01*
X152637059Y-63965045D01*
X152530870Y-63847110D01*
X152377730Y-63735848D01*
X152204802Y-63658855D01*
X152019648Y-63619500D01*
X152019646Y-63619500D01*
X151830354Y-63619500D01*
X151830352Y-63619500D01*
X151645197Y-63658855D01*
X151472269Y-63735848D01*
X151319129Y-63847110D01*
X151192466Y-63987783D01*
X151097820Y-64151715D01*
X151039326Y-64331742D01*
X151019540Y-64520000D01*
X151039326Y-64708257D01*
X151097820Y-64888284D01*
X151192466Y-65052215D01*
X151217988Y-65080560D01*
X151243769Y-65125213D01*
X151249160Y-65176491D01*
X151233228Y-65225529D01*
X151222093Y-65244815D01*
X151163598Y-65424845D01*
X151147727Y-65575849D01*
X151143812Y-65613103D01*
X151144779Y-65622299D01*
X151163598Y-65801360D01*
X151222092Y-65981387D01*
X151316738Y-66145319D01*
X151443401Y-66285992D01*
X151596541Y-66397254D01*
X151769469Y-66474247D01*
X151954624Y-66513603D01*
X151954626Y-66513603D01*
X152143918Y-66513603D01*
X152143920Y-66513603D01*
X152272821Y-66486204D01*
X152329075Y-66474247D01*
X152502002Y-66397254D01*
X152553278Y-66360000D01*
X156189540Y-66360000D01*
X156209326Y-66548257D01*
X156267820Y-66728284D01*
X156362466Y-66892216D01*
X156489129Y-67032889D01*
X156642269Y-67144151D01*
X156815197Y-67221144D01*
X157000352Y-67260500D01*
X157000354Y-67260500D01*
X157189646Y-67260500D01*
X157189647Y-67260500D01*
X157290406Y-67239083D01*
X157347024Y-67240269D01*
X157397211Y-67266505D01*
X157430498Y-67312321D01*
X157439942Y-67368159D01*
X157423574Y-67422373D01*
X157341183Y-67565078D01*
X157282689Y-67745105D01*
X157262903Y-67933363D01*
X157282689Y-68121620D01*
X157341183Y-68301647D01*
X157435829Y-68465579D01*
X157562492Y-68606252D01*
X157715632Y-68717514D01*
X157888560Y-68794507D01*
X158073715Y-68833863D01*
X158073717Y-68833863D01*
X158263009Y-68833863D01*
X158263011Y-68833863D01*
X158392514Y-68806336D01*
X158448166Y-68794507D01*
X158621093Y-68717514D01*
X158655781Y-68692312D01*
X158774233Y-68606252D01*
X158775703Y-68604620D01*
X158887911Y-68480000D01*
X159904540Y-68480000D01*
X159924326Y-68668257D01*
X159982820Y-68848284D01*
X160077466Y-69012216D01*
X160204129Y-69152889D01*
X160357269Y-69264151D01*
X160530197Y-69341144D01*
X160715352Y-69380500D01*
X160715354Y-69380500D01*
X160904646Y-69380500D01*
X160904648Y-69380500D01*
X161028083Y-69354262D01*
X161089803Y-69341144D01*
X161262730Y-69264151D01*
X161270458Y-69258536D01*
X161415870Y-69152889D01*
X161477245Y-69084726D01*
X161542533Y-69012216D01*
X161637179Y-68848284D01*
X161695674Y-68668256D01*
X161715460Y-68480000D01*
X161695674Y-68291744D01*
X161659491Y-68180384D01*
X161637179Y-68111715D01*
X161542533Y-67947783D01*
X161415870Y-67807110D01*
X161262730Y-67695848D01*
X161089802Y-67618855D01*
X160904648Y-67579500D01*
X160904646Y-67579500D01*
X160715354Y-67579500D01*
X160715352Y-67579500D01*
X160530197Y-67618855D01*
X160357269Y-67695848D01*
X160204129Y-67807110D01*
X160077466Y-67947783D01*
X159982820Y-68111715D01*
X159924326Y-68291742D01*
X159904540Y-68480000D01*
X158887911Y-68480000D01*
X158900896Y-68465579D01*
X158995542Y-68301647D01*
X159054037Y-68121619D01*
X159073823Y-67933363D01*
X159054037Y-67745107D01*
X159007240Y-67601081D01*
X158995542Y-67565078D01*
X158900896Y-67401146D01*
X158774233Y-67260473D01*
X158621093Y-67149211D01*
X158448165Y-67072218D01*
X158263011Y-67032863D01*
X158263009Y-67032863D01*
X158073717Y-67032863D01*
X158024307Y-67043365D01*
X157972955Y-67054280D01*
X157916336Y-67053093D01*
X157866150Y-67026856D01*
X157832864Y-66981040D01*
X157823420Y-66925202D01*
X157839788Y-66870989D01*
X157841288Y-66868392D01*
X157922179Y-66728284D01*
X157980674Y-66548256D01*
X158000460Y-66360000D01*
X157980674Y-66171744D01*
X157922179Y-65991716D01*
X157922179Y-65991715D01*
X157892033Y-65939500D01*
X163934540Y-65939500D01*
X163954326Y-66127757D01*
X164012820Y-66307784D01*
X164107466Y-66471716D01*
X164234129Y-66612389D01*
X164387269Y-66723651D01*
X164560197Y-66800644D01*
X164745352Y-66840000D01*
X164745354Y-66840000D01*
X164934646Y-66840000D01*
X164934648Y-66840000D01*
X165058084Y-66813762D01*
X165119803Y-66800644D01*
X165292730Y-66723651D01*
X165372243Y-66665882D01*
X165445870Y-66612389D01*
X165526538Y-66522799D01*
X165572533Y-66471716D01*
X165667179Y-66307784D01*
X165725674Y-66127756D01*
X165745460Y-65939500D01*
X165725674Y-65751244D01*
X165677338Y-65602482D01*
X165667179Y-65571215D01*
X165572533Y-65407283D01*
X165445870Y-65266610D01*
X165292730Y-65155348D01*
X165119802Y-65078355D01*
X164934648Y-65039000D01*
X164934646Y-65039000D01*
X164745354Y-65039000D01*
X164745352Y-65039000D01*
X164560197Y-65078355D01*
X164387269Y-65155348D01*
X164234129Y-65266610D01*
X164107466Y-65407283D01*
X164012820Y-65571215D01*
X163954326Y-65751242D01*
X163934540Y-65939500D01*
X157892033Y-65939500D01*
X157827533Y-65827783D01*
X157700870Y-65687110D01*
X157547730Y-65575848D01*
X157374802Y-65498855D01*
X157189648Y-65459500D01*
X157189646Y-65459500D01*
X157000354Y-65459500D01*
X157000352Y-65459500D01*
X156815197Y-65498855D01*
X156642269Y-65575848D01*
X156489129Y-65687110D01*
X156362466Y-65827783D01*
X156267820Y-65991715D01*
X156209326Y-66171742D01*
X156189540Y-66360000D01*
X152553278Y-66360000D01*
X152655143Y-66285991D01*
X152658573Y-66282181D01*
X152712405Y-66247221D01*
X152776503Y-66243861D01*
X152925354Y-66275500D01*
X153114646Y-66275500D01*
X153114648Y-66275500D01*
X153263497Y-66243861D01*
X153299803Y-66236144D01*
X153472730Y-66159151D01*
X153625871Y-66047888D01*
X153752533Y-65907216D01*
X153847179Y-65743284D01*
X153905674Y-65563256D01*
X153925460Y-65375000D01*
X153905674Y-65186744D01*
X153861963Y-65052215D01*
X153847179Y-65006715D01*
X153752533Y-64842783D01*
X153625871Y-64702112D01*
X153620473Y-64698190D01*
X153581159Y-64650669D01*
X153569602Y-64590086D01*
X153588660Y-64531429D01*
X153633619Y-64489209D01*
X153693357Y-64473871D01*
X153800777Y-64473871D01*
X153934251Y-64445500D01*
X153985932Y-64434515D01*
X154158859Y-64357522D01*
X154194342Y-64331742D01*
X154311999Y-64246260D01*
X154337545Y-64217889D01*
X154438662Y-64105587D01*
X154477857Y-64037700D01*
X156317241Y-64037700D01*
X156337027Y-64225958D01*
X156395521Y-64405985D01*
X156490167Y-64569917D01*
X156616830Y-64710590D01*
X156769970Y-64821852D01*
X156942898Y-64898845D01*
X157128053Y-64938201D01*
X157128055Y-64938201D01*
X157317347Y-64938201D01*
X157317349Y-64938201D01*
X157440784Y-64911963D01*
X157502504Y-64898845D01*
X157675431Y-64821852D01*
X157785041Y-64742216D01*
X157828571Y-64710590D01*
X157879829Y-64653663D01*
X157941653Y-64585000D01*
X161010720Y-64585000D01*
X161030506Y-64773257D01*
X161089000Y-64953284D01*
X161183646Y-65117216D01*
X161310309Y-65257889D01*
X161463449Y-65369151D01*
X161636377Y-65446144D01*
X161821532Y-65485500D01*
X161821534Y-65485500D01*
X162010826Y-65485500D01*
X162010828Y-65485500D01*
X162164250Y-65452889D01*
X162195983Y-65446144D01*
X162368910Y-65369151D01*
X162508751Y-65267551D01*
X162522050Y-65257889D01*
X162548518Y-65228494D01*
X162648713Y-65117216D01*
X162743359Y-64953284D01*
X162801854Y-64773256D01*
X162821640Y-64585000D01*
X162801854Y-64396744D01*
X162753454Y-64247784D01*
X162743359Y-64216715D01*
X162739482Y-64210000D01*
X169534540Y-64210000D01*
X169554326Y-64398257D01*
X169612820Y-64578284D01*
X169707466Y-64742216D01*
X169834129Y-64882889D01*
X169987269Y-64994151D01*
X170160197Y-65071144D01*
X170345352Y-65110500D01*
X170345354Y-65110500D01*
X170534646Y-65110500D01*
X170534648Y-65110500D01*
X170675504Y-65080560D01*
X170719803Y-65071144D01*
X170892730Y-64994151D01*
X170932853Y-64965000D01*
X173084540Y-64965000D01*
X173089270Y-65010000D01*
X173104326Y-65153257D01*
X173162820Y-65333284D01*
X173257466Y-65497216D01*
X173384129Y-65637889D01*
X173537269Y-65749151D01*
X173710197Y-65826144D01*
X173895352Y-65865500D01*
X173895354Y-65865500D01*
X174084646Y-65865500D01*
X174084648Y-65865500D01*
X174208083Y-65839262D01*
X174269803Y-65826144D01*
X174442730Y-65749151D01*
X174528120Y-65687112D01*
X174595870Y-65637889D01*
X174618188Y-65613103D01*
X174722533Y-65497216D01*
X174817179Y-65333284D01*
X174849374Y-65234198D01*
X181374540Y-65234198D01*
X181394326Y-65422455D01*
X181452820Y-65602482D01*
X181547466Y-65766414D01*
X181674129Y-65907087D01*
X181827269Y-66018349D01*
X182000197Y-66095342D01*
X182185352Y-66134698D01*
X182185354Y-66134698D01*
X182374646Y-66134698D01*
X182374648Y-66134698D01*
X182498084Y-66108460D01*
X182559803Y-66095342D01*
X182732730Y-66018349D01*
X182885871Y-65907086D01*
X183012533Y-65766414D01*
X183107179Y-65602482D01*
X183165674Y-65422454D01*
X183185460Y-65234198D01*
X183165674Y-65045942D01*
X183115281Y-64890848D01*
X183107179Y-64865913D01*
X183089331Y-64835000D01*
X183464540Y-64835000D01*
X183469573Y-64882888D01*
X183484326Y-65023257D01*
X183542820Y-65203284D01*
X183637466Y-65367216D01*
X183764129Y-65507889D01*
X183917269Y-65619151D01*
X184090197Y-65696144D01*
X184275352Y-65735500D01*
X184275354Y-65735500D01*
X184464646Y-65735500D01*
X184464648Y-65735500D01*
X184588084Y-65709262D01*
X184649803Y-65696144D01*
X184822730Y-65619151D01*
X184845673Y-65602482D01*
X184975870Y-65507889D01*
X185042362Y-65434043D01*
X185102533Y-65367216D01*
X185197179Y-65203284D01*
X185255674Y-65023256D01*
X185275460Y-64835000D01*
X185255674Y-64646744D01*
X185218206Y-64531429D01*
X185197179Y-64466715D01*
X185102533Y-64302783D01*
X184975870Y-64162110D01*
X184822730Y-64050848D01*
X184649802Y-63973855D01*
X184464648Y-63934500D01*
X184464646Y-63934500D01*
X184275354Y-63934500D01*
X184275352Y-63934500D01*
X184090197Y-63973855D01*
X183917269Y-64050848D01*
X183764129Y-64162110D01*
X183637466Y-64302783D01*
X183542820Y-64466715D01*
X183484326Y-64646742D01*
X183468910Y-64793424D01*
X183464540Y-64835000D01*
X183089331Y-64835000D01*
X183012533Y-64701981D01*
X182885870Y-64561308D01*
X182732730Y-64450046D01*
X182559802Y-64373053D01*
X182374648Y-64333698D01*
X182374646Y-64333698D01*
X182185354Y-64333698D01*
X182185352Y-64333698D01*
X182000197Y-64373053D01*
X181827269Y-64450046D01*
X181674129Y-64561308D01*
X181547466Y-64701981D01*
X181452820Y-64865913D01*
X181394326Y-65045940D01*
X181374540Y-65234198D01*
X174849374Y-65234198D01*
X174875674Y-65153256D01*
X174895460Y-64965000D01*
X174875674Y-64776744D01*
X174835682Y-64653662D01*
X174817179Y-64596715D01*
X174722533Y-64432783D01*
X174595870Y-64292110D01*
X174442730Y-64180848D01*
X174269802Y-64103855D01*
X174084648Y-64064500D01*
X174084646Y-64064500D01*
X173895354Y-64064500D01*
X173895352Y-64064500D01*
X173710197Y-64103855D01*
X173537269Y-64180848D01*
X173384129Y-64292110D01*
X173257466Y-64432783D01*
X173162820Y-64596715D01*
X173104326Y-64776742D01*
X173085643Y-64954501D01*
X173084540Y-64965000D01*
X170932853Y-64965000D01*
X171045870Y-64882889D01*
X171061155Y-64865914D01*
X171172533Y-64742216D01*
X171267179Y-64578284D01*
X171325674Y-64398256D01*
X171345460Y-64210000D01*
X171325674Y-64021744D01*
X171278751Y-63877331D01*
X171267179Y-63841715D01*
X171172533Y-63677783D01*
X171045870Y-63537110D01*
X170892730Y-63425848D01*
X170719802Y-63348855D01*
X170534648Y-63309500D01*
X170534646Y-63309500D01*
X170345354Y-63309500D01*
X170345352Y-63309500D01*
X170160197Y-63348855D01*
X169987269Y-63425848D01*
X169834129Y-63537110D01*
X169707466Y-63677783D01*
X169612820Y-63841715D01*
X169554326Y-64021742D01*
X169534540Y-64210000D01*
X162739482Y-64210000D01*
X162648713Y-64052783D01*
X162522050Y-63912110D01*
X162368910Y-63800848D01*
X162195982Y-63723855D01*
X162010828Y-63684500D01*
X162010826Y-63684500D01*
X161821534Y-63684500D01*
X161821532Y-63684500D01*
X161636377Y-63723855D01*
X161463449Y-63800848D01*
X161310309Y-63912110D01*
X161183646Y-64052783D01*
X161089000Y-64216715D01*
X161030506Y-64396742D01*
X161010720Y-64585000D01*
X157941653Y-64585000D01*
X157955234Y-64569917D01*
X158049880Y-64405985D01*
X158108375Y-64225957D01*
X158128161Y-64037701D01*
X158108375Y-63849445D01*
X158061852Y-63706265D01*
X158058494Y-63642167D01*
X158087634Y-63584976D01*
X158194811Y-63465945D01*
X158289457Y-63302013D01*
X158343723Y-63135000D01*
X165149659Y-63135000D01*
X165151938Y-63158135D01*
X165168976Y-63331133D01*
X165226185Y-63519726D01*
X165300552Y-63658856D01*
X165319090Y-63693538D01*
X165444117Y-63845883D01*
X165596462Y-63970910D01*
X165770273Y-64063814D01*
X165958868Y-64121024D01*
X166155000Y-64140341D01*
X166351132Y-64121024D01*
X166539727Y-64063814D01*
X166541853Y-64062677D01*
X166547140Y-64061564D01*
X166551414Y-64060268D01*
X166551527Y-64060640D01*
X166609704Y-64048392D01*
X166674617Y-64072768D01*
X166682669Y-64078796D01*
X166817517Y-64129091D01*
X166877127Y-64135500D01*
X167972872Y-64135499D01*
X168032483Y-64129091D01*
X168167331Y-64078796D01*
X168282546Y-63992546D01*
X168368796Y-63877331D01*
X168419091Y-63742483D01*
X168425500Y-63682873D01*
X168425499Y-62587128D01*
X168419091Y-62527517D01*
X168368796Y-62392669D01*
X168282546Y-62277454D01*
X168167331Y-62191204D01*
X168032483Y-62140909D01*
X167972873Y-62134500D01*
X167972869Y-62134500D01*
X166877130Y-62134500D01*
X166817515Y-62140909D01*
X166682667Y-62191204D01*
X166674613Y-62197234D01*
X166609702Y-62221608D01*
X166551527Y-62209358D01*
X166551414Y-62209732D01*
X166547137Y-62208434D01*
X166541853Y-62207322D01*
X166539731Y-62206188D01*
X166539730Y-62206187D01*
X166539727Y-62206186D01*
X166351132Y-62148976D01*
X166351129Y-62148975D01*
X166155000Y-62129659D01*
X165958866Y-62148976D01*
X165770273Y-62206185D01*
X165596463Y-62299089D01*
X165444117Y-62424117D01*
X165319089Y-62576463D01*
X165226185Y-62750273D01*
X165168976Y-62938866D01*
X165150941Y-63121985D01*
X165149659Y-63135000D01*
X158343723Y-63135000D01*
X158347952Y-63121985D01*
X158367738Y-62933729D01*
X158347952Y-62745473D01*
X158325576Y-62676608D01*
X158309725Y-62627822D01*
X158305183Y-62570106D01*
X158327338Y-62516618D01*
X158371361Y-62479019D01*
X158427656Y-62465504D01*
X158527181Y-62465504D01*
X158677112Y-62433635D01*
X158712336Y-62426148D01*
X158885263Y-62349155D01*
X158947847Y-62303685D01*
X159038403Y-62237893D01*
X159165066Y-62097220D01*
X159259712Y-61933288D01*
X159268643Y-61905801D01*
X159318207Y-61753260D01*
X159327483Y-61665000D01*
X175659540Y-61665000D01*
X175668428Y-61749563D01*
X175679326Y-61853257D01*
X175737820Y-62033284D01*
X175832466Y-62197216D01*
X175850466Y-62217207D01*
X175876246Y-62261860D01*
X175881636Y-62313139D01*
X175865703Y-62362177D01*
X175767820Y-62531716D01*
X175709326Y-62711742D01*
X175689540Y-62900000D01*
X175709326Y-63088257D01*
X175767820Y-63268284D01*
X175862466Y-63432216D01*
X175989129Y-63572889D01*
X176142269Y-63684151D01*
X176315197Y-63761144D01*
X176500352Y-63800500D01*
X176500354Y-63800500D01*
X176689646Y-63800500D01*
X176689648Y-63800500D01*
X176813084Y-63774262D01*
X176874803Y-63761144D01*
X177047730Y-63684151D01*
X177094735Y-63650000D01*
X177094736Y-63649999D01*
X178084540Y-63649999D01*
X178104326Y-63838257D01*
X178162820Y-64018284D01*
X178257466Y-64182216D01*
X178384129Y-64322889D01*
X178537269Y-64434151D01*
X178710197Y-64511144D01*
X178895352Y-64550500D01*
X178895354Y-64550500D01*
X179084646Y-64550500D01*
X179084648Y-64550500D01*
X179233718Y-64518814D01*
X179269803Y-64511144D01*
X179442730Y-64434151D01*
X179454765Y-64425407D01*
X179595870Y-64322889D01*
X179722533Y-64182216D01*
X179817179Y-64018284D01*
X179819897Y-64009918D01*
X179875674Y-63838256D01*
X179895460Y-63650000D01*
X179875674Y-63461744D01*
X179817179Y-63281716D01*
X179817179Y-63281715D01*
X179722533Y-63117783D01*
X179595870Y-62977110D01*
X179442730Y-62865848D01*
X179269802Y-62788855D01*
X179084648Y-62749500D01*
X179084646Y-62749500D01*
X178895354Y-62749500D01*
X178895352Y-62749500D01*
X178710197Y-62788855D01*
X178537269Y-62865848D01*
X178384129Y-62977110D01*
X178257466Y-63117783D01*
X178162820Y-63281715D01*
X178104326Y-63461742D01*
X178084540Y-63649999D01*
X177094736Y-63649999D01*
X177200870Y-63572889D01*
X177225982Y-63545000D01*
X177327533Y-63432216D01*
X177422179Y-63268284D01*
X177480674Y-63088256D01*
X177500460Y-62900000D01*
X177480674Y-62711744D01*
X177433138Y-62565445D01*
X177422179Y-62531715D01*
X177327533Y-62367784D01*
X177309534Y-62347794D01*
X177283752Y-62303140D01*
X177278362Y-62251860D01*
X177294296Y-62202820D01*
X177297528Y-62197220D01*
X177297533Y-62197216D01*
X177392179Y-62033284D01*
X177450674Y-61853256D01*
X177470460Y-61665000D01*
X177450674Y-61476744D01*
X177418183Y-61376748D01*
X177407868Y-61345000D01*
X178694540Y-61345000D01*
X178714326Y-61533257D01*
X178772820Y-61713284D01*
X178867466Y-61877216D01*
X178994129Y-62017889D01*
X179147269Y-62129151D01*
X179320197Y-62206144D01*
X179505352Y-62245500D01*
X179505354Y-62245500D01*
X179694646Y-62245500D01*
X179694648Y-62245500D01*
X179818083Y-62219262D01*
X179879803Y-62206144D01*
X180052730Y-62129151D01*
X180054613Y-62127783D01*
X180205870Y-62017889D01*
X180320812Y-61890234D01*
X180332533Y-61877216D01*
X180427179Y-61713284D01*
X180485674Y-61533256D01*
X180505460Y-61345000D01*
X180485674Y-61156744D01*
X180445398Y-61032787D01*
X180427179Y-60976715D01*
X180332533Y-60812784D01*
X180310203Y-60787984D01*
X180280392Y-60727409D01*
X180286734Y-60660194D01*
X180327351Y-60606264D01*
X180390200Y-60581608D01*
X180396132Y-60581024D01*
X180584727Y-60523814D01*
X180758538Y-60430910D01*
X180910883Y-60305883D01*
X181035910Y-60153538D01*
X181128814Y-59979727D01*
X181186024Y-59791132D01*
X181205341Y-59595000D01*
X181699659Y-59595000D01*
X181718976Y-59791133D01*
X181776185Y-59979726D01*
X181776186Y-59979727D01*
X181869090Y-60153538D01*
X181994117Y-60305883D01*
X182146462Y-60430910D01*
X182320273Y-60523814D01*
X182508868Y-60581024D01*
X182705000Y-60600341D01*
X182901132Y-60581024D01*
X183089727Y-60523814D01*
X183263538Y-60430910D01*
X183415883Y-60305883D01*
X183540910Y-60153538D01*
X183633814Y-59979727D01*
X183691024Y-59791132D01*
X183710341Y-59595000D01*
X184229659Y-59595000D01*
X184248976Y-59791133D01*
X184306185Y-59979726D01*
X184306186Y-59979727D01*
X184399090Y-60153538D01*
X184524117Y-60305883D01*
X184676462Y-60430910D01*
X184850273Y-60523814D01*
X185038868Y-60581024D01*
X185235000Y-60600341D01*
X185431132Y-60581024D01*
X185619727Y-60523814D01*
X185793538Y-60430910D01*
X185945883Y-60305883D01*
X186070910Y-60153538D01*
X186163814Y-59979727D01*
X186221024Y-59791132D01*
X186240341Y-59595000D01*
X186221024Y-59398868D01*
X186163814Y-59210273D01*
X186145414Y-59175849D01*
X186065153Y-59025690D01*
X186066077Y-59025196D01*
X186047811Y-58988160D01*
X186047811Y-58931840D01*
X186066077Y-58894803D01*
X186065153Y-58894310D01*
X186129281Y-58774333D01*
X186163814Y-58709727D01*
X186221024Y-58521132D01*
X186240341Y-58325000D01*
X186221024Y-58128868D01*
X186163814Y-57940273D01*
X186162677Y-57938146D01*
X186161564Y-57932859D01*
X186160268Y-57928586D01*
X186160640Y-57928472D01*
X186148392Y-57870294D01*
X186172768Y-57805382D01*
X186178796Y-57797331D01*
X186229091Y-57662483D01*
X186235500Y-57602873D01*
X186235499Y-56507128D01*
X186229091Y-56447517D01*
X186178796Y-56312669D01*
X186092546Y-56197454D01*
X185977331Y-56111204D01*
X185842483Y-56060909D01*
X185782873Y-56054500D01*
X185782869Y-56054500D01*
X184687130Y-56054500D01*
X184627515Y-56060909D01*
X184492669Y-56111204D01*
X184377454Y-56197454D01*
X184291204Y-56312668D01*
X184240909Y-56447515D01*
X184240909Y-56447517D01*
X184235238Y-56500270D01*
X184234500Y-56507130D01*
X184234500Y-57602869D01*
X184240909Y-57662484D01*
X184291204Y-57797332D01*
X184297232Y-57805384D01*
X184321607Y-57870292D01*
X184309360Y-57928474D01*
X184309731Y-57928587D01*
X184308442Y-57932834D01*
X184307326Y-57938139D01*
X184306186Y-57940270D01*
X184248976Y-58128866D01*
X184229659Y-58324999D01*
X184248976Y-58521133D01*
X184306185Y-58709726D01*
X184404847Y-58894309D01*
X184403923Y-58894802D01*
X184422188Y-58931834D01*
X184422192Y-58988148D01*
X184403924Y-59025197D01*
X184404847Y-59025691D01*
X184306185Y-59210273D01*
X184248976Y-59398866D01*
X184229659Y-59595000D01*
X183710341Y-59595000D01*
X183691024Y-59398868D01*
X183633814Y-59210273D01*
X183615414Y-59175849D01*
X183535153Y-59025690D01*
X183536077Y-59025196D01*
X183517811Y-58988160D01*
X183517811Y-58931840D01*
X183536077Y-58894803D01*
X183535153Y-58894310D01*
X183599281Y-58774333D01*
X183633814Y-58709727D01*
X183691024Y-58521132D01*
X183710341Y-58325000D01*
X183691024Y-58128868D01*
X183633814Y-57940273D01*
X183632677Y-57938146D01*
X183631564Y-57932859D01*
X183630268Y-57928586D01*
X183630640Y-57928472D01*
X183618392Y-57870294D01*
X183642768Y-57805382D01*
X183648796Y-57797331D01*
X183699091Y-57662483D01*
X183705500Y-57602873D01*
X183705499Y-56507128D01*
X183699091Y-56447517D01*
X183648796Y-56312669D01*
X183562546Y-56197454D01*
X183447331Y-56111204D01*
X183312483Y-56060909D01*
X183252873Y-56054500D01*
X183252869Y-56054500D01*
X182157130Y-56054500D01*
X182097515Y-56060909D01*
X181962669Y-56111204D01*
X181847454Y-56197454D01*
X181761204Y-56312668D01*
X181710909Y-56447515D01*
X181710909Y-56447517D01*
X181705238Y-56500270D01*
X181704500Y-56507130D01*
X181704500Y-57602869D01*
X181710909Y-57662484D01*
X181761204Y-57797332D01*
X181767232Y-57805384D01*
X181791607Y-57870292D01*
X181779360Y-57928474D01*
X181779731Y-57928587D01*
X181778442Y-57932834D01*
X181777326Y-57938139D01*
X181776186Y-57940270D01*
X181718976Y-58128866D01*
X181699659Y-58324999D01*
X181718976Y-58521133D01*
X181776185Y-58709726D01*
X181874847Y-58894310D01*
X181873923Y-58894803D01*
X181892188Y-58931841D01*
X181892190Y-58988151D01*
X181873923Y-59025197D01*
X181874847Y-59025691D01*
X181776185Y-59210273D01*
X181718976Y-59398866D01*
X181699659Y-59595000D01*
X181205341Y-59595000D01*
X181186024Y-59398868D01*
X181128814Y-59210273D01*
X181110414Y-59175849D01*
X181030153Y-59025690D01*
X181031077Y-59025196D01*
X181012811Y-58988160D01*
X181012811Y-58931840D01*
X181031077Y-58894803D01*
X181030153Y-58894310D01*
X181094281Y-58774333D01*
X181128814Y-58709727D01*
X181186024Y-58521132D01*
X181205341Y-58325000D01*
X181186024Y-58128868D01*
X181128814Y-57940273D01*
X181127677Y-57938146D01*
X181126564Y-57932859D01*
X181125268Y-57928586D01*
X181125640Y-57928472D01*
X181113392Y-57870294D01*
X181137768Y-57805382D01*
X181143796Y-57797331D01*
X181194091Y-57662483D01*
X181200500Y-57602873D01*
X181200499Y-56507128D01*
X181194091Y-56447517D01*
X181143796Y-56312669D01*
X181057546Y-56197454D01*
X180942331Y-56111204D01*
X180807483Y-56060909D01*
X180747873Y-56054500D01*
X180747869Y-56054500D01*
X179652130Y-56054500D01*
X179592515Y-56060909D01*
X179457669Y-56111204D01*
X179342454Y-56197454D01*
X179256204Y-56312668D01*
X179205909Y-56447515D01*
X179205909Y-56447517D01*
X179200238Y-56500270D01*
X179199500Y-56507130D01*
X179199500Y-57602869D01*
X179205909Y-57662484D01*
X179256204Y-57797332D01*
X179262232Y-57805384D01*
X179286607Y-57870292D01*
X179274360Y-57928474D01*
X179274731Y-57928587D01*
X179273442Y-57932834D01*
X179272326Y-57938139D01*
X179271186Y-57940270D01*
X179213976Y-58128866D01*
X179194659Y-58324999D01*
X179213976Y-58521133D01*
X179271185Y-58709726D01*
X179369847Y-58894310D01*
X179368923Y-58894803D01*
X179387188Y-58931841D01*
X179387190Y-58988151D01*
X179368923Y-59025197D01*
X179369847Y-59025691D01*
X179271185Y-59210273D01*
X179213976Y-59398866D01*
X179194659Y-59595000D01*
X179213976Y-59791133D01*
X179271185Y-59979726D01*
X179271186Y-59979727D01*
X179364090Y-60153538D01*
X179459074Y-60269276D01*
X179485325Y-60326340D01*
X179480244Y-60388949D01*
X179445133Y-60441034D01*
X179389003Y-60469230D01*
X179320196Y-60483855D01*
X179147269Y-60560848D01*
X178994129Y-60672110D01*
X178867466Y-60812783D01*
X178772820Y-60976715D01*
X178714326Y-61156742D01*
X178694540Y-61345000D01*
X177407868Y-61345000D01*
X177392179Y-61296715D01*
X177297533Y-61132783D01*
X177170870Y-60992110D01*
X177017730Y-60880848D01*
X176844802Y-60803855D01*
X176659648Y-60764500D01*
X176659646Y-60764500D01*
X176470354Y-60764500D01*
X176470352Y-60764500D01*
X176285197Y-60803855D01*
X176112269Y-60880848D01*
X175959129Y-60992110D01*
X175832466Y-61132783D01*
X175737820Y-61296715D01*
X175679326Y-61476742D01*
X175663369Y-61628570D01*
X175659540Y-61665000D01*
X159327483Y-61665000D01*
X159337993Y-61565004D01*
X159318207Y-61376748D01*
X159271219Y-61232134D01*
X159259712Y-61196719D01*
X159165066Y-61032787D01*
X159038403Y-60892114D01*
X158885263Y-60780852D01*
X158712335Y-60703859D01*
X158527181Y-60664504D01*
X158527179Y-60664504D01*
X158337887Y-60664504D01*
X158337885Y-60664504D01*
X158152730Y-60703859D01*
X157979802Y-60780852D01*
X157826662Y-60892114D01*
X157702614Y-61029884D01*
X157648782Y-61064843D01*
X157584683Y-61068202D01*
X157449648Y-61039500D01*
X157449646Y-61039500D01*
X157260354Y-61039500D01*
X157260352Y-61039500D01*
X157075197Y-61078855D01*
X156902269Y-61155848D01*
X156749129Y-61267110D01*
X156622466Y-61407783D01*
X156527820Y-61571715D01*
X156469326Y-61751742D01*
X156449540Y-61939999D01*
X156469326Y-62128257D01*
X156527820Y-62308284D01*
X156622328Y-62471977D01*
X156638262Y-62521015D01*
X156632872Y-62572294D01*
X156576604Y-62745469D01*
X156556818Y-62933729D01*
X156576604Y-63121986D01*
X156623125Y-63265163D01*
X156626484Y-63329262D01*
X156597344Y-63386453D01*
X156490167Y-63505484D01*
X156395521Y-63669416D01*
X156337027Y-63849443D01*
X156317241Y-64037700D01*
X154477857Y-64037700D01*
X154533308Y-63941655D01*
X154591803Y-63761627D01*
X154611589Y-63573371D01*
X154591803Y-63385115D01*
X154533308Y-63205087D01*
X154533308Y-63205086D01*
X154502636Y-63151961D01*
X154486702Y-63102922D01*
X154492092Y-63051643D01*
X154517874Y-63006988D01*
X154564984Y-62954667D01*
X154659630Y-62790735D01*
X154665647Y-62772216D01*
X154718125Y-62610707D01*
X154737911Y-62422451D01*
X154718125Y-62234195D01*
X154685732Y-62134500D01*
X154659630Y-62054166D01*
X154564984Y-61890234D01*
X154438321Y-61749561D01*
X154285181Y-61638299D01*
X154112253Y-61561306D01*
X153927099Y-61521951D01*
X153927097Y-61521951D01*
X153737805Y-61521951D01*
X153685710Y-61533023D01*
X153576026Y-61556337D01*
X153518149Y-61554820D01*
X153467270Y-61527192D01*
X153434479Y-61479476D01*
X153428835Y-61436589D01*
X153428118Y-61436665D01*
X153426550Y-61421742D01*
X153406970Y-61235448D01*
X153360532Y-61092527D01*
X153348475Y-61055419D01*
X153253829Y-60891487D01*
X153127166Y-60750814D01*
X152974026Y-60639552D01*
X152801098Y-60562559D01*
X152615944Y-60523204D01*
X152615942Y-60523204D01*
X152426650Y-60523204D01*
X152426648Y-60523204D01*
X152241493Y-60562559D01*
X152068565Y-60639552D01*
X151915425Y-60750814D01*
X151788762Y-60891488D01*
X151750939Y-60957000D01*
X151705552Y-61002387D01*
X151643552Y-61019000D01*
X151581552Y-61002387D01*
X151536165Y-60957000D01*
X151480693Y-60860919D01*
X151354030Y-60720246D01*
X151200890Y-60608984D01*
X151027962Y-60531991D01*
X150842808Y-60492636D01*
X150842806Y-60492636D01*
X150653514Y-60492636D01*
X150653512Y-60492636D01*
X150468359Y-60531990D01*
X150319325Y-60598345D01*
X150255932Y-60608386D01*
X150214489Y-60592480D01*
X150213486Y-60594735D01*
X150028652Y-60512440D01*
X149843498Y-60473085D01*
X149843496Y-60473085D01*
X149654204Y-60473085D01*
X149654202Y-60473085D01*
X149469047Y-60512440D01*
X149296119Y-60589433D01*
X149142979Y-60700695D01*
X149016316Y-60841368D01*
X148921670Y-61005300D01*
X148863176Y-61185327D01*
X148854581Y-61267110D01*
X148843390Y-61373585D01*
X148318918Y-61373585D01*
X148307973Y-61269445D01*
X148249478Y-61089417D01*
X148249478Y-61089416D01*
X148154832Y-60925484D01*
X148028169Y-60784811D01*
X147875029Y-60673549D01*
X147702101Y-60596556D01*
X147516947Y-60557201D01*
X147516945Y-60557201D01*
X147327653Y-60557201D01*
X147327651Y-60557201D01*
X147142496Y-60596556D01*
X146969568Y-60673549D01*
X146816428Y-60784811D01*
X146689765Y-60925484D01*
X146595119Y-61089416D01*
X146536625Y-61269443D01*
X146516839Y-61457701D01*
X139020280Y-61457701D01*
X139017730Y-61455848D01*
X138844802Y-61378855D01*
X138659648Y-61339500D01*
X138659646Y-61339500D01*
X138470354Y-61339500D01*
X138470352Y-61339500D01*
X138285197Y-61378855D01*
X138112269Y-61455848D01*
X137959129Y-61567110D01*
X137832466Y-61707783D01*
X137737820Y-61871715D01*
X137679326Y-62051742D01*
X137659761Y-62237893D01*
X137659540Y-62240000D01*
X131060730Y-62240000D01*
X131045674Y-62096744D01*
X131007184Y-61978284D01*
X130987179Y-61916715D01*
X130892533Y-61752783D01*
X130765870Y-61612110D01*
X130612730Y-61500848D01*
X130439802Y-61423855D01*
X130254648Y-61384500D01*
X130254646Y-61384500D01*
X130065354Y-61384500D01*
X130065352Y-61384500D01*
X129880197Y-61423855D01*
X129707269Y-61500848D01*
X129554129Y-61612110D01*
X129427466Y-61752783D01*
X129332820Y-61916715D01*
X129274326Y-62096742D01*
X129258023Y-62251860D01*
X129254540Y-62285000D01*
X129274326Y-62473256D01*
X129274326Y-62473258D01*
X129274327Y-62473260D01*
X129275043Y-62475464D01*
X129275273Y-62482265D01*
X129275689Y-62486218D01*
X129275408Y-62486247D01*
X129277367Y-62544018D01*
X129242893Y-62603319D01*
X129182169Y-62635220D01*
X129113778Y-62629960D01*
X129022483Y-62595909D01*
X128962873Y-62589500D01*
X128962869Y-62589500D01*
X127867130Y-62589500D01*
X127807515Y-62595909D01*
X127672667Y-62646204D01*
X127664613Y-62652234D01*
X127599702Y-62676608D01*
X127541527Y-62664358D01*
X127541414Y-62664732D01*
X127537137Y-62663434D01*
X127531853Y-62662322D01*
X127529731Y-62661188D01*
X127529730Y-62661187D01*
X127529727Y-62661186D01*
X127358145Y-62609137D01*
X127341129Y-62603975D01*
X127145000Y-62584659D01*
X126948866Y-62603976D01*
X126748587Y-62664731D01*
X126747890Y-62662435D01*
X126708596Y-62672309D01*
X126650302Y-62657855D01*
X126605638Y-62617702D01*
X126585083Y-62561273D01*
X126575674Y-62471744D01*
X126522617Y-62308453D01*
X126517179Y-62291715D01*
X126422533Y-62127783D01*
X126295870Y-61987110D01*
X126142730Y-61875848D01*
X125969802Y-61798855D01*
X125784648Y-61759500D01*
X125784646Y-61759500D01*
X125595354Y-61759500D01*
X125595352Y-61759500D01*
X125410197Y-61798855D01*
X125237272Y-61875846D01*
X125203014Y-61900737D01*
X125150808Y-61922682D01*
X125094289Y-61919125D01*
X125045245Y-61890810D01*
X125013906Y-61843641D01*
X125006808Y-61787460D01*
X125025460Y-61610000D01*
X125005674Y-61421744D01*
X124947179Y-61241716D01*
X124947179Y-61241715D01*
X124852728Y-61078120D01*
X127544040Y-61078120D01*
X127563826Y-61266378D01*
X127622320Y-61446405D01*
X127716966Y-61610337D01*
X127843629Y-61751010D01*
X127996769Y-61862272D01*
X128169697Y-61939265D01*
X128354852Y-61978621D01*
X128354854Y-61978621D01*
X128544146Y-61978621D01*
X128544148Y-61978621D01*
X128667583Y-61952383D01*
X128729303Y-61939265D01*
X128902230Y-61862272D01*
X128914640Y-61853256D01*
X129055370Y-61751010D01*
X129149961Y-61645957D01*
X129182033Y-61610337D01*
X129276679Y-61446405D01*
X129335174Y-61266377D01*
X129354960Y-61078121D01*
X129335174Y-60889865D01*
X129289357Y-60748855D01*
X129276679Y-60709836D01*
X129182033Y-60545904D01*
X129055370Y-60405231D01*
X128902230Y-60293969D01*
X128729302Y-60216976D01*
X128544148Y-60177621D01*
X128544146Y-60177621D01*
X128354854Y-60177621D01*
X128354852Y-60177621D01*
X128169697Y-60216976D01*
X127996769Y-60293969D01*
X127843629Y-60405231D01*
X127716966Y-60545904D01*
X127622320Y-60709836D01*
X127563826Y-60889863D01*
X127544040Y-61078120D01*
X124852728Y-61078120D01*
X124852533Y-61077783D01*
X124725870Y-60937110D01*
X124572730Y-60825848D01*
X124399802Y-60748855D01*
X124214648Y-60709500D01*
X124214646Y-60709500D01*
X124025354Y-60709500D01*
X124025352Y-60709500D01*
X123840197Y-60748855D01*
X123667269Y-60825848D01*
X123514129Y-60937110D01*
X123387466Y-61077783D01*
X123292820Y-61241715D01*
X123234326Y-61421742D01*
X123218564Y-61571715D01*
X123214540Y-61610000D01*
X109496555Y-61610000D01*
X109506123Y-59959999D01*
X134649540Y-59959999D01*
X134669326Y-60148257D01*
X134727820Y-60328284D01*
X134822466Y-60492216D01*
X134949129Y-60632889D01*
X135102269Y-60744151D01*
X135275197Y-60821144D01*
X135460352Y-60860500D01*
X135460354Y-60860500D01*
X135649646Y-60860500D01*
X135649648Y-60860500D01*
X135773083Y-60834262D01*
X135834803Y-60821144D01*
X136007730Y-60744151D01*
X136007729Y-60744151D01*
X136160870Y-60632889D01*
X136190177Y-60600341D01*
X136287533Y-60492216D01*
X136382179Y-60328284D01*
X136440674Y-60148256D01*
X136460460Y-59960000D01*
X136440674Y-59771744D01*
X136382179Y-59591716D01*
X136382179Y-59591715D01*
X136287533Y-59427783D01*
X136160870Y-59287110D01*
X136007730Y-59175848D01*
X135834802Y-59098855D01*
X135649648Y-59059500D01*
X135649646Y-59059500D01*
X135460354Y-59059500D01*
X135460352Y-59059500D01*
X135275197Y-59098855D01*
X135102269Y-59175848D01*
X134949129Y-59287110D01*
X134822466Y-59427783D01*
X134727820Y-59591715D01*
X134669326Y-59771742D01*
X134649540Y-59959999D01*
X109506123Y-59959999D01*
X109514189Y-58568984D01*
X147079099Y-58568984D01*
X147098885Y-58757242D01*
X147157379Y-58937269D01*
X147252025Y-59101201D01*
X147378688Y-59241874D01*
X147531828Y-59353136D01*
X147704756Y-59430129D01*
X147889911Y-59469485D01*
X147889913Y-59469485D01*
X148079205Y-59469485D01*
X148079207Y-59469485D01*
X148207299Y-59442258D01*
X148264362Y-59430129D01*
X148437289Y-59353136D01*
X148528164Y-59287112D01*
X148590429Y-59241874D01*
X148672390Y-59150848D01*
X148717092Y-59101201D01*
X148811738Y-58937269D01*
X148870233Y-58757241D01*
X148888744Y-58581114D01*
X152209040Y-58581114D01*
X152210427Y-58594307D01*
X152228826Y-58769371D01*
X152287320Y-58949398D01*
X152381966Y-59113330D01*
X152508629Y-59254003D01*
X152661769Y-59365265D01*
X152834697Y-59442258D01*
X153019852Y-59481614D01*
X153019854Y-59481614D01*
X153209146Y-59481614D01*
X153209148Y-59481614D01*
X153332583Y-59455376D01*
X153394303Y-59442258D01*
X153567230Y-59365265D01*
X153674802Y-59287110D01*
X153720370Y-59254003D01*
X153847033Y-59113330D01*
X153934063Y-58962590D01*
X154876547Y-58962590D01*
X154896333Y-59150848D01*
X154954827Y-59330875D01*
X155049473Y-59494807D01*
X155176136Y-59635480D01*
X155329276Y-59746742D01*
X155502204Y-59823735D01*
X155687359Y-59863091D01*
X155687361Y-59863091D01*
X155876653Y-59863091D01*
X155876655Y-59863091D01*
X156000091Y-59836853D01*
X156061810Y-59823735D01*
X156234737Y-59746742D01*
X156274172Y-59718090D01*
X156334096Y-59695087D01*
X156397491Y-59705128D01*
X156485642Y-59744376D01*
X156499007Y-59750327D01*
X156684160Y-59789682D01*
X156684162Y-59789682D01*
X156873454Y-59789682D01*
X156873456Y-59789682D01*
X156996892Y-59763444D01*
X157058611Y-59750326D01*
X157231538Y-59673333D01*
X157231538Y-59673332D01*
X157384678Y-59562071D01*
X157511341Y-59421398D01*
X157605987Y-59257466D01*
X157611053Y-59241874D01*
X157664482Y-59077438D01*
X157684268Y-58889182D01*
X157664482Y-58700926D01*
X157629839Y-58594306D01*
X157605987Y-58520897D01*
X157511341Y-58356965D01*
X157384678Y-58216292D01*
X157231538Y-58105030D01*
X157058610Y-58028037D01*
X156873456Y-57988682D01*
X156873454Y-57988682D01*
X156684162Y-57988682D01*
X156684160Y-57988682D01*
X156499005Y-58028037D01*
X156326079Y-58105029D01*
X156286640Y-58133683D01*
X156226717Y-58156684D01*
X156163322Y-58146643D01*
X156061807Y-58101445D01*
X155876655Y-58062091D01*
X155876653Y-58062091D01*
X155687361Y-58062091D01*
X155687359Y-58062091D01*
X155502204Y-58101446D01*
X155329276Y-58178439D01*
X155176136Y-58289701D01*
X155049473Y-58430374D01*
X154954827Y-58594306D01*
X154896333Y-58774333D01*
X154876547Y-58962590D01*
X153934063Y-58962590D01*
X153941679Y-58949398D01*
X153959578Y-58894310D01*
X154000174Y-58769370D01*
X154019960Y-58581114D01*
X154000174Y-58392858D01*
X153966656Y-58289701D01*
X153941679Y-58212829D01*
X153847033Y-58048897D01*
X153720370Y-57908224D01*
X153567230Y-57796962D01*
X153394302Y-57719969D01*
X153209148Y-57680614D01*
X153209146Y-57680614D01*
X153019854Y-57680614D01*
X153019852Y-57680614D01*
X152834697Y-57719969D01*
X152661769Y-57796962D01*
X152508629Y-57908224D01*
X152381966Y-58048897D01*
X152287320Y-58212829D01*
X152228826Y-58392856D01*
X152228825Y-58392858D01*
X152228826Y-58392858D01*
X152209040Y-58581114D01*
X148888744Y-58581114D01*
X148890019Y-58568985D01*
X148870233Y-58380729D01*
X148811738Y-58200701D01*
X148811738Y-58200700D01*
X148717092Y-58036768D01*
X148590429Y-57896095D01*
X148437289Y-57784833D01*
X148264361Y-57707840D01*
X148079207Y-57668485D01*
X148079205Y-57668485D01*
X147889913Y-57668485D01*
X147889911Y-57668485D01*
X147704756Y-57707840D01*
X147531828Y-57784833D01*
X147378688Y-57896095D01*
X147252025Y-58036768D01*
X147157379Y-58200700D01*
X147098885Y-58380727D01*
X147079099Y-58568984D01*
X109514189Y-58568984D01*
X109523954Y-56884999D01*
X124704659Y-56884999D01*
X124723976Y-57081133D01*
X124781185Y-57269726D01*
X124781186Y-57269727D01*
X124874090Y-57443538D01*
X124999117Y-57595883D01*
X125151462Y-57720910D01*
X125325273Y-57813814D01*
X125513868Y-57871024D01*
X125710000Y-57890341D01*
X125906132Y-57871024D01*
X126094727Y-57813814D01*
X126268538Y-57720910D01*
X126420883Y-57595883D01*
X126545910Y-57443538D01*
X126638814Y-57269727D01*
X126696024Y-57081132D01*
X126715341Y-56885000D01*
X126696024Y-56688868D01*
X126638814Y-56500273D01*
X126637677Y-56498146D01*
X126636564Y-56492859D01*
X126635268Y-56488586D01*
X126635640Y-56488472D01*
X126623392Y-56430294D01*
X126647768Y-56365382D01*
X126653796Y-56357331D01*
X126704091Y-56222483D01*
X126710500Y-56162873D01*
X126710500Y-55750000D01*
X130624540Y-55750000D01*
X130625185Y-55756133D01*
X130644326Y-55938257D01*
X130702820Y-56118284D01*
X130797466Y-56282216D01*
X130924129Y-56422889D01*
X131077269Y-56534151D01*
X131250197Y-56611144D01*
X131435352Y-56650500D01*
X131435354Y-56650500D01*
X131624646Y-56650500D01*
X131624648Y-56650500D01*
X131748083Y-56624262D01*
X131809803Y-56611144D01*
X131982730Y-56534151D01*
X132019924Y-56507128D01*
X132135870Y-56422889D01*
X132262533Y-56282216D01*
X132357179Y-56118284D01*
X132379520Y-56049525D01*
X132415674Y-55938256D01*
X132435460Y-55750000D01*
X132415674Y-55561744D01*
X132365346Y-55406850D01*
X132357179Y-55381715D01*
X132262533Y-55217783D01*
X132135870Y-55077110D01*
X131982730Y-54965848D01*
X131809802Y-54888855D01*
X131624648Y-54849500D01*
X131624646Y-54849500D01*
X131435354Y-54849500D01*
X131435352Y-54849500D01*
X131250197Y-54888855D01*
X131077269Y-54965848D01*
X130924129Y-55077110D01*
X130797466Y-55217783D01*
X130702820Y-55381715D01*
X130644326Y-55561742D01*
X130635791Y-55642952D01*
X130624540Y-55750000D01*
X126710500Y-55750000D01*
X126710499Y-55067128D01*
X126704091Y-55007517D01*
X126653796Y-54872669D01*
X126567546Y-54757454D01*
X126452331Y-54671204D01*
X126317483Y-54620909D01*
X126257873Y-54614500D01*
X126257869Y-54614500D01*
X125162130Y-54614500D01*
X125102515Y-54620909D01*
X124967669Y-54671204D01*
X124852454Y-54757454D01*
X124766204Y-54872668D01*
X124715909Y-55007515D01*
X124715909Y-55007517D01*
X124710227Y-55060370D01*
X124709500Y-55067130D01*
X124709500Y-56162869D01*
X124715909Y-56222484D01*
X124766204Y-56357332D01*
X124772232Y-56365384D01*
X124796607Y-56430292D01*
X124784360Y-56488474D01*
X124784731Y-56488587D01*
X124783442Y-56492834D01*
X124782326Y-56498139D01*
X124781186Y-56500270D01*
X124723976Y-56688866D01*
X124704659Y-56884999D01*
X109523954Y-56884999D01*
X109541550Y-53850500D01*
X121820038Y-53850500D01*
X121839824Y-54038757D01*
X121898318Y-54218784D01*
X121992964Y-54382716D01*
X122119627Y-54523389D01*
X122272767Y-54634651D01*
X122445695Y-54711644D01*
X122630850Y-54751000D01*
X122630852Y-54751000D01*
X122820144Y-54751000D01*
X122820146Y-54751000D01*
X122943581Y-54724762D01*
X123005301Y-54711644D01*
X123178228Y-54634651D01*
X123240340Y-54589524D01*
X123331368Y-54523389D01*
X123337802Y-54516244D01*
X123458031Y-54382716D01*
X123552677Y-54218784D01*
X123610605Y-54040500D01*
X127840667Y-54040500D01*
X127860453Y-54228757D01*
X127918947Y-54408784D01*
X128013593Y-54572716D01*
X128140256Y-54713389D01*
X128293396Y-54824651D01*
X128466324Y-54901644D01*
X128651479Y-54941000D01*
X128799875Y-54941000D01*
X128850310Y-54951720D01*
X128892025Y-54982027D01*
X128917803Y-55026677D01*
X128935369Y-55080736D01*
X128935371Y-55080739D01*
X129030013Y-55244666D01*
X129156677Y-55385341D01*
X129309817Y-55496603D01*
X129482745Y-55573596D01*
X129667900Y-55612952D01*
X129667902Y-55612952D01*
X129857194Y-55612952D01*
X129857196Y-55612952D01*
X129981397Y-55586552D01*
X130042351Y-55573596D01*
X130215278Y-55496603D01*
X130368419Y-55385340D01*
X130495081Y-55244668D01*
X130589727Y-55080736D01*
X130648222Y-54900708D01*
X130668008Y-54712452D01*
X130648222Y-54524196D01*
X130599953Y-54375640D01*
X130589727Y-54344167D01*
X130495081Y-54180235D01*
X130368418Y-54039562D01*
X130215278Y-53928300D01*
X130042350Y-53851307D01*
X129857196Y-53811952D01*
X129857194Y-53811952D01*
X129708801Y-53811952D01*
X129658366Y-53801232D01*
X129649788Y-53795000D01*
X134114540Y-53795000D01*
X134134326Y-53983257D01*
X134192820Y-54163284D01*
X134287466Y-54327216D01*
X134414129Y-54467889D01*
X134567269Y-54579151D01*
X134740197Y-54656144D01*
X134925352Y-54695500D01*
X134925354Y-54695500D01*
X135114646Y-54695500D01*
X135114648Y-54695500D01*
X135159097Y-54686052D01*
X137816495Y-54686052D01*
X137836281Y-54874309D01*
X137894775Y-55054336D01*
X137989421Y-55218268D01*
X138116084Y-55358941D01*
X138269224Y-55470203D01*
X138442152Y-55547196D01*
X138627307Y-55586552D01*
X138627309Y-55586552D01*
X138816601Y-55586552D01*
X138816603Y-55586552D01*
X138941519Y-55560000D01*
X139001758Y-55547196D01*
X139120648Y-55494261D01*
X139184045Y-55484220D01*
X139243969Y-55507223D01*
X139267269Y-55524151D01*
X139440197Y-55601144D01*
X139625352Y-55640500D01*
X139827679Y-55640500D01*
X139827679Y-55642952D01*
X139877705Y-55646503D01*
X139933087Y-55687015D01*
X139958447Y-55750774D01*
X139958974Y-55756129D01*
X140016185Y-55944726D01*
X140072202Y-56049525D01*
X140109090Y-56118538D01*
X140234117Y-56270883D01*
X140386462Y-56395910D01*
X140560273Y-56488814D01*
X140748868Y-56546024D01*
X140945000Y-56565341D01*
X141141132Y-56546024D01*
X141329727Y-56488814D01*
X141503538Y-56395910D01*
X141655883Y-56270883D01*
X141696621Y-56221244D01*
X165985906Y-56221244D01*
X166005692Y-56409501D01*
X166064186Y-56589528D01*
X166158832Y-56753460D01*
X166285495Y-56894133D01*
X166438635Y-57005395D01*
X166611563Y-57082388D01*
X166796718Y-57121744D01*
X166796720Y-57121744D01*
X166986012Y-57121744D01*
X166986014Y-57121744D01*
X167109449Y-57095506D01*
X167171169Y-57082388D01*
X167344096Y-57005395D01*
X167497237Y-56894132D01*
X167581995Y-56799999D01*
X171549540Y-56799999D01*
X171569326Y-56988257D01*
X171627820Y-57168284D01*
X171722466Y-57332216D01*
X171849129Y-57472889D01*
X172002269Y-57584151D01*
X172175197Y-57661144D01*
X172360352Y-57700500D01*
X172360354Y-57700500D01*
X172549646Y-57700500D01*
X172549648Y-57700500D01*
X172700266Y-57668485D01*
X172734803Y-57661144D01*
X172907730Y-57584151D01*
X173060871Y-57472888D01*
X173144508Y-57380000D01*
X175769040Y-57380000D01*
X175788826Y-57568257D01*
X175847320Y-57748284D01*
X175941966Y-57912216D01*
X176068629Y-58052889D01*
X176221769Y-58164151D01*
X176394697Y-58241144D01*
X176579852Y-58280500D01*
X176579854Y-58280500D01*
X176769146Y-58280500D01*
X176769148Y-58280500D01*
X176892584Y-58254262D01*
X176954303Y-58241144D01*
X177127230Y-58164151D01*
X177127229Y-58164151D01*
X177280370Y-58052889D01*
X177283965Y-58048897D01*
X177407033Y-57912216D01*
X177501679Y-57748284D01*
X177560174Y-57568256D01*
X177579960Y-57380000D01*
X177560174Y-57191744D01*
X177501679Y-57011716D01*
X177501679Y-57011715D01*
X177407033Y-56847783D01*
X177280370Y-56707110D01*
X177127230Y-56595848D01*
X176954302Y-56518855D01*
X176769148Y-56479500D01*
X176769146Y-56479500D01*
X176579854Y-56479500D01*
X176579852Y-56479500D01*
X176394697Y-56518855D01*
X176221769Y-56595848D01*
X176068629Y-56707110D01*
X175941966Y-56847783D01*
X175847320Y-57011715D01*
X175788826Y-57191742D01*
X175769040Y-57380000D01*
X173144508Y-57380000D01*
X173187533Y-57332216D01*
X173282179Y-57168284D01*
X173340674Y-56988256D01*
X173360460Y-56800000D01*
X173340674Y-56611744D01*
X173287313Y-56447516D01*
X173282179Y-56431715D01*
X173187533Y-56267783D01*
X173060870Y-56127110D01*
X172907730Y-56015848D01*
X172734802Y-55938855D01*
X172549648Y-55899500D01*
X172549646Y-55899500D01*
X172360354Y-55899500D01*
X172360352Y-55899500D01*
X172175197Y-55938855D01*
X172002269Y-56015848D01*
X171849129Y-56127110D01*
X171722466Y-56267783D01*
X171627820Y-56431715D01*
X171569326Y-56611742D01*
X171549540Y-56799999D01*
X167581995Y-56799999D01*
X167623899Y-56753460D01*
X167718545Y-56589528D01*
X167777040Y-56409500D01*
X167796826Y-56221244D01*
X167785022Y-56108936D01*
X167793372Y-56049525D01*
X167828638Y-56000987D01*
X167882558Y-55974688D01*
X167969803Y-55956144D01*
X168142730Y-55879151D01*
X168295871Y-55767888D01*
X168422533Y-55627216D01*
X168517179Y-55463284D01*
X168575674Y-55283256D01*
X168595460Y-55095000D01*
X168575674Y-54906744D01*
X168532243Y-54773077D01*
X168517179Y-54726715D01*
X168422533Y-54562783D01*
X168295870Y-54422110D01*
X168142730Y-54310848D01*
X167969802Y-54233855D01*
X167784648Y-54194500D01*
X167784646Y-54194500D01*
X167595354Y-54194500D01*
X167595352Y-54194500D01*
X167410197Y-54233855D01*
X167237269Y-54310848D01*
X167084129Y-54422110D01*
X166957466Y-54562783D01*
X166862820Y-54726715D01*
X166804326Y-54906742D01*
X166784540Y-55095000D01*
X166796343Y-55207305D01*
X166787993Y-55266718D01*
X166752727Y-55315256D01*
X166698803Y-55341556D01*
X166611563Y-55360099D01*
X166438635Y-55437092D01*
X166285495Y-55548354D01*
X166158832Y-55689027D01*
X166064186Y-55852959D01*
X166005692Y-56032986D01*
X165985906Y-56221244D01*
X141696621Y-56221244D01*
X141780910Y-56118538D01*
X141873814Y-55944727D01*
X141931024Y-55756132D01*
X141950341Y-55560000D01*
X141941245Y-55467650D01*
X141950590Y-55406850D01*
X141988007Y-55358020D01*
X142044288Y-55333182D01*
X142105580Y-55338450D01*
X142156797Y-55372525D01*
X142260674Y-55487892D01*
X142279132Y-55508391D01*
X142432269Y-55619651D01*
X142605197Y-55696644D01*
X142790352Y-55736000D01*
X142790354Y-55736000D01*
X142979646Y-55736000D01*
X142979648Y-55736000D01*
X143103084Y-55709762D01*
X143164803Y-55696644D01*
X143337730Y-55619651D01*
X143347129Y-55612822D01*
X143490870Y-55508389D01*
X143617533Y-55367716D01*
X143712179Y-55203784D01*
X143741857Y-55112444D01*
X143746713Y-55097499D01*
X146162040Y-55097499D01*
X146181826Y-55285757D01*
X146240320Y-55465784D01*
X146334966Y-55629716D01*
X146461629Y-55770389D01*
X146614769Y-55881651D01*
X146787697Y-55958644D01*
X146972852Y-55998000D01*
X146972854Y-55998000D01*
X147162146Y-55998000D01*
X147162148Y-55998000D01*
X147285583Y-55971762D01*
X147347303Y-55958644D01*
X147520230Y-55881651D01*
X147673371Y-55770388D01*
X147800033Y-55629716D01*
X147894679Y-55465784D01*
X147953174Y-55285756D01*
X147972960Y-55097500D01*
X147953174Y-54909244D01*
X147914538Y-54790335D01*
X147894679Y-54729215D01*
X147800033Y-54565283D01*
X147746204Y-54505500D01*
X148951195Y-54505500D01*
X148960013Y-54589396D01*
X148970981Y-54693757D01*
X149029475Y-54873784D01*
X149124121Y-55037716D01*
X149250784Y-55178389D01*
X149403924Y-55289651D01*
X149576852Y-55366644D01*
X149762007Y-55406000D01*
X149762009Y-55406000D01*
X149951301Y-55406000D01*
X149951303Y-55406000D01*
X150108785Y-55372526D01*
X150136458Y-55366644D01*
X150309385Y-55289651D01*
X150340950Y-55266718D01*
X150344346Y-55264251D01*
X150404270Y-55241247D01*
X150467668Y-55251288D01*
X150640054Y-55328040D01*
X150640057Y-55328040D01*
X150640058Y-55328041D01*
X150825209Y-55367396D01*
X150825211Y-55367396D01*
X151014503Y-55367396D01*
X151014505Y-55367396D01*
X151150684Y-55338450D01*
X151199660Y-55328040D01*
X151372587Y-55251047D01*
X151388285Y-55239641D01*
X151448209Y-55216637D01*
X151511609Y-55226678D01*
X151638548Y-55283195D01*
X151823703Y-55322551D01*
X151823705Y-55322551D01*
X152012997Y-55322551D01*
X152012999Y-55322551D01*
X152136434Y-55296313D01*
X152198154Y-55283195D01*
X152371081Y-55206202D01*
X152394836Y-55188943D01*
X152524221Y-55094940D01*
X152540274Y-55077112D01*
X152650884Y-54954267D01*
X152745530Y-54790335D01*
X152804025Y-54610307D01*
X152823028Y-54429500D01*
X153194540Y-54429500D01*
X153196695Y-54450000D01*
X153214326Y-54617757D01*
X153272820Y-54797784D01*
X153367466Y-54961716D01*
X153494129Y-55102389D01*
X153647269Y-55213651D01*
X153820197Y-55290644D01*
X154005352Y-55330000D01*
X154005354Y-55330000D01*
X154194646Y-55330000D01*
X154194648Y-55330000D01*
X154332493Y-55300700D01*
X154379803Y-55290644D01*
X154468736Y-55251048D01*
X154552727Y-55213653D01*
X154552730Y-55213651D01*
X154672670Y-55126509D01*
X154719769Y-55105540D01*
X154771332Y-55105540D01*
X154818434Y-55126510D01*
X154952214Y-55223707D01*
X154952215Y-55223707D01*
X154952216Y-55223708D01*
X155125141Y-55300700D01*
X155310296Y-55340056D01*
X155310298Y-55340056D01*
X155499590Y-55340056D01*
X155499592Y-55340056D01*
X155663143Y-55305292D01*
X155684747Y-55300700D01*
X155857674Y-55223707D01*
X155924338Y-55175273D01*
X156010814Y-55112445D01*
X156018821Y-55103553D01*
X156137477Y-54971772D01*
X156232123Y-54807840D01*
X156290618Y-54627812D01*
X156310404Y-54439556D01*
X156309952Y-54435257D01*
X156318962Y-54374244D01*
X156356252Y-54325118D01*
X156412596Y-54300033D01*
X156474055Y-54305195D01*
X156512981Y-54331058D01*
X156513585Y-54330228D01*
X156677269Y-54449151D01*
X156850197Y-54526144D01*
X157035352Y-54565500D01*
X157035354Y-54565500D01*
X157224646Y-54565500D01*
X157300239Y-54549432D01*
X157363068Y-54552386D01*
X157416365Y-54585789D01*
X157446416Y-54641047D01*
X157483306Y-54790716D01*
X157562313Y-54941251D01*
X157675049Y-55068505D01*
X157759087Y-55126512D01*
X157814967Y-55165083D01*
X157973929Y-55225370D01*
X158100351Y-55240720D01*
X158185048Y-55240720D01*
X158185049Y-55240720D01*
X158311471Y-55225370D01*
X158470433Y-55165083D01*
X158610349Y-55068506D01*
X158723086Y-54941252D01*
X158726197Y-54935322D01*
X158760110Y-54894877D01*
X158807774Y-54872200D01*
X158860552Y-54871402D01*
X158908880Y-54892627D01*
X158952272Y-54924153D01*
X159125197Y-55001144D01*
X159310352Y-55040500D01*
X159310354Y-55040500D01*
X159499646Y-55040500D01*
X159499648Y-55040500D01*
X159654820Y-55007517D01*
X159684803Y-55001144D01*
X159857730Y-54924151D01*
X159930333Y-54871402D01*
X160010870Y-54812889D01*
X160137533Y-54672216D01*
X160146812Y-54656144D01*
X160153460Y-54644628D01*
X160192226Y-54603346D01*
X160245305Y-54583605D01*
X160301626Y-54589524D01*
X160349442Y-54619868D01*
X160378779Y-54668308D01*
X160412821Y-54773077D01*
X160507466Y-54937008D01*
X160634129Y-55077681D01*
X160787269Y-55188943D01*
X160960197Y-55265936D01*
X161145352Y-55305292D01*
X161145354Y-55305292D01*
X161334646Y-55305292D01*
X161334648Y-55305292D01*
X161458084Y-55279054D01*
X161519803Y-55265936D01*
X161692730Y-55188943D01*
X161845871Y-55077680D01*
X161872225Y-55048410D01*
X161930513Y-55012096D01*
X161999191Y-55012372D01*
X162057188Y-55049156D01*
X162074329Y-55068505D01*
X162158367Y-55126512D01*
X162214247Y-55165083D01*
X162373209Y-55225370D01*
X162499631Y-55240720D01*
X162584328Y-55240720D01*
X162584329Y-55240720D01*
X162710751Y-55225370D01*
X162869713Y-55165083D01*
X163009629Y-55068506D01*
X163122366Y-54941252D01*
X163201374Y-54790715D01*
X163242060Y-54625645D01*
X163242060Y-54625000D01*
X163544540Y-54625000D01*
X163550957Y-54686052D01*
X163564326Y-54813257D01*
X163622820Y-54993284D01*
X163717466Y-55157216D01*
X163844129Y-55297889D01*
X163997269Y-55409151D01*
X164170197Y-55486144D01*
X164355352Y-55525500D01*
X164355354Y-55525500D01*
X164544646Y-55525500D01*
X164544648Y-55525500D01*
X164718008Y-55488651D01*
X164729803Y-55486144D01*
X164902730Y-55409151D01*
X164970245Y-55360099D01*
X165055870Y-55297889D01*
X165062394Y-55290644D01*
X165182533Y-55157216D01*
X165277179Y-54993284D01*
X165335674Y-54813256D01*
X165355460Y-54625000D01*
X165335674Y-54436744D01*
X165299404Y-54325118D01*
X165277179Y-54256715D01*
X165182533Y-54092783D01*
X165055870Y-53952110D01*
X164902730Y-53840848D01*
X164729802Y-53763855D01*
X164544648Y-53724500D01*
X164544646Y-53724500D01*
X164355354Y-53724500D01*
X164355352Y-53724500D01*
X164170197Y-53763855D01*
X163997269Y-53840848D01*
X163844129Y-53952110D01*
X163717466Y-54092783D01*
X163622820Y-54256715D01*
X163564326Y-54436742D01*
X163545643Y-54614501D01*
X163544540Y-54625000D01*
X163242060Y-54625000D01*
X163242060Y-54455635D01*
X163201374Y-54290565D01*
X163201373Y-54290564D01*
X163201373Y-54290562D01*
X163122366Y-54140028D01*
X163009630Y-54012774D01*
X162869712Y-53916196D01*
X162710751Y-53855910D01*
X162672841Y-53851307D01*
X162584329Y-53840560D01*
X162499631Y-53840560D01*
X162436419Y-53848235D01*
X162373208Y-53855910D01*
X162214244Y-53916197D01*
X162170038Y-53946711D01*
X162106254Y-53968482D01*
X162040504Y-53953674D01*
X161992211Y-53906660D01*
X161991515Y-53905455D01*
X161972533Y-53872576D01*
X161972532Y-53872574D01*
X161845870Y-53731902D01*
X161795765Y-53695499D01*
X169959540Y-53695499D01*
X169979326Y-53883757D01*
X170037820Y-54063784D01*
X170132466Y-54227716D01*
X170259129Y-54368389D01*
X170412269Y-54479651D01*
X170585197Y-54556644D01*
X170770352Y-54596000D01*
X170770354Y-54596000D01*
X170959646Y-54596000D01*
X170959648Y-54596000D01*
X171103138Y-54565500D01*
X171144803Y-54556644D01*
X171317730Y-54479651D01*
X171376787Y-54436744D01*
X171470870Y-54368389D01*
X171505231Y-54330228D01*
X171597533Y-54227716D01*
X171692179Y-54063784D01*
X171750674Y-53883756D01*
X171770460Y-53695500D01*
X171770407Y-53695000D01*
X174134540Y-53695000D01*
X174154326Y-53883257D01*
X174212820Y-54063284D01*
X174307466Y-54227216D01*
X174434129Y-54367889D01*
X174587269Y-54479151D01*
X174760197Y-54556144D01*
X174945352Y-54595500D01*
X174945354Y-54595500D01*
X175134646Y-54595500D01*
X175134648Y-54595500D01*
X175258083Y-54569262D01*
X175319803Y-54556144D01*
X175492730Y-54479151D01*
X175532853Y-54450000D01*
X175645870Y-54367889D01*
X175667230Y-54344167D01*
X175772533Y-54227216D01*
X175867179Y-54063284D01*
X175925674Y-53883256D01*
X175945460Y-53695000D01*
X175925674Y-53506744D01*
X175883926Y-53378257D01*
X175867179Y-53326715D01*
X175772533Y-53162783D01*
X175645870Y-53022110D01*
X175492730Y-52910848D01*
X175319802Y-52833855D01*
X175134648Y-52794500D01*
X175134646Y-52794500D01*
X174945354Y-52794500D01*
X174945352Y-52794500D01*
X174760197Y-52833855D01*
X174587269Y-52910848D01*
X174434129Y-53022110D01*
X174307466Y-53162783D01*
X174212820Y-53326715D01*
X174154326Y-53506742D01*
X174134540Y-53695000D01*
X171770407Y-53695000D01*
X171750674Y-53507244D01*
X171702866Y-53360106D01*
X171692179Y-53327215D01*
X171597533Y-53163283D01*
X171470870Y-53022610D01*
X171317730Y-52911348D01*
X171144802Y-52834355D01*
X170959648Y-52795000D01*
X170959646Y-52795000D01*
X170770354Y-52795000D01*
X170770352Y-52795000D01*
X170585197Y-52834355D01*
X170412269Y-52911348D01*
X170259129Y-53022610D01*
X170132466Y-53163283D01*
X170037820Y-53327215D01*
X169979326Y-53507242D01*
X169959540Y-53695499D01*
X161795765Y-53695499D01*
X161692730Y-53620640D01*
X161519802Y-53543647D01*
X161334648Y-53504292D01*
X161334646Y-53504292D01*
X161145354Y-53504292D01*
X161145352Y-53504292D01*
X160960197Y-53543647D01*
X160787269Y-53620640D01*
X160634129Y-53731902D01*
X160507467Y-53872574D01*
X160491538Y-53900165D01*
X160452771Y-53941447D01*
X160399692Y-53961186D01*
X160343371Y-53955267D01*
X160295556Y-53924922D01*
X160266220Y-53876482D01*
X160232179Y-53771715D01*
X160137533Y-53607783D01*
X160010870Y-53467110D01*
X159857730Y-53355848D01*
X159684802Y-53278855D01*
X159499648Y-53239500D01*
X159499646Y-53239500D01*
X159310354Y-53239500D01*
X159310352Y-53239500D01*
X159125197Y-53278855D01*
X158952269Y-53355848D01*
X158799129Y-53467110D01*
X158672465Y-53607785D01*
X158577821Y-53771714D01*
X158564460Y-53812834D01*
X158528005Y-53867989D01*
X158468389Y-53896571D01*
X158402559Y-53890455D01*
X158311471Y-53855910D01*
X158273561Y-53851307D01*
X158185049Y-53840560D01*
X158154724Y-53840560D01*
X158089014Y-53821718D01*
X158043274Y-53770918D01*
X158031403Y-53703599D01*
X158032307Y-53695000D01*
X158035460Y-53665000D01*
X158015674Y-53476744D01*
X157966927Y-53326716D01*
X157957179Y-53296715D01*
X157862533Y-53132783D01*
X157735870Y-52992110D01*
X157582730Y-52880848D01*
X157409802Y-52803855D01*
X157224648Y-52764500D01*
X157224646Y-52764500D01*
X157035354Y-52764500D01*
X157035352Y-52764500D01*
X156850197Y-52803855D01*
X156677269Y-52880848D01*
X156524129Y-52992110D01*
X156397466Y-53132783D01*
X156302820Y-53296715D01*
X156244326Y-53476742D01*
X156224539Y-53665006D01*
X156224991Y-53669303D01*
X156215979Y-53730315D01*
X156178688Y-53779439D01*
X156122344Y-53804522D01*
X156060886Y-53799359D01*
X156021962Y-53773496D01*
X156021359Y-53774328D01*
X155857674Y-53655404D01*
X155684746Y-53578411D01*
X155499592Y-53539056D01*
X155499590Y-53539056D01*
X155310298Y-53539056D01*
X155310296Y-53539056D01*
X155125141Y-53578411D01*
X154952216Y-53655402D01*
X154832277Y-53742543D01*
X154785173Y-53763514D01*
X154733611Y-53763514D01*
X154686507Y-53742542D01*
X154552730Y-53645348D01*
X154379802Y-53568355D01*
X154194648Y-53529000D01*
X154194646Y-53529000D01*
X154005354Y-53529000D01*
X154005352Y-53529000D01*
X153820197Y-53568355D01*
X153647269Y-53645348D01*
X153494129Y-53756610D01*
X153367466Y-53897283D01*
X153272820Y-54061215D01*
X153214326Y-54241242D01*
X153201015Y-54367889D01*
X153194540Y-54429500D01*
X152823028Y-54429500D01*
X152823811Y-54422051D01*
X152804025Y-54233795D01*
X152764935Y-54113488D01*
X152745530Y-54053766D01*
X152650884Y-53889834D01*
X152524221Y-53749161D01*
X152371081Y-53637899D01*
X152198153Y-53560906D01*
X152012999Y-53521551D01*
X152012997Y-53521551D01*
X151823705Y-53521551D01*
X151823703Y-53521551D01*
X151638548Y-53560906D01*
X151465619Y-53637900D01*
X151449914Y-53649310D01*
X151389992Y-53672310D01*
X151326597Y-53662268D01*
X151199659Y-53605751D01*
X151014505Y-53566396D01*
X151014503Y-53566396D01*
X150825211Y-53566396D01*
X150825209Y-53566396D01*
X150640054Y-53605751D01*
X150467128Y-53682743D01*
X150432161Y-53708148D01*
X150372238Y-53731149D01*
X150308842Y-53721107D01*
X150136457Y-53644355D01*
X149951303Y-53605000D01*
X149951301Y-53605000D01*
X149762009Y-53605000D01*
X149762007Y-53605000D01*
X149576852Y-53644355D01*
X149403924Y-53721348D01*
X149250784Y-53832610D01*
X149124121Y-53973283D01*
X149029475Y-54137215D01*
X148970981Y-54317242D01*
X148954013Y-54478689D01*
X148951195Y-54505500D01*
X147746204Y-54505500D01*
X147673370Y-54424610D01*
X147520230Y-54313348D01*
X147347302Y-54236355D01*
X147162148Y-54197000D01*
X147162146Y-54197000D01*
X146972854Y-54197000D01*
X146972852Y-54197000D01*
X146787697Y-54236355D01*
X146614769Y-54313348D01*
X146461629Y-54424610D01*
X146334966Y-54565283D01*
X146240320Y-54729215D01*
X146181826Y-54909242D01*
X146162040Y-55097499D01*
X143746713Y-55097499D01*
X143770674Y-55023756D01*
X143790460Y-54835500D01*
X143770674Y-54647244D01*
X143760952Y-54617324D01*
X143755563Y-54566047D01*
X143771499Y-54517007D01*
X143806000Y-54478691D01*
X143820871Y-54467888D01*
X143947533Y-54327216D01*
X144042179Y-54163284D01*
X144100674Y-53983256D01*
X144101723Y-53973271D01*
X144126271Y-53911265D01*
X144179392Y-53870941D01*
X144245719Y-53863968D01*
X144306065Y-53892363D01*
X144342973Y-53947912D01*
X144346826Y-53959771D01*
X144441473Y-54123705D01*
X144568136Y-54264378D01*
X144721276Y-54375640D01*
X144894204Y-54452633D01*
X145079359Y-54491989D01*
X145079361Y-54491989D01*
X145268653Y-54491989D01*
X145268655Y-54491989D01*
X145392091Y-54465751D01*
X145453810Y-54452633D01*
X145626737Y-54375640D01*
X145670056Y-54344167D01*
X145779877Y-54264378D01*
X145894376Y-54137215D01*
X145906540Y-54123705D01*
X145946919Y-54053766D01*
X146001187Y-53959772D01*
X146035796Y-53853256D01*
X146059681Y-53779745D01*
X146079467Y-53591489D01*
X146059681Y-53403233D01*
X146006481Y-53239500D01*
X146001186Y-53223204D01*
X145906540Y-53059272D01*
X145779877Y-52918599D01*
X145626737Y-52807337D01*
X145453809Y-52730344D01*
X145268655Y-52690989D01*
X145268653Y-52690989D01*
X145079361Y-52690989D01*
X145079359Y-52690989D01*
X144894204Y-52730344D01*
X144721276Y-52807337D01*
X144568136Y-52918599D01*
X144441473Y-53059272D01*
X144346827Y-53223204D01*
X144288333Y-53403231D01*
X144288332Y-53403233D01*
X144288333Y-53403233D01*
X144287283Y-53413220D01*
X144262732Y-53475227D01*
X144209609Y-53515549D01*
X144143282Y-53522519D01*
X144082938Y-53494123D01*
X144046032Y-53438573D01*
X144042179Y-53426716D01*
X143947533Y-53262783D01*
X143820870Y-53122110D01*
X143667730Y-53010848D01*
X143494802Y-52933855D01*
X143309648Y-52894500D01*
X143309646Y-52894500D01*
X143120354Y-52894500D01*
X143120352Y-52894500D01*
X142935197Y-52933855D01*
X142762269Y-53010848D01*
X142609129Y-53122110D01*
X142482466Y-53262783D01*
X142387820Y-53426715D01*
X142329326Y-53606742D01*
X142309540Y-53794999D01*
X142329326Y-53983259D01*
X142339046Y-54013172D01*
X142344436Y-54064450D01*
X142328503Y-54113488D01*
X142294003Y-54151805D01*
X142279129Y-54162611D01*
X142161648Y-54293086D01*
X142112721Y-54326336D01*
X142053957Y-54333135D01*
X141998730Y-54311935D01*
X141959610Y-54267562D01*
X141945499Y-54210113D01*
X141945499Y-53742130D01*
X141944400Y-53731904D01*
X141939091Y-53682517D01*
X141888796Y-53547669D01*
X141802546Y-53432454D01*
X141687331Y-53346204D01*
X141552483Y-53295909D01*
X141492873Y-53289500D01*
X141492869Y-53289500D01*
X140397130Y-53289500D01*
X140337515Y-53295909D01*
X140202669Y-53346204D01*
X140087454Y-53432454D01*
X140001204Y-53547668D01*
X139950909Y-53682516D01*
X139945938Y-53728755D01*
X139925339Y-53785003D01*
X139880776Y-53825032D01*
X139822648Y-53839500D01*
X139625352Y-53839500D01*
X139440199Y-53878854D01*
X139321305Y-53931790D01*
X139257909Y-53941831D01*
X139197985Y-53918829D01*
X139174682Y-53901898D01*
X139001757Y-53824907D01*
X138816603Y-53785552D01*
X138816601Y-53785552D01*
X138627309Y-53785552D01*
X138627307Y-53785552D01*
X138442152Y-53824907D01*
X138269224Y-53901900D01*
X138116084Y-54013162D01*
X137989421Y-54153835D01*
X137894775Y-54317767D01*
X137836281Y-54497794D01*
X137816495Y-54686052D01*
X135159097Y-54686052D01*
X135242575Y-54668308D01*
X135299803Y-54656144D01*
X135472730Y-54579151D01*
X135545688Y-54526144D01*
X135625870Y-54467889D01*
X135752533Y-54327216D01*
X135847179Y-54163284D01*
X135868114Y-54098853D01*
X135905674Y-53983256D01*
X135925460Y-53795000D01*
X135905674Y-53606744D01*
X135851032Y-53438573D01*
X135847179Y-53426715D01*
X135752533Y-53262783D01*
X135625870Y-53122110D01*
X135472730Y-53010848D01*
X135299802Y-52933855D01*
X135114648Y-52894500D01*
X135114646Y-52894500D01*
X134925354Y-52894500D01*
X134925352Y-52894500D01*
X134740197Y-52933855D01*
X134567269Y-53010848D01*
X134414129Y-53122110D01*
X134287466Y-53262783D01*
X134192820Y-53426715D01*
X134134326Y-53606742D01*
X134114540Y-53795000D01*
X129649788Y-53795000D01*
X129616651Y-53770925D01*
X129590870Y-53726271D01*
X129576653Y-53682517D01*
X129573306Y-53672216D01*
X129571624Y-53669303D01*
X129478660Y-53508283D01*
X129351997Y-53367610D01*
X129198857Y-53256348D01*
X129025929Y-53179355D01*
X128840775Y-53140000D01*
X128840773Y-53140000D01*
X128651481Y-53140000D01*
X128651479Y-53140000D01*
X128466324Y-53179355D01*
X128293396Y-53256348D01*
X128140256Y-53367610D01*
X128013593Y-53508283D01*
X127918947Y-53672215D01*
X127860453Y-53852242D01*
X127840667Y-54040500D01*
X123610605Y-54040500D01*
X123611172Y-54038756D01*
X123630958Y-53850500D01*
X123611172Y-53662244D01*
X123560809Y-53507244D01*
X123552677Y-53482215D01*
X123458031Y-53318283D01*
X123331368Y-53177610D01*
X123178228Y-53066348D01*
X123005300Y-52989355D01*
X122820146Y-52950000D01*
X122820144Y-52950000D01*
X122630852Y-52950000D01*
X122630850Y-52950000D01*
X122445695Y-52989355D01*
X122272767Y-53066348D01*
X122119627Y-53177610D01*
X121992964Y-53318283D01*
X121898318Y-53482215D01*
X121839824Y-53662242D01*
X121820038Y-53850500D01*
X109541550Y-53850500D01*
X109550802Y-52255000D01*
X110354357Y-52255000D01*
X110355312Y-52265308D01*
X110374885Y-52476537D01*
X110435769Y-52690526D01*
X110534941Y-52889688D01*
X110669019Y-53067237D01*
X110833437Y-53217124D01*
X111022595Y-53334245D01*
X111022597Y-53334245D01*
X111022599Y-53334247D01*
X111230060Y-53414618D01*
X111448757Y-53455500D01*
X111671241Y-53455500D01*
X111671243Y-53455500D01*
X111889940Y-53414618D01*
X112097401Y-53334247D01*
X112286562Y-53217124D01*
X112379078Y-53132784D01*
X112450980Y-53067237D01*
X112451651Y-53066349D01*
X112585058Y-52889689D01*
X112684229Y-52690528D01*
X112684861Y-52688309D01*
X112707116Y-52610085D01*
X112745115Y-52476536D01*
X112765643Y-52255000D01*
X112745115Y-52033464D01*
X112711975Y-51916990D01*
X112684230Y-51819473D01*
X112585058Y-51620311D01*
X112450980Y-51442762D01*
X112286562Y-51292875D01*
X112097404Y-51175754D01*
X112036174Y-51152033D01*
X111889940Y-51095382D01*
X111671243Y-51054500D01*
X111448757Y-51054500D01*
X111230060Y-51095381D01*
X111230060Y-51095382D01*
X111022595Y-51175754D01*
X110833437Y-51292875D01*
X110669019Y-51442762D01*
X110534941Y-51620311D01*
X110435769Y-51819473D01*
X110374885Y-52033462D01*
X110355310Y-52244718D01*
X110354357Y-52255000D01*
X109550802Y-52255000D01*
X109556895Y-51204155D01*
X109565889Y-51158510D01*
X109591070Y-51119394D01*
X110320855Y-50352658D01*
X110349993Y-50330012D01*
X110384507Y-50316943D01*
X111029232Y-50177794D01*
X111055426Y-50175004D01*
X156472501Y-50189597D01*
G37*
%TD.AperFunction*%
%TD*%
M02*
