%TF.GenerationSoftware,KiCad,Pcbnew,7.0.1*%
%TF.CreationDate,2023-06-28T01:29:01+03:00*%
%TF.ProjectId,board,626f6172-642e-46b6-9963-61645f706362,rev?*%
%TF.SameCoordinates,Original*%
%TF.FileFunction,Paste,Bot*%
%TF.FilePolarity,Positive*%
%FSLAX46Y46*%
G04 Gerber Fmt 4.6, Leading zero omitted, Abs format (unit mm)*
G04 Created by KiCad (PCBNEW 7.0.1) date 2023-06-28 01:29:01*
%MOMM*%
%LPD*%
G01*
G04 APERTURE LIST*
%ADD10R,1.700000X1.700000*%
%ADD11C,1.700000*%
%ADD12R,4.200000X1.350000*%
G04 APERTURE END LIST*
D10*
%TO.C,Pad_pin_7*%
X153980000Y-52220000D03*
D11*
X155980000Y-52220000D03*
X157980000Y-52220000D03*
%TD*%
D10*
%TO.C,Pad_pin_11*%
X117950000Y-78065000D03*
D11*
X119950000Y-78065000D03*
X121950000Y-78065000D03*
%TD*%
D10*
%TO.C,Pad_pin_9*%
X169270000Y-78060000D03*
D11*
X171270000Y-78060000D03*
X173270000Y-78060000D03*
%TD*%
D10*
%TO.C,Pad_pin_15*%
X165950000Y-52190000D03*
D11*
X167950000Y-52190000D03*
X169950000Y-52190000D03*
%TD*%
D10*
%TO.C,Pad_pin_14*%
X142945000Y-78060000D03*
D11*
X144945000Y-78060000D03*
X146945000Y-78060000D03*
%TD*%
D10*
%TO.C,Pad_pin_8*%
X159970000Y-52210000D03*
D11*
X161970000Y-52210000D03*
X163970000Y-52210000D03*
%TD*%
D10*
%TO.C,Pad_pin_6*%
X147980000Y-52220000D03*
D11*
X149980000Y-52220000D03*
X151980000Y-52220000D03*
%TD*%
D10*
%TO.C,Pad_pin_13*%
X123950000Y-78065000D03*
D11*
X125950000Y-78065000D03*
X127950000Y-78065000D03*
%TD*%
D10*
%TO.C,Pad_pin_1*%
X118000000Y-52240000D03*
D11*
X120000000Y-52240000D03*
X122000000Y-52240000D03*
%TD*%
D10*
%TO.C,Pad_pin_16*%
X171940000Y-52180000D03*
D11*
X173940000Y-52180000D03*
X175940000Y-52180000D03*
%TD*%
D12*
%TO.C,J11*%
X111485000Y-61635000D03*
X111485000Y-67285000D03*
%TD*%
D10*
%TO.C,Pad_pin_10*%
X136945000Y-78060000D03*
D11*
X138945000Y-78060000D03*
X140945000Y-78060000D03*
%TD*%
D10*
%TO.C,Pad_pin_4*%
X135990000Y-52230000D03*
D11*
X137990000Y-52230000D03*
X139990000Y-52230000D03*
%TD*%
D10*
%TO.C,Pad_pin_2*%
X124000000Y-52240000D03*
D11*
X126000000Y-52240000D03*
X128000000Y-52240000D03*
%TD*%
D10*
%TO.C,Pad_pin_3*%
X130000000Y-52240000D03*
D11*
X132000000Y-52240000D03*
X134000000Y-52240000D03*
%TD*%
D10*
%TO.C,Pad_pin_5*%
X141990000Y-52230000D03*
D11*
X143990000Y-52230000D03*
X145990000Y-52230000D03*
%TD*%
D10*
%TO.C,Pad_pin_12*%
X148945000Y-78060000D03*
D11*
X150945000Y-78060000D03*
X152945000Y-78060000D03*
%TD*%
M02*
