%TF.GenerationSoftware,KiCad,Pcbnew,7.0.1*%
%TF.CreationDate,2023-06-28T01:29:01+03:00*%
%TF.ProjectId,board,626f6172-642e-46b6-9963-61645f706362,rev?*%
%TF.SameCoordinates,Original*%
%TF.FileFunction,Paste,Top*%
%TF.FilePolarity,Positive*%
%FSLAX46Y46*%
G04 Gerber Fmt 4.6, Leading zero omitted, Abs format (unit mm)*
G04 Created by KiCad (PCBNEW 7.0.1) date 2023-06-28 01:29:01*
%MOMM*%
%LPD*%
G01*
G04 APERTURE LIST*
G04 Aperture macros list*
%AMRoundRect*
0 Rectangle with rounded corners*
0 $1 Rounding radius*
0 $2 $3 $4 $5 $6 $7 $8 $9 X,Y pos of 4 corners*
0 Add a 4 corners polygon primitive as box body*
4,1,4,$2,$3,$4,$5,$6,$7,$8,$9,$2,$3,0*
0 Add four circle primitives for the rounded corners*
1,1,$1+$1,$2,$3*
1,1,$1+$1,$4,$5*
1,1,$1+$1,$6,$7*
1,1,$1+$1,$8,$9*
0 Add four rect primitives between the rounded corners*
20,1,$1+$1,$2,$3,$4,$5,0*
20,1,$1+$1,$4,$5,$6,$7,0*
20,1,$1+$1,$6,$7,$8,$9,0*
20,1,$1+$1,$8,$9,$2,$3,0*%
G04 Aperture macros list end*
%ADD10C,0.254000*%
%ADD11R,1.200000X0.450000*%
%ADD12RoundRect,0.079500X-0.100500X0.079500X-0.100500X-0.079500X0.100500X-0.079500X0.100500X0.079500X0*%
%ADD13RoundRect,0.147500X0.172500X-0.147500X0.172500X0.147500X-0.172500X0.147500X-0.172500X-0.147500X0*%
%ADD14RoundRect,0.200000X0.275000X-0.200000X0.275000X0.200000X-0.275000X0.200000X-0.275000X-0.200000X0*%
%ADD15RoundRect,0.225000X0.250000X-0.225000X0.250000X0.225000X-0.250000X0.225000X-0.250000X-0.225000X0*%
%ADD16RoundRect,0.067500X-0.067500X-0.067500X0.067500X-0.067500X0.067500X0.067500X-0.067500X0.067500X0*%
%ADD17RoundRect,0.067500X0.067500X0.067500X-0.067500X0.067500X-0.067500X-0.067500X0.067500X-0.067500X0*%
%ADD18R,1.800000X1.230000*%
%ADD19RoundRect,0.250000X0.250000X0.475000X-0.250000X0.475000X-0.250000X-0.475000X0.250000X-0.475000X0*%
%ADD20R,3.150000X1.800000*%
%ADD21R,1.230000X1.800000*%
%ADD22R,1.000000X0.750000*%
%ADD23RoundRect,0.250000X-0.250000X-0.475000X0.250000X-0.475000X0.250000X0.475000X-0.250000X0.475000X0*%
%ADD24RoundRect,0.225000X-0.225000X-0.250000X0.225000X-0.250000X0.225000X0.250000X-0.225000X0.250000X0*%
%ADD25RoundRect,0.147500X0.147500X0.172500X-0.147500X0.172500X-0.147500X-0.172500X0.147500X-0.172500X0*%
%ADD26RoundRect,0.225000X0.225000X0.250000X-0.225000X0.250000X-0.225000X-0.250000X0.225000X-0.250000X0*%
%ADD27R,2.200000X1.550000*%
%ADD28RoundRect,0.067500X0.067500X-0.067500X0.067500X0.067500X-0.067500X0.067500X-0.067500X-0.067500X0*%
%ADD29R,0.660400X1.752600*%
%ADD30R,7.899400X4.292600*%
%ADD31R,1.498600X0.497840*%
%ADD32R,0.497840X1.498600*%
%ADD33RoundRect,0.200000X-0.200000X-0.275000X0.200000X-0.275000X0.200000X0.275000X-0.200000X0.275000X0*%
%ADD34RoundRect,0.067500X-0.067500X0.067500X-0.067500X-0.067500X0.067500X-0.067500X0.067500X0.067500X0*%
%ADD35RoundRect,0.250000X0.450000X-0.262500X0.450000X0.262500X-0.450000X0.262500X-0.450000X-0.262500X0*%
%ADD36RoundRect,0.250000X0.325000X0.650000X-0.325000X0.650000X-0.325000X-0.650000X0.325000X-0.650000X0*%
%ADD37RoundRect,0.225000X-0.250000X0.225000X-0.250000X-0.225000X0.250000X-0.225000X0.250000X0.225000X0*%
%ADD38RoundRect,0.250000X-0.450000X0.262500X-0.450000X-0.262500X0.450000X-0.262500X0.450000X0.262500X0*%
%ADD39RoundRect,0.250000X0.262500X0.450000X-0.262500X0.450000X-0.262500X-0.450000X0.262500X-0.450000X0*%
%ADD40R,3.600000X1.270000*%
%ADD41R,4.200000X1.350000*%
%ADD42R,2.000000X3.500000*%
%ADD43R,1.899920X1.099820*%
%ADD44R,1.500000X2.000000*%
%ADD45RoundRect,0.250000X0.255000X0.255000X-0.255000X0.255000X-0.255000X-0.255000X0.255000X-0.255000X0*%
%ADD46RoundRect,0.062500X0.350000X0.062500X-0.350000X0.062500X-0.350000X-0.062500X0.350000X-0.062500X0*%
%ADD47RoundRect,0.062500X0.062500X0.350000X-0.062500X0.350000X-0.062500X-0.350000X0.062500X-0.350000X0*%
%ADD48RoundRect,0.200000X-0.275000X0.200000X-0.275000X-0.200000X0.275000X-0.200000X0.275000X0.200000X0*%
%ADD49R,0.950000X1.750000*%
%ADD50R,3.200000X1.750000*%
%ADD51R,1.100000X1.500000*%
%ADD52R,1.200000X1.750000*%
%ADD53R,1.600000X1.750000*%
%ADD54RoundRect,0.250000X0.625000X-0.312500X0.625000X0.312500X-0.625000X0.312500X-0.625000X-0.312500X0*%
%ADD55R,0.497840X2.499360*%
%ADD56R,1.998980X2.499360*%
%ADD57RoundRect,0.250000X-0.625000X0.312500X-0.625000X-0.312500X0.625000X-0.312500X0.625000X0.312500X0*%
G04 APERTURE END LIST*
%TO.C,U1*%
D10*
X133550000Y-69980000D02*
X131950000Y-69980000D01*
X131950000Y-68180000D01*
X133550000Y-68180000D01*
X133550000Y-69980000D01*
G36*
X133550000Y-69980000D02*
G01*
X131950000Y-69980000D01*
X131950000Y-68180000D01*
X133550000Y-68180000D01*
X133550000Y-69980000D01*
G37*
X135550000Y-69980000D02*
X133950000Y-69980000D01*
X133950000Y-68180000D01*
X135550000Y-68180000D01*
X135550000Y-69980000D01*
G36*
X135550000Y-69980000D02*
G01*
X133950000Y-69980000D01*
X133950000Y-68180000D01*
X135550000Y-68180000D01*
X135550000Y-69980000D01*
G37*
X131650000Y-68879997D02*
X129850010Y-68879997D01*
X129850010Y-67080003D01*
X131650000Y-67080003D01*
X131650000Y-68879997D01*
G36*
X131650000Y-68879997D02*
G01*
X129850010Y-68879997D01*
X129850010Y-67080003D01*
X131650000Y-67080003D01*
X131650000Y-68879997D01*
G37*
X137649990Y-68879997D02*
X135850000Y-68879997D01*
X135850000Y-67080003D01*
X137649990Y-67080003D01*
X137649990Y-68879997D01*
G36*
X137649990Y-68879997D02*
G01*
X135850000Y-68879997D01*
X135850000Y-67080003D01*
X137649990Y-67080003D01*
X137649990Y-68879997D01*
G37*
X133550000Y-67780000D02*
X131950000Y-67780000D01*
X131950000Y-65980000D01*
X133550000Y-65980000D01*
X133550000Y-67780000D01*
G36*
X133550000Y-67780000D02*
G01*
X131950000Y-67780000D01*
X131950000Y-65980000D01*
X133550000Y-65980000D01*
X133550000Y-67780000D01*
G37*
X135550000Y-67780000D02*
X133950000Y-67780000D01*
X133950000Y-65980000D01*
X135550000Y-65980000D01*
X135550000Y-67780000D01*
G36*
X135550000Y-67780000D02*
G01*
X133950000Y-67780000D01*
X133950000Y-65980000D01*
X135550000Y-65980000D01*
X135550000Y-67780000D01*
G37*
%TO.C,U3*%
X184650000Y-67780000D02*
X183050000Y-67780000D01*
X183050000Y-65980000D01*
X184650000Y-65980000D01*
X184650000Y-67780000D01*
G36*
X184650000Y-67780000D02*
G01*
X183050000Y-67780000D01*
X183050000Y-65980000D01*
X184650000Y-65980000D01*
X184650000Y-67780000D01*
G37*
X182650000Y-67780000D02*
X181050000Y-67780000D01*
X181050000Y-65980000D01*
X182650000Y-65980000D01*
X182650000Y-67780000D01*
G36*
X182650000Y-67780000D02*
G01*
X181050000Y-67780000D01*
X181050000Y-65980000D01*
X182650000Y-65980000D01*
X182650000Y-67780000D01*
G37*
X186749990Y-68879997D02*
X184950000Y-68879997D01*
X184950000Y-67080003D01*
X186749990Y-67080003D01*
X186749990Y-68879997D01*
G36*
X186749990Y-68879997D02*
G01*
X184950000Y-68879997D01*
X184950000Y-67080003D01*
X186749990Y-67080003D01*
X186749990Y-68879997D01*
G37*
X180750000Y-68879997D02*
X178950010Y-68879997D01*
X178950010Y-67080003D01*
X180750000Y-67080003D01*
X180750000Y-68879997D01*
G36*
X180750000Y-68879997D02*
G01*
X178950010Y-68879997D01*
X178950010Y-67080003D01*
X180750000Y-67080003D01*
X180750000Y-68879997D01*
G37*
X184650000Y-69980000D02*
X183050000Y-69980000D01*
X183050000Y-68180000D01*
X184650000Y-68180000D01*
X184650000Y-69980000D01*
G36*
X184650000Y-69980000D02*
G01*
X183050000Y-69980000D01*
X183050000Y-68180000D01*
X184650000Y-68180000D01*
X184650000Y-69980000D01*
G37*
X182650000Y-69980000D02*
X181050000Y-69980000D01*
X181050000Y-68180000D01*
X182650000Y-68180000D01*
X182650000Y-69980000D01*
G36*
X182650000Y-69980000D02*
G01*
X181050000Y-69980000D01*
X181050000Y-68180000D01*
X182650000Y-68180000D01*
X182650000Y-69980000D01*
G37*
%TD*%
D11*
%TO.C,IC1*%
X165065000Y-71510000D03*
X165065000Y-70860000D03*
X165065000Y-70210000D03*
X165065000Y-69560000D03*
X162565000Y-69560000D03*
X162565000Y-70210000D03*
X162565000Y-70860000D03*
X162565000Y-71510000D03*
%TD*%
D12*
%TO.C,D1*%
X163304680Y-62112500D03*
X163304680Y-62802500D03*
%TD*%
D13*
%TO.C,L1*%
X116710000Y-65120000D03*
X116710000Y-64150000D03*
%TD*%
D14*
%TO.C,R5*%
X153340000Y-57590000D03*
X153340000Y-55940000D03*
%TD*%
D15*
%TO.C,C2*%
X150060000Y-57600000D03*
X150060000Y-56050000D03*
%TD*%
D16*
%TO.C,C15*%
X114750000Y-62300000D03*
X115300000Y-62300000D03*
%TD*%
D15*
%TO.C,C6*%
X142200000Y-63350000D03*
X142200000Y-61800000D03*
%TD*%
D14*
%TO.C,R2*%
X161140680Y-62740900D03*
X161140680Y-61090900D03*
%TD*%
D17*
%TO.C,C13*%
X114600000Y-64115000D03*
X114050000Y-64115000D03*
%TD*%
D18*
%TO.C,C24*%
X121470000Y-79280000D03*
X118850000Y-79280000D03*
%TD*%
D19*
%TO.C,C28*%
X180985000Y-78975000D03*
X179085000Y-78975000D03*
%TD*%
D20*
%TO.C,C11*%
X149305000Y-76370000D03*
X144205000Y-76370000D03*
%TD*%
D21*
%TO.C,C25*%
X126270000Y-78300000D03*
X126270000Y-75680000D03*
%TD*%
D22*
%TO.C,S2*%
X119325000Y-53900000D03*
X123825000Y-53900000D03*
X119325000Y-51750000D03*
X123825000Y-51750000D03*
%TD*%
D15*
%TO.C,C1*%
X148575000Y-57590000D03*
X148575000Y-56040000D03*
%TD*%
D23*
%TO.C,C3*%
X155065000Y-60345000D03*
X156965000Y-60345000D03*
%TD*%
D24*
%TO.C,C21*%
X125430000Y-61525000D03*
X126980000Y-61525000D03*
%TD*%
D14*
%TO.C,R11*%
X160135000Y-73090000D03*
X160135000Y-71440000D03*
%TD*%
D25*
%TO.C,L3*%
X115600000Y-65150000D03*
X114630000Y-65150000D03*
%TD*%
D26*
%TO.C,C33*%
X177375000Y-64965000D03*
X175825000Y-64965000D03*
%TD*%
D19*
%TO.C,C32*%
X158050000Y-71125000D03*
X156150000Y-71125000D03*
%TD*%
D24*
%TO.C,C23*%
X118650000Y-68800000D03*
X120200000Y-68800000D03*
%TD*%
D27*
%TO.C,D3*%
X156690000Y-75340000D03*
X160790000Y-75340000D03*
%TD*%
D28*
%TO.C,C16*%
X113805000Y-65390000D03*
X113805000Y-64840000D03*
%TD*%
D19*
%TO.C,C27*%
X139110000Y-78230000D03*
X137210000Y-78230000D03*
%TD*%
D13*
%TO.C,L2*%
X115600000Y-64210000D03*
X115600000Y-63240000D03*
%TD*%
D29*
%TO.C,U1*%
X131260800Y-72780600D03*
X132251400Y-72780600D03*
X133242000Y-72780600D03*
X134258000Y-72780600D03*
X135248600Y-72780600D03*
X136239200Y-72780600D03*
X136239200Y-63179400D03*
X135248600Y-63179400D03*
X134258000Y-63179400D03*
X133242000Y-63179400D03*
X132251400Y-63179400D03*
X131260800Y-63179400D03*
D30*
X133750000Y-67980000D03*
%TD*%
D29*
%TO.C,U3*%
X185339200Y-63179400D03*
X184348600Y-63179400D03*
X183358000Y-63179400D03*
X182342000Y-63179400D03*
X181351400Y-63179400D03*
X180360800Y-63179400D03*
X180360800Y-72780600D03*
X181351400Y-72780600D03*
X182342000Y-72780600D03*
X183358000Y-72780600D03*
X184348600Y-72780600D03*
X185339200Y-72780600D03*
D30*
X182850000Y-67980000D03*
%TD*%
D31*
%TO.C,U2*%
X155673820Y-69712960D03*
X155673820Y-68912860D03*
X155673820Y-68112760D03*
X155673820Y-67312660D03*
X155673820Y-66512560D03*
X155673820Y-65715000D03*
X155673820Y-64917440D03*
X155673820Y-64117340D03*
X155673820Y-63317240D03*
X155673820Y-62517140D03*
X155673820Y-61717040D03*
D32*
X153872960Y-59916180D03*
X153072860Y-59916180D03*
X152272760Y-59916180D03*
X151472660Y-59916180D03*
X150672560Y-59916180D03*
X149875000Y-59916180D03*
X149077440Y-59916180D03*
X148277340Y-59916180D03*
X147477240Y-59916180D03*
X146677140Y-59916180D03*
X145877040Y-59916180D03*
D31*
X144076180Y-61717040D03*
X144076180Y-62517140D03*
X144076180Y-63317240D03*
X144076180Y-64117340D03*
X144076180Y-64917440D03*
X144076180Y-65715000D03*
X144076180Y-66512560D03*
X144076180Y-67312660D03*
X144076180Y-68112760D03*
X144076180Y-68912860D03*
X144076180Y-69712960D03*
D32*
X145877040Y-71513820D03*
X146677140Y-71513820D03*
X147477240Y-71513820D03*
X148277340Y-71513820D03*
X149077440Y-71513820D03*
X149875000Y-71513820D03*
X150672560Y-71513820D03*
X151472660Y-71513820D03*
X152272760Y-71513820D03*
X153072860Y-71513820D03*
X153872960Y-71513820D03*
%TD*%
D33*
%TO.C,R15*%
X170430000Y-63115000D03*
X172080000Y-63115000D03*
%TD*%
D34*
%TO.C,R7*%
X120180000Y-66515000D03*
X120180000Y-67065000D03*
%TD*%
D27*
%TO.C,D2*%
X155155000Y-78925000D03*
X151055000Y-78925000D03*
%TD*%
D35*
%TO.C,R10*%
X188390000Y-73717500D03*
X188390000Y-71892500D03*
%TD*%
D26*
%TO.C,C18*%
X120125000Y-59510000D03*
X118575000Y-59510000D03*
%TD*%
D24*
%TO.C,C17*%
X122200000Y-59510000D03*
X123750000Y-59510000D03*
%TD*%
D36*
%TO.C,C36*%
X172155000Y-65860000D03*
X169205000Y-65860000D03*
%TD*%
D37*
%TO.C,C8*%
X151540000Y-56560000D03*
X151540000Y-58110000D03*
%TD*%
D38*
%TO.C,R9*%
X188345000Y-57177500D03*
X188345000Y-59002500D03*
%TD*%
D23*
%TO.C,C34*%
X175515000Y-66760000D03*
X177415000Y-66760000D03*
%TD*%
D24*
%TO.C,C31*%
X157800000Y-69270000D03*
X159350000Y-69270000D03*
%TD*%
D16*
%TO.C,C14*%
X114750000Y-61600000D03*
X115300000Y-61600000D03*
%TD*%
D26*
%TO.C,C10*%
X153500000Y-75100000D03*
X151950000Y-75100000D03*
%TD*%
D24*
%TO.C,C22*%
X122750000Y-68800000D03*
X124300000Y-68800000D03*
%TD*%
D39*
%TO.C,R13*%
X170997500Y-67990000D03*
X169172500Y-67990000D03*
%TD*%
D23*
%TO.C,C29*%
X179020000Y-76890000D03*
X180920000Y-76890000D03*
%TD*%
D40*
%TO.C,J11*%
X111285000Y-64460000D03*
D41*
X111485000Y-61635000D03*
X111485000Y-67285000D03*
%TD*%
D42*
%TO.C,L4*%
X177155000Y-74950000D03*
X168155000Y-74950000D03*
%TD*%
D43*
%TO.C,Y2*%
X144270580Y-57820850D03*
X140572340Y-57820850D03*
X140572340Y-60117010D03*
X144270580Y-60117010D03*
%TD*%
D44*
%TO.C,LS1*%
X137890000Y-58795000D03*
X127990000Y-58795000D03*
X127990000Y-52395000D03*
X137890000Y-52395000D03*
%TD*%
D14*
%TO.C,R3*%
X159494680Y-62875000D03*
X159494680Y-61225000D03*
%TD*%
D45*
%TO.C,U4*%
X122550000Y-64150000D03*
X122550000Y-62900000D03*
X121300000Y-64150000D03*
X121300000Y-62900000D03*
D46*
X123862500Y-64525000D03*
X123862500Y-64025000D03*
X123862500Y-63525000D03*
X123862500Y-63025000D03*
X123862500Y-62525000D03*
D47*
X122925000Y-61587500D03*
X122425000Y-61587500D03*
X121925000Y-61587500D03*
X121425000Y-61587500D03*
X120925000Y-61587500D03*
D46*
X119987500Y-62525000D03*
X119987500Y-63025000D03*
X119987500Y-63525000D03*
X119987500Y-64025000D03*
X119987500Y-64525000D03*
D47*
X120925000Y-65462500D03*
X121425000Y-65462500D03*
X121925000Y-65462500D03*
X122425000Y-65462500D03*
X122925000Y-65462500D03*
%TD*%
D19*
%TO.C,C26*%
X131945000Y-75895000D03*
X130045000Y-75895000D03*
%TD*%
D48*
%TO.C,R8*%
X125320000Y-52480000D03*
X125320000Y-54130000D03*
%TD*%
D23*
%TO.C,C35*%
X175510000Y-68730000D03*
X177410000Y-68730000D03*
%TD*%
D49*
%TO.C,IC2*%
X119535000Y-77210000D03*
X121835000Y-77210000D03*
X124135000Y-77210000D03*
D50*
X121835000Y-70910000D03*
%TD*%
D35*
%TO.C,R12*%
X166920000Y-70850000D03*
X166920000Y-69025000D03*
%TD*%
D19*
%TO.C,C30*%
X158050000Y-73020000D03*
X156150000Y-73020000D03*
%TD*%
D51*
%TO.C,S3*%
X174995000Y-51545000D03*
X174995000Y-60445000D03*
X172455000Y-51545000D03*
X172455000Y-60445000D03*
X169915000Y-51545000D03*
X169915000Y-60445000D03*
%TD*%
D52*
%TO.C,VR1*%
X146165000Y-51340000D03*
D53*
X145015000Y-55390000D03*
D52*
X143865000Y-51340000D03*
%TD*%
D54*
%TO.C,R4*%
X163390680Y-67315900D03*
X163390680Y-64390900D03*
%TD*%
D33*
%TO.C,R16*%
X173315000Y-63115000D03*
X174965000Y-63115000D03*
%TD*%
D22*
%TO.C,S1*%
X152830000Y-50755000D03*
X148330000Y-50755000D03*
X152830000Y-52905000D03*
X148330000Y-52905000D03*
%TD*%
D26*
%TO.C,C7*%
X144765000Y-71635000D03*
X143215000Y-71635000D03*
%TD*%
D55*
%TO.C,J1*%
X160342340Y-57040000D03*
X161139900Y-57040000D03*
X158744680Y-57040000D03*
X159544780Y-57040000D03*
D56*
X164840680Y-51540900D03*
X164840680Y-57040000D03*
X155844000Y-51540900D03*
X155844000Y-57040000D03*
D55*
X161940000Y-57040000D03*
%TD*%
D16*
%TO.C,R6*%
X120935000Y-60555000D03*
X121485000Y-60555000D03*
%TD*%
D17*
%TO.C,C19*%
X123075000Y-67350000D03*
X122525000Y-67350000D03*
%TD*%
D43*
%TO.C,Y1*%
X123103240Y-55793840D03*
X119405000Y-55793840D03*
X119405000Y-58090000D03*
X123103240Y-58090000D03*
%TD*%
D39*
%TO.C,R14*%
X167582500Y-67085000D03*
X165757500Y-67085000D03*
%TD*%
D23*
%TO.C,C4*%
X162684680Y-59430000D03*
X164584680Y-59430000D03*
%TD*%
D36*
%TO.C,C12*%
X165225000Y-73480000D03*
X162275000Y-73480000D03*
%TD*%
D57*
%TO.C,R1*%
X141390000Y-70562500D03*
X141390000Y-73487500D03*
%TD*%
D19*
%TO.C,C20*%
X126865000Y-70895000D03*
X124965000Y-70895000D03*
%TD*%
D26*
%TO.C,C9*%
X159495000Y-59085000D03*
X157945000Y-59085000D03*
%TD*%
D24*
%TO.C,C5*%
X159620000Y-67005000D03*
X161170000Y-67005000D03*
%TD*%
M02*
