%TF.GenerationSoftware,KiCad,Pcbnew,7.0.1*%
%TF.CreationDate,2023-06-28T01:29:01+03:00*%
%TF.ProjectId,board,626f6172-642e-46b6-9963-61645f706362,rev?*%
%TF.SameCoordinates,Original*%
%TF.FileFunction,Other,Comment*%
%FSLAX46Y46*%
G04 Gerber Fmt 4.6, Leading zero omitted, Abs format (unit mm)*
G04 Created by KiCad (PCBNEW 7.0.1) date 2023-06-28 01:29:01*
%MOMM*%
%LPD*%
G01*
G04 APERTURE LIST*
%ADD10C,0.100000*%
G04 APERTURE END LIST*
D10*
%TO.C,J11*%
X110458809Y-52735523D02*
X110515952Y-52754571D01*
X110515952Y-52754571D02*
X110534999Y-52773619D01*
X110534999Y-52773619D02*
X110554047Y-52811714D01*
X110554047Y-52811714D02*
X110554047Y-52868857D01*
X110554047Y-52868857D02*
X110534999Y-52906952D01*
X110534999Y-52906952D02*
X110515952Y-52926000D01*
X110515952Y-52926000D02*
X110477857Y-52945047D01*
X110477857Y-52945047D02*
X110325476Y-52945047D01*
X110325476Y-52945047D02*
X110325476Y-52545047D01*
X110325476Y-52545047D02*
X110458809Y-52545047D01*
X110458809Y-52545047D02*
X110496904Y-52564095D01*
X110496904Y-52564095D02*
X110515952Y-52583142D01*
X110515952Y-52583142D02*
X110534999Y-52621238D01*
X110534999Y-52621238D02*
X110534999Y-52659333D01*
X110534999Y-52659333D02*
X110515952Y-52697428D01*
X110515952Y-52697428D02*
X110496904Y-52716476D01*
X110496904Y-52716476D02*
X110458809Y-52735523D01*
X110458809Y-52735523D02*
X110325476Y-52735523D01*
X110782618Y-52945047D02*
X110744523Y-52926000D01*
X110744523Y-52926000D02*
X110725476Y-52906952D01*
X110725476Y-52906952D02*
X110706428Y-52868857D01*
X110706428Y-52868857D02*
X110706428Y-52754571D01*
X110706428Y-52754571D02*
X110725476Y-52716476D01*
X110725476Y-52716476D02*
X110744523Y-52697428D01*
X110744523Y-52697428D02*
X110782618Y-52678380D01*
X110782618Y-52678380D02*
X110839761Y-52678380D01*
X110839761Y-52678380D02*
X110877857Y-52697428D01*
X110877857Y-52697428D02*
X110896904Y-52716476D01*
X110896904Y-52716476D02*
X110915952Y-52754571D01*
X110915952Y-52754571D02*
X110915952Y-52868857D01*
X110915952Y-52868857D02*
X110896904Y-52906952D01*
X110896904Y-52906952D02*
X110877857Y-52926000D01*
X110877857Y-52926000D02*
X110839761Y-52945047D01*
X110839761Y-52945047D02*
X110782618Y-52945047D01*
X111258809Y-52945047D02*
X111258809Y-52735523D01*
X111258809Y-52735523D02*
X111239762Y-52697428D01*
X111239762Y-52697428D02*
X111201666Y-52678380D01*
X111201666Y-52678380D02*
X111125476Y-52678380D01*
X111125476Y-52678380D02*
X111087381Y-52697428D01*
X111258809Y-52926000D02*
X111220714Y-52945047D01*
X111220714Y-52945047D02*
X111125476Y-52945047D01*
X111125476Y-52945047D02*
X111087381Y-52926000D01*
X111087381Y-52926000D02*
X111068333Y-52887904D01*
X111068333Y-52887904D02*
X111068333Y-52849809D01*
X111068333Y-52849809D02*
X111087381Y-52811714D01*
X111087381Y-52811714D02*
X111125476Y-52792666D01*
X111125476Y-52792666D02*
X111220714Y-52792666D01*
X111220714Y-52792666D02*
X111258809Y-52773619D01*
X111449286Y-52945047D02*
X111449286Y-52678380D01*
X111449286Y-52754571D02*
X111468333Y-52716476D01*
X111468333Y-52716476D02*
X111487381Y-52697428D01*
X111487381Y-52697428D02*
X111525476Y-52678380D01*
X111525476Y-52678380D02*
X111563571Y-52678380D01*
X111868333Y-52945047D02*
X111868333Y-52545047D01*
X111868333Y-52926000D02*
X111830238Y-52945047D01*
X111830238Y-52945047D02*
X111754047Y-52945047D01*
X111754047Y-52945047D02*
X111715952Y-52926000D01*
X111715952Y-52926000D02*
X111696905Y-52906952D01*
X111696905Y-52906952D02*
X111677857Y-52868857D01*
X111677857Y-52868857D02*
X111677857Y-52754571D01*
X111677857Y-52754571D02*
X111696905Y-52716476D01*
X111696905Y-52716476D02*
X111715952Y-52697428D01*
X111715952Y-52697428D02*
X111754047Y-52678380D01*
X111754047Y-52678380D02*
X111830238Y-52678380D01*
X111830238Y-52678380D02*
X111868333Y-52697428D01*
X112306429Y-52545047D02*
X112535000Y-52545047D01*
X112420714Y-52945047D02*
X112420714Y-52545047D01*
X112668334Y-52945047D02*
X112668334Y-52545047D01*
X112839762Y-52945047D02*
X112839762Y-52735523D01*
X112839762Y-52735523D02*
X112820715Y-52697428D01*
X112820715Y-52697428D02*
X112782619Y-52678380D01*
X112782619Y-52678380D02*
X112725476Y-52678380D01*
X112725476Y-52678380D02*
X112687381Y-52697428D01*
X112687381Y-52697428D02*
X112668334Y-52716476D01*
X113030239Y-52945047D02*
X113030239Y-52678380D01*
X113030239Y-52545047D02*
X113011191Y-52564095D01*
X113011191Y-52564095D02*
X113030239Y-52583142D01*
X113030239Y-52583142D02*
X113049286Y-52564095D01*
X113049286Y-52564095D02*
X113030239Y-52545047D01*
X113030239Y-52545047D02*
X113030239Y-52583142D01*
X113392143Y-52926000D02*
X113354048Y-52945047D01*
X113354048Y-52945047D02*
X113277857Y-52945047D01*
X113277857Y-52945047D02*
X113239762Y-52926000D01*
X113239762Y-52926000D02*
X113220715Y-52906952D01*
X113220715Y-52906952D02*
X113201667Y-52868857D01*
X113201667Y-52868857D02*
X113201667Y-52754571D01*
X113201667Y-52754571D02*
X113220715Y-52716476D01*
X113220715Y-52716476D02*
X113239762Y-52697428D01*
X113239762Y-52697428D02*
X113277857Y-52678380D01*
X113277857Y-52678380D02*
X113354048Y-52678380D01*
X113354048Y-52678380D02*
X113392143Y-52697428D01*
X113563572Y-52945047D02*
X113563572Y-52545047D01*
X113601667Y-52792666D02*
X113715953Y-52945047D01*
X113715953Y-52678380D02*
X113563572Y-52830761D01*
X113887382Y-52678380D02*
X113887382Y-52945047D01*
X113887382Y-52716476D02*
X113906429Y-52697428D01*
X113906429Y-52697428D02*
X113944524Y-52678380D01*
X113944524Y-52678380D02*
X114001667Y-52678380D01*
X114001667Y-52678380D02*
X114039763Y-52697428D01*
X114039763Y-52697428D02*
X114058810Y-52735523D01*
X114058810Y-52735523D02*
X114058810Y-52945047D01*
X114401668Y-52926000D02*
X114363572Y-52945047D01*
X114363572Y-52945047D02*
X114287382Y-52945047D01*
X114287382Y-52945047D02*
X114249287Y-52926000D01*
X114249287Y-52926000D02*
X114230239Y-52887904D01*
X114230239Y-52887904D02*
X114230239Y-52735523D01*
X114230239Y-52735523D02*
X114249287Y-52697428D01*
X114249287Y-52697428D02*
X114287382Y-52678380D01*
X114287382Y-52678380D02*
X114363572Y-52678380D01*
X114363572Y-52678380D02*
X114401668Y-52697428D01*
X114401668Y-52697428D02*
X114420715Y-52735523D01*
X114420715Y-52735523D02*
X114420715Y-52773619D01*
X114420715Y-52773619D02*
X114230239Y-52811714D01*
X114573096Y-52926000D02*
X114611191Y-52945047D01*
X114611191Y-52945047D02*
X114687382Y-52945047D01*
X114687382Y-52945047D02*
X114725477Y-52926000D01*
X114725477Y-52926000D02*
X114744525Y-52887904D01*
X114744525Y-52887904D02*
X114744525Y-52868857D01*
X114744525Y-52868857D02*
X114725477Y-52830761D01*
X114725477Y-52830761D02*
X114687382Y-52811714D01*
X114687382Y-52811714D02*
X114630239Y-52811714D01*
X114630239Y-52811714D02*
X114592144Y-52792666D01*
X114592144Y-52792666D02*
X114573096Y-52754571D01*
X114573096Y-52754571D02*
X114573096Y-52735523D01*
X114573096Y-52735523D02*
X114592144Y-52697428D01*
X114592144Y-52697428D02*
X114630239Y-52678380D01*
X114630239Y-52678380D02*
X114687382Y-52678380D01*
X114687382Y-52678380D02*
X114725477Y-52697428D01*
X114896906Y-52926000D02*
X114935001Y-52945047D01*
X114935001Y-52945047D02*
X115011192Y-52945047D01*
X115011192Y-52945047D02*
X115049287Y-52926000D01*
X115049287Y-52926000D02*
X115068335Y-52887904D01*
X115068335Y-52887904D02*
X115068335Y-52868857D01*
X115068335Y-52868857D02*
X115049287Y-52830761D01*
X115049287Y-52830761D02*
X115011192Y-52811714D01*
X115011192Y-52811714D02*
X114954049Y-52811714D01*
X114954049Y-52811714D02*
X114915954Y-52792666D01*
X114915954Y-52792666D02*
X114896906Y-52754571D01*
X114896906Y-52754571D02*
X114896906Y-52735523D01*
X114896906Y-52735523D02*
X114915954Y-52697428D01*
X114915954Y-52697428D02*
X114954049Y-52678380D01*
X114954049Y-52678380D02*
X115011192Y-52678380D01*
X115011192Y-52678380D02*
X115049287Y-52697428D01*
X115239764Y-52906952D02*
X115258811Y-52926000D01*
X115258811Y-52926000D02*
X115239764Y-52945047D01*
X115239764Y-52945047D02*
X115220716Y-52926000D01*
X115220716Y-52926000D02*
X115239764Y-52906952D01*
X115239764Y-52906952D02*
X115239764Y-52945047D01*
X115239764Y-52697428D02*
X115258811Y-52716476D01*
X115258811Y-52716476D02*
X115239764Y-52735523D01*
X115239764Y-52735523D02*
X115220716Y-52716476D01*
X115220716Y-52716476D02*
X115239764Y-52697428D01*
X115239764Y-52697428D02*
X115239764Y-52735523D01*
X115944525Y-52945047D02*
X115715954Y-52945047D01*
X115830240Y-52945047D02*
X115830240Y-52545047D01*
X115830240Y-52545047D02*
X115792144Y-52602190D01*
X115792144Y-52602190D02*
X115754049Y-52640285D01*
X115754049Y-52640285D02*
X115715954Y-52659333D01*
X116115954Y-52906952D02*
X116135001Y-52926000D01*
X116135001Y-52926000D02*
X116115954Y-52945047D01*
X116115954Y-52945047D02*
X116096906Y-52926000D01*
X116096906Y-52926000D02*
X116115954Y-52906952D01*
X116115954Y-52906952D02*
X116115954Y-52945047D01*
X116496906Y-52545047D02*
X116306430Y-52545047D01*
X116306430Y-52545047D02*
X116287382Y-52735523D01*
X116287382Y-52735523D02*
X116306430Y-52716476D01*
X116306430Y-52716476D02*
X116344525Y-52697428D01*
X116344525Y-52697428D02*
X116439763Y-52697428D01*
X116439763Y-52697428D02*
X116477858Y-52716476D01*
X116477858Y-52716476D02*
X116496906Y-52735523D01*
X116496906Y-52735523D02*
X116515953Y-52773619D01*
X116515953Y-52773619D02*
X116515953Y-52868857D01*
X116515953Y-52868857D02*
X116496906Y-52906952D01*
X116496906Y-52906952D02*
X116477858Y-52926000D01*
X116477858Y-52926000D02*
X116439763Y-52945047D01*
X116439763Y-52945047D02*
X116344525Y-52945047D01*
X116344525Y-52945047D02*
X116306430Y-52926000D01*
X116306430Y-52926000D02*
X116287382Y-52906952D01*
X116649286Y-52545047D02*
X116915953Y-52545047D01*
X116915953Y-52545047D02*
X116744524Y-52945047D01*
X117068334Y-52945047D02*
X117068334Y-52678380D01*
X117068334Y-52716476D02*
X117087381Y-52697428D01*
X117087381Y-52697428D02*
X117125476Y-52678380D01*
X117125476Y-52678380D02*
X117182619Y-52678380D01*
X117182619Y-52678380D02*
X117220715Y-52697428D01*
X117220715Y-52697428D02*
X117239762Y-52735523D01*
X117239762Y-52735523D02*
X117239762Y-52945047D01*
X117239762Y-52735523D02*
X117258810Y-52697428D01*
X117258810Y-52697428D02*
X117296905Y-52678380D01*
X117296905Y-52678380D02*
X117354048Y-52678380D01*
X117354048Y-52678380D02*
X117392143Y-52697428D01*
X117392143Y-52697428D02*
X117411191Y-52735523D01*
X117411191Y-52735523D02*
X117411191Y-52945047D01*
X117601667Y-52945047D02*
X117601667Y-52678380D01*
X117601667Y-52716476D02*
X117620714Y-52697428D01*
X117620714Y-52697428D02*
X117658809Y-52678380D01*
X117658809Y-52678380D02*
X117715952Y-52678380D01*
X117715952Y-52678380D02*
X117754048Y-52697428D01*
X117754048Y-52697428D02*
X117773095Y-52735523D01*
X117773095Y-52735523D02*
X117773095Y-52945047D01*
X117773095Y-52735523D02*
X117792143Y-52697428D01*
X117792143Y-52697428D02*
X117830238Y-52678380D01*
X117830238Y-52678380D02*
X117887381Y-52678380D01*
X117887381Y-52678380D02*
X117925476Y-52697428D01*
X117925476Y-52697428D02*
X117944524Y-52735523D01*
X117944524Y-52735523D02*
X117944524Y-52945047D01*
%TD*%
M02*
