M48
; DRILL file {KiCad 7.0.1} date Wed Jun 28 01:29:01 2023
; FORMAT={-:-/ absolute / inch / decimal}
; #@! TF.CreationDate,2023-06-28T01:29:01+03:00
; #@! TF.GenerationSoftware,Kicad,Pcbnew,7.0.1
; #@! TF.FileFunction,Plated,1,4,PTH
FMAT,2
INCH
; #@! TA.AperFunction,Plated,PTH,ViaDrill
T1C0.0157
; #@! TA.AperFunction,Plated,PTH,ComponentDrill
T2C0.0256
; #@! TA.AperFunction,Plated,PTH,ComponentDrill
T3C0.0315
; #@! TA.AperFunction,Plated,PTH,ComponentDrill
T4C0.0394
%
G90
G05
T1
X4.3197Y-2.7045
X4.3197Y-2.7439
X4.3197Y-2.7911
X4.3217Y-2.238
X4.3217Y-2.299
X4.3217Y-2.3522
X4.3217Y-2.8463
X4.3217Y-2.8935
X4.3217Y-2.9427
X4.3217Y-2.9959
X4.3217Y-3.0411
X4.3217Y-3.0825
X4.3236Y-2.047
X4.3236Y-2.1061
X4.3236Y-2.1711
X4.3354Y-2.0018
X4.3354Y-3.1199
X4.3839Y-3.1358
X4.3856Y-2.3774
X4.3935Y-2.7047
X4.3937Y-1.9902
X4.4331Y-3.1358
X4.4469Y-1.9921
X4.4921Y-3.1358
X4.4961Y-1.9921
X4.5096Y-2.6226
X4.5394Y-2.3878
X4.5433Y-3.1358
X4.5453Y-1.9921
X4.5866Y-3.1339
X4.5886Y-2.2736
X4.5886Y-2.3248
X4.5886Y-2.3799
X4.5886Y-2.7264
X4.5886Y-2.8484
X4.5886Y-2.9094
X4.5886Y-2.9626
X4.5886Y-3.0295
X4.5886Y-3.0827
X4.5906Y-1.9941
X4.5906Y-2.0315
X4.5906Y-2.0709
X4.5906Y-2.1142
X4.5906Y-2.1575
X4.5906Y-2.1949
X4.5906Y-2.2323
X4.5906Y-2.4449
X4.5906Y-2.6142
X4.5906Y-2.6634
X4.5906Y-2.7894
X4.6321Y-2.6713
X4.6392Y-2.7618
X4.6402Y-2.8289
X4.6407Y-2.1967
X4.6683Y-2.4069
X4.6835Y-2.7705
X4.7717Y-2.6319
X4.787Y-2.7163
X4.801Y-2.9752
X4.8317Y-2.1201
X4.8583Y-2.6161
X4.8695Y-3.1344
X4.8803Y-2.7492
X4.8866Y-2.4256
X4.9014Y-2.9161
X4.9159Y-2.2913
X4.9232Y-2.3581
X4.9484Y-2.4669
X4.9597Y-2.6265
X4.9697Y-2.9077
X5.0073Y-2.8632
X5.0368Y-2.7309
X5.0571Y-2.4047
X5.0687Y-2.1276
X5.0783Y-2.9134
X5.0789Y-2.6575
X5.1088Y-2.154
X5.1226Y-3.0805
X5.1244Y-2.4522
X5.1407Y-2.9189
X5.177Y-2.8049
X5.1783Y-2.1949
X5.1941Y-2.9382
X5.3157Y-2.1179
X5.3246Y-2.9238
X5.3309Y-2.7868
X5.3368Y-2.3606
X5.338Y-3.0014
X5.3628Y-2.5594
X5.424Y-2.913
X5.452Y-2.8102
X5.452Y-2.6054
X5.4553Y-2.4504
X5.4615Y-2.153
X5.4768Y-2.2484
X5.4805Y-2.7583
X5.4805Y-2.5504
X5.4907Y-2.9264
X5.4978Y-3.1343
X5.5008Y-2.1551
X5.5825Y-2.8341
X5.5924Y-2.5836
X5.5933Y-3.0079
X5.6161Y-2.6809
X5.6254Y-2.1589
X5.6384Y-2.1179
X5.7155Y-2.1099
X5.7307Y-2.4925
X5.7311Y-2.5553
X5.7441Y-2.6953
X5.7561Y-2.5856
X5.7698Y-3.0195
X5.7709Y-2.5018
X5.7764Y-2.9148
X5.7901Y-2.1692
X5.8033Y-2.5842
X5.804Y-2.4196
X5.8062Y-2.7138
X5.8262Y-2.3059
X5.843Y-2.6661
X5.852Y-2.4785
X5.8822Y-2.6694
X5.8956Y-2.4163
X5.8999Y-2.1459
X5.9107Y-2.6276
X5.9215Y-2.6709
X5.924Y-2.4791
X5.935Y-2.4171
X5.9417Y-2.1444
X5.9564Y-2.4506
X5.9628Y-2.6699
X5.981Y-2.1426
X5.9813Y-2.5402
X5.9862Y-2.5832
X6.0048Y-2.4183
X6.0062Y-2.6669
X6.0122Y-2.9203
X6.0244Y-2.5738
X6.0281Y-2.3063
X6.0498Y-3.014
X6.0514Y-2.5029
X6.0564Y-2.4576
X6.0579Y-2.7433
X6.0669Y-2.1429
X6.0677Y-2.9131
X6.0884Y-2.7783
X6.0998Y-2.9358
X6.1044Y-2.8143
X6.1183Y-2.1433
X6.1331Y-2.3214
X6.1724Y-2.3185
X6.1848Y-2.6126
X6.1862Y-2.1128
X6.1899Y-2.5212
X6.1951Y-2.4386
X6.199Y-1.9923
X6.1993Y-2.4777
X6.2173Y-2.2463
X6.2271Y-2.6745
X6.2375Y-2.4238
X6.2758Y-2.1315
X6.3274Y-1.9957
X6.3311Y-2.6961
X6.3425Y-2.9028
X6.348Y-2.1419
X6.3747Y-2.5427
X6.3947Y-2.9626
X6.4382Y-2.8978
X6.4506Y-2.7055
X6.4744Y-2.1506
X6.4898Y-2.596
X6.5156Y-2.9907
X6.5671Y-2.3557
X6.5705Y-2.2134
X6.5821Y-3.0876
X6.602Y-2.1691
X6.7102Y-2.528
X6.727Y-2.114
X6.777Y-3.0258
X6.7896Y-2.2362
X6.85Y-2.5577
X6.8913Y-2.114
X6.8937Y-3.0305
X6.9463Y-2.3781
X6.9514Y-2.4278
X6.9526Y-2.4764
X6.9557Y-2.2591
X6.9646Y-3.0886
X6.9728Y-2.7868
X7.0073Y-2.1006
X7.0132Y-2.1537
X7.0469Y-2.5059
X7.0709Y-2.4152
X7.0854Y-3.0648
X7.1022Y-2.5571
X7.1764Y-2.5683
X7.2453Y-1.9996
X7.2587Y-2.5526
X7.3191Y-2.0941
T2
X4.9492Y-2.1896
X4.9492Y-2.2396
X5.0053Y-2.5967
X5.0057Y-2.5035
X5.0553Y-2.5967
X5.0557Y-2.5035
X5.549Y-2.1374
X5.549Y-2.1874
X5.5608Y-2.6547
X5.5608Y-2.7047
X6.0984Y-3.0276
X6.4311Y-3.0276
X6.5415Y-2.4856
X6.5915Y-2.4856
X7.0945Y-2.2463
X7.0945Y-2.2963
X7.0945Y-2.3463
X7.1931Y-2.2463
X7.1931Y-2.2963
X7.1931Y-2.3463
X7.2927Y-2.2463
X7.2927Y-2.2963
X7.2927Y-2.3463
T3
X7.0992Y-2.0437
X7.0992Y-2.1437
X7.1992Y-2.0437
X7.1992Y-2.1437
X7.2992Y-2.0437
X7.2992Y-2.1437
T4
X5.1945Y-3.0982
X5.2945Y-3.0982
X6.2146Y-3.0768
X6.3146Y-3.0768
X7.2083Y-3.098
X7.3083Y-3.098
X7.4118Y-2.4272
X7.4118Y-2.5272
X7.4118Y-2.6272
X7.4118Y-2.7272
T0
M30
